<?xml version="1.0" encoding="UTF-8"?>
<!DOCTYPE svg PUBLIC "-//W3C//DTD SVG 1.1//EN" "http://www.w3.org/Graphics/SVG/1.1/DTD/svg11.dtd">
<!-- Creator: CorelDRAW -->
<svg xmlns="http://www.w3.org/2000/svg" xml:space="preserve" width="592px" height="150px" version="1.1" style="shape-rendering:geometricPrecision; text-rendering:geometricPrecision; image-rendering:optimizeQuality; fill-rule:evenodd; clip-rule:evenodd"
viewBox="0 0 199.46 50.59"
 xmlns:xlink="http://www.w3.org/1999/xlink"
 xmlns:xodm="http://www.corel.com/coreldraw/odm/2003">
 <defs>
  <style type="text/css">
   <![CDATA[
    .fil2 {fill:#EBECEC}
    .fil1 {fill:#555555}
    .fil3 {fill:#2B2A29;fill-rule:nonzero}
    .fil0 {fill:#2B2A29;fill-rule:nonzero}
   ]]>
  </style>
 </defs>
 <g id="Layer_x0020_1">
  <metadata id="CorelCorpID_0Corel-Layer"/>
  <g id="_1490969699584">
   <path class="fil0" d="M172.21 12.44c-1.62,0 -3.77,0.72 -3.77,3.14 0,2.01 1.95,2.43 2.52,2.55 0.51,0.1 1.02,0.17 1.54,0.23 0.69,0.1 1.64,0.22 1.64,0.96 0,0.65 -0.8,1.09 -1.73,1.09 -0.55,0 -1.18,-0.12 -1.81,-0.45 -0.46,-0.25 -0.66,-0.47 -0.9,-0.73l-1.78 1.13c0.59,0.67 1.63,1.89 4.27,1.89 1.32,0 2.67,-0.28 3.52,-1.26 0.49,-0.57 0.74,-1.31 0.74,-1.99 0,-1.06 -0.54,-1.9 -1.61,-2.29 -0.53,-0.19 -1.87,-0.44 -2.87,-0.56 -0.4,-0.06 -1.2,-0.16 -1.2,-0.88 0,-0.45 0.46,-0.98 1.4,-0.98 0.6,0 1.19,0.23 1.52,0.41 0.37,0.21 0.64,0.47 0.93,0.76l1.73 -1.24c-0.81,-0.73 -1.98,-1.78 -4.14,-1.78l0 0zm-37.82 0.22l0 1.58 2.01 0 0 -1.58 -2.01 0zm-11.12 0.01l-3.48 9.37 2.5 0 0.47 -1.5 3.45 0 0.46 1.5 2.5 0 -3.46 -9.37 -2.44 0 0 0zm54.2 0.44l0 2.15 -1.02 0 0 1.25 1.02 0 0 3.34c0,0.67 0,1.16 0.28,1.57 0.44,0.63 1.22,0.67 1.92,0.67 0.37,0 0.63,-0.04 1.08,-0.1l0 -1.59 -0.74 0.02c-0.54,0 -0.54,-0.36 -0.52,-0.78l0 -3.12 1.35 0 0 -1.25 -1.35 0 0 -2.16 -2.02 0zm11.32 0l0 2.15 -1.01 0 0 1.25 1.01 0 0 3.34c0,0.67 0.01,1.16 0.29,1.57 0.44,0.63 1.21,0.67 1.91,0.67 0.37,0 0.64,-0.04 1.07,-0.1l0 -1.59 -0.72 0.02c-0.55,0 -0.55,-0.36 -0.54,-0.78l0 -3.12 1.35 0 0 -1.25 -1.33 0 0 -2.16 -2.03 0zm7.19 1.78c-2.73,0 -3.55,2.15 -3.55,3.82 0,2.27 1.44,3.58 3.5,3.58 1.11,0 2.02,-0.42 2.61,-0.98 0.37,-0.33 0.6,-0.68 0.84,-1.03l-1.54 -0.79c-0.25,0.49 -0.64,1.22 -1.75,1.22 -1.1,0 -1.59,-0.86 -1.58,-1.72l4.95 0c-0.03,-0.79 -0.08,-2.14 -0.98,-3.11 -0.89,-0.95 -2.09,-0.99 -2.5,-0.99l0 0zm-48.51 0c-2.33,0.08 -3.51,1.68 -3.51,3.67 0,2.57 1.78,3.68 3.72,3.68 2.72,0 3.72,-1.92 3.72,-3.68 0,-1.26 -0.62,-3.5 -3.44,-3.66 -0.18,-0.01 -0.33,-0.01 -0.49,-0.01l0 0zm-23.02 0.01l1.23 3.95 -2.38 0c0.21,-0.7 0.57,-1.8 0.77,-2.5 0.13,-0.48 0.26,-0.97 0.38,-1.45l0 0zm37.82 0.03c-0.82,0 -1.64,0.1 -2.28,0.61 -0.62,0.49 -0.68,1.06 -0.72,1.54l2.04 0c0.05,-0.26 0.17,-0.81 1.07,-0.81 0.74,0 0.76,0.53 0.78,0.85l0 0.37c-0.85,0.16 -2.17,0.4 -2.73,0.64 -0.57,0.23 -1.46,0.87 -1.46,1.99 0,0.97 0.68,2.11 2.27,2.11 1.03,0 1.61,-0.44 2.12,-0.83l0 0.64 2.01 0c-0.16,-0.24 -0.2,-0.34 -0.2,-1.09l0 -4.03c0,-1.79 -2.05,-1.99 -2.9,-1.99l0 0zm22.19 0c-0.81,0 -1.64,0.1 -2.27,0.61 -0.63,0.49 -0.69,1.06 -0.73,1.54l2.04 0c0.06,-0.26 0.17,-0.81 1.08,-0.81 0.73,0 0.76,0.53 0.78,0.85l0 0.37c-0.86,0.16 -2.17,0.4 -2.73,0.64 -0.57,0.23 -1.46,0.87 -1.46,1.99 0,0.97 0.67,2.11 2.26,2.11 1.03,0 1.61,-0.44 2.13,-0.83l0 0.64 2 0c-0.15,-0.24 -0.19,-0.34 -0.19,-1.09l0 -4.03c0,-1.79 -2.06,-1.99 -2.91,-1.99l0 0zm-28.36 0.01c-0.49,0 -0.94,0.12 -1.26,0.25 -0.35,0.17 -0.49,0.33 -0.68,0.55l0 -0.62 -2.07 0 0 6.92 2.05 0 0 -3.74c0,-0.87 0,-1.73 1.07,-1.73 0.4,0 0.76,0.16 0.92,0.53 0.08,0.19 0.09,0.41 0.09,1.04l0 3.9 2.03 0 0 -4.74c0,-1.07 -0.18,-1.7 -0.91,-2.08 -0.36,-0.2 -0.83,-0.28 -1.24,-0.28l0 0zm-22.42 0.09c-1.06,0.11 -1.55,0.41 -2,0.8l0 -0.73 -1.99 0 0 6.94 2.04 0 0 -3.9c0,-0.88 0.29,-1.02 1.28,-1.2l0.67 -0.1 0 -1.81 0 0zm0.71 0.07l0 6.94 2.01 0 0 -6.94 -2.01 0zm3.26 0.01l0 1.57 3.35 0 -3.75 3.82 0 1.54 6.34 0 0 -1.59 -3.69 0 3.69 -3.77 0 -1.57 -5.94 0zm58.32 1.24c0.36,0 0.74,0.13 1,0.38 0.29,0.31 0.34,0.69 0.38,0.98l-2.83 0c0.07,-0.29 0.13,-0.61 0.41,-0.91 0.2,-0.22 0.55,-0.45 1.04,-0.45zm-48.15 0.16c0.28,0.01 0.62,0.09 0.94,0.39 0.39,0.37 0.57,0.97 0.57,1.74 0,1.09 -0.54,1.98 -1.65,1.98 -1.13,0 -1.67,-0.97 -1.67,-2.07 0,-0.48 0.1,-0.96 0.35,-1.35 0.28,-0.44 0.62,-0.64 1.21,-0.68 0.07,-0.01 0.16,-0.01 0.25,-0.01l0 0zm15.35 2.21c-0.01,0.72 -0.04,1.36 -0.72,1.78 -0.21,0.13 -0.45,0.23 -0.7,0.23 -0.48,0 -0.78,-0.37 -0.78,-0.71 0,-0.53 0.54,-0.73 0.89,-0.86l1.31 -0.44 0 0zm22.2 0c-0.02,0.72 -0.05,1.36 -0.72,1.78 -0.22,0.13 -0.46,0.23 -0.7,0.23 -0.48,0 -0.78,-0.37 -0.78,-0.71 0,-0.53 0.54,-0.73 0.88,-0.86l1.32 -0.44 0 0zm-48.98 6.38l0 1.58 2.02 0 0 -1.58 -2.02 0zm28.29 0l0 1.58 2.02 0 0 -1.58 -2.02 0zm-44.58 0.02l0 5.22c-0.01,1.28 -0.01,2.93 1.79,3.86 0.64,0.33 1.48,0.5 2.18,0.5 0.4,0 2.48,-0.08 3.49,-1.7 0.52,-0.85 0.53,-1.75 0.55,-2.66l0 -5.22 -2.35 0 0 5.82c-0.02,0.73 -0.02,1.82 -1.61,1.82 -0.58,0 -1.22,-0.15 -1.51,-0.64 -0.16,-0.29 -0.18,-0.69 -0.18,-1.16l0 -5.84 -2.36 0zm48.33 0.43l0 2.15 -1.02 0 0 1.25 1.02 0 0 3.35c0,0.66 0,1.15 0.28,1.56 0.44,0.64 1.22,0.68 1.92,0.68 0.37,0 0.63,-0.04 1.07,-0.11l0 -1.59 -0.73 0.03c-0.54,0 -0.54,-0.36 -0.52,-0.79l0 -3.12 1.35 0 0 -1.24 -1.35 0 0 -2.17 -2.02 0zm-19.27 1.78c-2.73,0 -3.56,2.15 -3.56,3.83 0,2.27 1.45,3.58 3.5,3.58 1.13,0 2.02,-0.42 2.63,-0.98 0.35,-0.33 0.59,-0.68 0.83,-1.04l-1.54 -0.78c-0.25,0.49 -0.64,1.22 -1.75,1.22 -1.1,0 -1.6,-0.87 -1.58,-1.73l4.95 0c-0.02,-0.78 -0.08,-2.13 -0.98,-3.1 -0.89,-0.96 -2.09,-1 -2.5,-1l0 0zm11.66 0c-1.94,0 -2.92,1.18 -2.92,2.33 0,0.51 0.21,0.99 0.51,1.3 0.31,0.3 0.73,0.47 1.16,0.59 0.3,0.1 0.62,0.16 0.93,0.22 0.39,0.06 0.87,0.1 1.18,0.26 0.12,0.07 0.27,0.16 0.27,0.4 0,0.52 -0.75,0.68 -1.24,0.68 -0.77,0 -1.46,-0.41 -2.02,-0.96l-1.28 1.17c0.43,0.41 1.43,1.34 3.35,1.34 1.63,0 3.28,-0.8 3.28,-2.43 0,-1.65 -1.61,-2.02 -3.01,-2.27 -0.67,-0.12 -1.1,-0.2 -1.1,-0.6 0,-0.2 0.18,-0.51 0.98,-0.51 0.48,0 1.09,0.18 1.74,0.68l1.26 -1.16c-0.48,-0.33 -1.46,-1.04 -3.09,-1.04l0 0zm-27.64 0.06c-0.49,0 -0.94,0.11 -1.26,0.25 -0.36,0.17 -0.49,0.33 -0.69,0.54l0 -0.61 -2.06 0 0 6.92 2.04 0 0 -3.75c0,-0.86 0,-1.72 1.08,-1.72 0.4,0 0.75,0.16 0.91,0.53 0.08,0.19 0.1,0.41 0.1,1.03l0 3.91 2.03 0 0 -4.74c0,-1.08 -0.19,-1.7 -0.92,-2.09 -0.36,-0.2 -0.82,-0.27 -1.23,-0.27l0 0zm24.28 0.09c-1.07,0.1 -1.55,0.41 -2.01,0.79l0 -0.73 -1.98 0 0 6.95 2.04 0 0 -3.91c0,-0.87 0.29,-1.02 1.27,-1.19l0.68 -0.11 0 -1.8zm-21.07 0.06l0 6.95 2.02 0 0 -6.95 -2.02 0zm28.29 0l0 6.95 2.02 0 0 -6.95 -2.02 0zm-25.67 0.02l2.24 6.93 2.14 0 2.24 -6.93 -2.1 0 -0.42 1.7c-0.41,1.63 -0.45,1.8 -0.73,3.34 -0.23,-1.33 -0.37,-1.96 -1.22,-5.04l-2.15 0zm33.27 0l2.06 6.69c0.05,0.14 0.1,0.32 0.1,0.49 0,0.49 -0.52,0.49 -0.85,0.5l-0.72 0 0 1.62 1.47 0c0.53,-0.01 1,-0.04 1.48,-0.55 0.35,-0.39 0.49,-0.81 0.65,-1.27l2.44 -7.48 -2.17 0 -1.15 4.96 -1.14 -4.96 -2.17 0zm-23.13 1.23c0.36,0 0.74,0.14 0.99,0.39 0.29,0.3 0.35,0.69 0.39,0.98l-2.83 0c0.07,-0.29 0.14,-0.61 0.42,-0.92 0.19,-0.21 0.54,-0.45 1.03,-0.45l0 0z"/>
   <path class="fil1" d="M116.54 47.5c-1.71,-1.83 -1.61,-3.76 -1.61,-3.76l0 -43.74 -16.62 0 0 34.98c-0.21,3.31 -3.46,4.16 -5.26,4.1 -2.57,-0.08 -4.07,-1.52 -4.07,-4l0 -35.06 -16.19 0 0 -0.02c-3.79,0 -6.76,0.02 -11.41,0.02 -8.85,0 -17.22,1.35 -20.04,8.7l-1.67 -6.51c-0.41,-1.28 -1.81,-2.2 -3.19,-2.2l-2.17 0 -21.66 0 -5.12 0c-0.41,0 -0.56,0.13 -0.35,0.42 0,0 0.79,0.75 2.21,2.38 1.98,2.25 1.2,5.26 1.2,5.26l-10.59 42.25 15.42 0 2.23 -9.28 14.88 0 2.32 9.28 20.31 0c8.34,0 15.11,-0.85 18.47,-6.04 2.5,4.73 7.88,6.96 17.36,6.14 3.31,-0.28 6.55,-1.83 7.95,-4.28l0.64 2.04c0.56,1.23 1.68,2.13 3.29,2.13l15.53 0c0.41,0 0.56,-0.12 0.34,-0.41 0,0 -0.82,-0.93 -2.2,-2.4zm-96.53 -15.56l5.13 -20.65 5.17 20.65 -10.3 0zm96.87 -28.88l0.44 0 0 -2.67 0.95 0 0 -0.39 -2.34 0 0 0.39 0.95 0 0 2.67zm4.46 -3.06l-0.94 2.55 -0.96 -2.55 -0.73 0 0 3.06 0.44 0 0 -2.65 0.01 0 1.01 2.65 0.43 0 1.02 -2.65 0.01 0 0 2.65 0.43 0 0 -3.06 -0.72 0z"/>
   <path class="fil2" d="M40.73 12.23l0.01 -0.11c0.06,-0.44 0.14,-0.89 0.24,-1.32l0 -0.04 -2.78 -1.68c-0.05,-0.04 -0.12,-0.06 -0.19,-0.06 -0.08,0 -0.17,0.03 -0.23,0.1 -0.05,0.05 -0.08,0.11 -0.08,0.18 0,0.01 0,0.02 0,0.02 0.01,0.08 0.05,0.15 0.11,0.2l2.92 2.71 0 0zm-0.06 4.53l-0.01 -0.11c-0.06,-0.58 -0.09,-1.17 -0.09,-1.75 0,-0.07 0,-0.14 0,-0.21l-5.2 -2.07c-0.14,-0.07 -0.33,-0.02 -0.41,0.11 -0.03,0.04 -0.05,0.09 -0.05,0.14 0,0.02 0.01,0.05 0.01,0.07 0.02,0.07 0.07,0.14 0.14,0.18l5.61 3.64 0 0zm-7.62 0.31l8.8 3.85 -0.06 -0.13c-0.38,-0.8 -0.67,-1.64 -0.86,-2.5l-0.01 -0.04 -7.66 -1.7c-0.16,-0.04 -0.32,0.03 -0.38,0.16 -0.02,0.04 -0.02,0.07 -0.02,0.11 0,0.03 0.01,0.07 0.02,0.11 0.04,0.07 0.1,0.12 0.17,0.14zm21.95 12.6c-4.82,-1.66 -10.29,-3.54 -12.9,-8.27l-0.01 -0.03 -10.13 -0.63c-0.16,-0.02 -0.33,0.08 -0.35,0.23 -0.01,0.02 -0.01,0.03 -0.01,0.05 0,0.06 0.02,0.11 0.05,0.15 0.05,0.07 0.12,0.12 0.2,0.13l10.15 2.61c0.03,0 0.07,0.02 0.09,0.04 0.01,0.01 0.01,0.03 0.01,0.05 0,0 0,0 0,0.01 0,0.05 -0.05,0.08 -0.11,0.08l-10.51 0.98c-0.16,0.01 -0.3,0.14 -0.3,0.29 0,0.07 0.03,0.14 0.08,0.19 0.05,0.06 0.14,0.09 0.22,0.1l10.5 0.98c0.05,0 0.1,0.03 0.1,0.08 0,0 0,0.01 0,0.01 0,0.02 0,0.04 -0.02,0.06 -0.01,0.02 -0.03,0.03 -0.06,0.03l-10.17 2.61c-0.07,0.02 -0.14,0.06 -0.18,0.12 -0.03,0.05 -0.05,0.1 -0.05,0.16 0,0.02 0,0.03 0,0.05 0.03,0.15 0.2,0.24 0.36,0.23l10.52 -0.66c0.06,-0.01 0.11,0.01 0.12,0.06 0,0.01 0.01,0.02 0.01,0.03 0,0.01 -0.01,0.03 -0.02,0.04 -0.01,0.03 -0.03,0.04 -0.05,0.05l-9.49 4.14c-0.07,0.03 -0.13,0.09 -0.17,0.16 -0.02,0.03 -0.03,0.07 -0.03,0.11 0,0.03 0.01,0.07 0.02,0.1 0.06,0.14 0.24,0.2 0.4,0.17l10.22 -2.29c0.09,-0.02 0.13,0 0.15,0.05 0,0.01 0.01,0.02 0.01,0.03 0,0.01 0,0.02 -0.01,0.03 -0.01,0.03 -0.03,0.05 -0.05,0.06l-8.52 5.54c-0.08,0.04 -0.13,0.11 -0.15,0.19 -0.01,0.02 -0.01,0.04 -0.01,0.06 0,0.06 0.01,0.11 0.04,0.15 0.08,0.13 0.29,0.17 0.42,0.1l9.62 -3.84c0.04,-0.03 0.11,-0.02 0.14,0.02 0.01,0.02 0.02,0.04 0.02,0.07 0,0 0,0.01 0,0.02 0,0.02 -0.01,0.03 -0.03,0.04l-7.32 6.79c-0.06,0.05 -0.09,0.13 -0.11,0.21 0,0.07 0.02,0.14 0.08,0.2 0.1,0.11 0.31,0.13 0.43,0.03l8.73 -5.28c0.02,-0.01 0.04,-0.02 0.07,-0.02 0.03,0 0.05,0.01 0.07,0.02 0.05,0.05 0.04,0.07 0.04,0.08 0,0.03 -0.02,0.06 -0.02,0.06l-5.91 7.84c-0.04,0.05 -0.06,0.1 -0.06,0.16 0,0.01 0.01,0.02 0.01,0.03 0.01,0.08 0.05,0.15 0.11,0.19 0.12,0.1 0.33,0.07 0.43,-0.03l7.57 -6.56c0.03,-0.04 0.11,-0.05 0.15,-0.02 0.04,0.02 0.05,0.05 0.05,0.08 0,0.02 0,0.04 -0.01,0.06l-4.29 8.61c-0.02,0.04 -0.03,0.09 -0.03,0.14 0,0.02 0,0.04 0.01,0.07 0.02,0.07 0.07,0.14 0.14,0.18 0.14,0.07 0.34,0.02 0.43,-0.1 0,0 6.22,-7.69 6.23,-7.68 1.25,0.57 2.48,0.94 3.45,1.03 2.95,0.29 5.71,-0.38 7.2,-1.73 0.77,-0.7 1.16,-1.54 1.16,-2.5 0,-3.61 -4.04,-5 -8.73,-6.6l0 0zm20.17 11.55l-0.03 0.1c-0.14,0.43 -0.3,0.86 -0.47,1.27l-0.02 0.04 2.39 2.08c0.06,0.05 0.14,0.08 0.23,0.08 0.07,0 0.14,-0.02 0.2,-0.06 0.06,-0.05 0.1,-0.12 0.11,-0.2 0,-0.01 0,-0.01 0,-0.02 0,-0.07 -0.02,-0.13 -0.06,-0.18l-2.35 -3.11 0 0zm0.79 -4.6l-0.01 0.12c-0.04,0.66 -0.12,1.33 -0.22,1.98l0 0.04 4.79 2.9c0.12,0.09 0.32,0.07 0.42,-0.05 0.05,-0.05 0.08,-0.11 0.08,-0.18 0,-0.01 0,-0.02 0,-0.02 -0.01,-0.08 -0.05,-0.14 -0.1,-0.19l-4.96 -4.6zm-0.12 -4.09l0.02 0.13c0.1,0.68 0.15,1.4 0.15,2.13l0 0.39 7.34 2.94c0.14,0.06 0.33,0.02 0.41,-0.11 0.03,-0.04 0.04,-0.09 0.04,-0.14 0,-0.03 0,-0.05 -0.01,-0.07 -0.02,-0.08 -0.07,-0.14 -0.13,-0.18l-7.82 -5.09zm11.62 -7.35c-0.06,-0.05 -0.13,-0.09 -0.21,-0.09l-10.51 -0.99c-0.05,0.01 -0.1,-0.03 -0.1,-0.08 0,0 0,0 0,-0.01 0,-0.02 0.01,-0.04 0.02,-0.06 0.01,-0.02 0.04,-0.03 0.06,-0.03l10.15 -2.6c0.08,-0.02 0.15,-0.06 0.2,-0.13 0.03,-0.05 0.05,-0.1 0.05,-0.16 0,-0.01 0,-0.03 0,-0.04 -0.03,-0.15 -0.19,-0.25 -0.36,-0.24l-10.53 0.67c-0.05,0.01 -0.1,-0.02 -0.12,-0.06 0,-0.01 0,-0.02 0,-0.03 0,-0.02 0,-0.03 0.01,-0.05 0.01,-0.02 0.03,-0.03 0.05,-0.04l9.5 -4.14c0.07,-0.03 0.14,-0.08 0.17,-0.16 0.02,-0.03 0.03,-0.07 0.03,-0.11 0,-0.03 -0.01,-0.07 -0.02,-0.1 -0.06,-0.14 -0.25,-0.2 -0.4,-0.16l-10.25 2.28c-0.05,0.03 -0.12,0.01 -0.14,-0.03 -0.01,-0.01 -0.01,-0.02 -0.01,-0.04 0,-0.01 0,-0.02 0.01,-0.03 0.01,-0.02 0.02,-0.04 0.04,-0.05l8.56 -5.57c0.07,-0.04 0.12,-0.1 0.15,-0.18 0,-0.02 0,-0.04 0,-0.06 0,-0.06 -0.01,-0.11 -0.04,-0.15 -0.08,-0.13 -0.27,-0.17 -0.42,-0.11l-9.66 3.86c-0.04,0.03 -0.1,0.02 -0.13,-0.02 -0.02,-0.01 -0.02,-0.03 -0.02,-0.06 0,0 0,-0.01 0,-0.01 0,-0.02 0.01,-0.04 0.03,-0.05l7.35 -6.82c0.06,-0.05 0.1,-0.11 0.11,-0.19 0,-0.01 0,-0.01 0,-0.02 0,-0.07 -0.03,-0.14 -0.08,-0.19 -0.1,-0.11 -0.28,-0.14 -0.4,-0.04l-8.8 5.31c-0.02,0.02 -0.04,0.03 -0.07,0.03 -0.03,0 -0.05,-0.01 -0.07,-0.03 -0.02,-0.02 -0.03,-0.04 -0.03,-0.06 0,-0.02 0.01,-0.04 0.03,-0.06l5.91 -7.86c0.05,-0.05 0.07,-0.12 0.07,-0.19 0,-0.01 0,-0.01 0,-0.01 0,-0.08 -0.04,-0.16 -0.11,-0.2 -0.13,-0.1 -0.33,-0.08 -0.44,0.03l-7.6 6.59c-0.03,0.04 -0.09,0.06 -0.14,0.03 -0.02,-0.01 -0.04,-0.03 -0.04,-0.06 0,0 0,-0.01 0,-0.01 0,-0.02 0,-0.03 0,-0.05l4.32 -8.67c0.02,-0.04 0.04,-0.09 0.04,-0.14 0,-0.02 -0.01,-0.05 -0.01,-0.07 -0.03,-0.08 -0.08,-0.14 -0.15,-0.18 -0.14,-0.07 -0.34,-0.03 -0.42,0.1l-6.35 7.8c-1.75,-0.85 -4.69,-1.36 -6.05,-1.36 -0.03,0 -0.07,0 -0.12,0 -2.79,-0.07 -4.87,0.48 -6.01,1.59 -0.65,0.64 -0.99,1.47 -0.99,2.46 0,1.36 0.77,2.48 2.42,3.51 1.48,0.93 3.53,1.7 5.7,2.52 2.83,1.07 6.04,2.28 8.67,4.1 3.02,2.08 4.79,4.62 5.44,7.77l0 0.04 9.73 2.18c0.02,0 0.05,0.01 0.08,0.01 0.12,0 0.23,-0.08 0.28,-0.19 0.01,-0.03 0.02,-0.07 0.02,-0.1 0,-0.04 -0.01,-0.08 -0.03,-0.11 -0.03,-0.07 -0.09,-0.12 -0.16,-0.15l-9.49 -4.15c-0.02,0 -0.04,-0.02 -0.05,-0.04 -0.01,-0.01 -0.01,-0.03 -0.01,-0.05 0,-0.01 0,-0.02 0,-0.03 0.02,-0.04 0.07,-0.07 0.13,-0.06l10.52 0.67c0.16,0.01 0.31,-0.09 0.34,-0.24 0.01,-0.01 0.01,-0.03 0.01,-0.05 0,-0.05 -0.02,-0.11 -0.05,-0.15 -0.05,-0.07 -0.12,-0.11 -0.2,-0.13l-10.14 -2.6c-0.03,0 -0.06,-0.02 -0.07,-0.04 -0.02,-0.01 -0.02,-0.03 -0.02,-0.05 0,0 0,-0.01 0,-0.01 0,-0.05 0.05,-0.09 0.1,-0.09 0,0 0,0.01 0.01,0.01l10.49 -0.99c0.08,0 0.17,-0.04 0.22,-0.09 0.06,-0.06 0.08,-0.13 0.08,-0.2 0,-0.07 -0.02,-0.13 -0.08,-0.19l0 0z"/>
  </g>
  <path class="fil3" d="M123.93 10.07c0.8,0 1.37,-0.41 1.45,-1.21l-0.72 0c-0.05,0.41 -0.33,0.62 -0.74,0.62 -0.53,0 -0.84,-0.39 -0.84,-1.06l0 -0.04c0,-0.67 0.33,-1.07 0.84,-1.07 0.41,0 0.62,0.21 0.68,0.6l0.75 0c-0.08,-0.8 -0.66,-1.18 -1.44,-1.18 -0.91,0 -1.6,0.67 -1.6,1.66l0 0.03c0,1 0.56,1.65 1.62,1.65z"/>
  <polygon id="_1" class="fil3" points="125.86,10.02 128.04,10.02 128.04,9.45 126.59,9.45 126.59,8.64 127.69,8.64 127.69,8.11 126.59,8.11 126.59,7.35 127.97,7.35 127.97,6.78 125.86,6.78 "/>
  <path id="_2" class="fil3" d="M128.55 10.02l0.73 0 0 -1.25 0.32 0 0.77 1.25 0.78 0 -0.86 -1.38c0.38,-0.11 0.67,-0.37 0.67,-0.86l0 -0.01c0,-0.67 -0.49,-0.99 -1.25,-0.99l-1.16 0 0 3.24zm0.73 -1.75l0 -0.93 0.41 0c0.35,0 0.55,0.12 0.55,0.45l0 0.02c0,0.31 -0.18,0.46 -0.55,0.46l-0.41 0z"/>
  <polygon id="_3" class="fil3" points="132.16,10.02 132.89,10.02 132.89,7.35 133.77,7.35 133.77,6.78 131.28,6.78 131.28,7.35 132.16,7.35 "/>
  <polygon id="_4" class="fil3" points="134.24,10.02 134.98,10.02 134.98,6.78 134.24,6.78 "/>
  <polygon id="_5" class="fil3" points="135.69,10.02 136.43,10.02 136.43,8.77 137.49,8.77 137.49,8.21 136.43,8.21 136.43,7.36 137.77,7.36 137.77,6.78 135.69,6.78 "/>
  <polygon id="_6" class="fil3" points="138.28,10.02 139.02,10.02 139.02,6.78 138.28,6.78 "/>
  <polygon id="_7" class="fil3" points="139.73,10.02 141.91,10.02 141.91,9.45 140.46,9.45 140.46,8.64 141.56,8.64 141.56,8.11 140.46,8.11 140.46,7.35 141.84,7.35 141.84,6.78 139.73,6.78 "/>
  <path id="_8" class="fil3" d="M143.15 9.45l0 -2.1 0.29 0c0.69,0 0.97,0.36 0.97,1.03l0 0.03c0,0.67 -0.31,1.04 -0.96,1.04l-0.3 0zm-0.73 0.57l1.06 0c1.13,0 1.7,-0.65 1.7,-1.62l0 -0.03c0,-0.97 -0.56,-1.59 -1.7,-1.59l-1.06 0 0 3.24z"/>
  <path id="_9" class="fil3" d="M146.71 10.02l1.33 0c0.75,0 1.14,-0.31 1.14,-0.91l0 -0.01c0,-0.44 -0.23,-0.68 -0.65,-0.76 0.36,-0.11 0.52,-0.36 0.52,-0.7l0 -0.01c0,-0.56 -0.36,-0.85 -1.07,-0.85l-1.27 0 0 3.24zm0.72 -0.51l0 -0.93 0.46 0c0.4,0 0.56,0.16 0.56,0.46l0 0.02c0,0.29 -0.16,0.45 -0.52,0.45l-0.5 0zm0 -1.4l0 -0.82 0.43 0c0.34,0 0.5,0.12 0.5,0.39l0 0.02c0,0.29 -0.14,0.41 -0.5,0.41l-0.43 0z"/>
  <polygon id="_10" class="fil3" points="150.36,10.02 151.09,10.02 151.09,8.63 152.1,6.78 151.39,6.78 150.75,8.02 150.09,6.78 149.29,6.78 150.36,8.63 "/>
 </g>
</svg>
