<?xml version="1.0" encoding="UTF-8"?>
<!DOCTYPE svg PUBLIC "-//W3C//DTD SVG 1.1//EN" "http://www.w3.org/Graphics/SVG/1.1/DTD/svg11.dtd">
<!-- Creator: CorelDRAW -->
<svg xmlns="http://www.w3.org/2000/svg" xml:space="preserve" width="462px" height="150px" version="1.1" style="shape-rendering:geometricPrecision; text-rendering:geometricPrecision; image-rendering:optimizeQuality; fill-rule:evenodd; clip-rule:evenodd"
viewBox="0 0 56.01 18.18"
 xmlns:xlink="http://www.w3.org/1999/xlink"
 xmlns:xodm="http://www.corel.com/coreldraw/odm/2003">
 <defs>
  <style type="text/css">
   <![CDATA[
    .fil0 {fill:#555555}
    .fil1 {fill:#2B2A29;fill-rule:nonzero}
   ]]>
  </style>
 </defs>
 <g id="Layer_x0020_1">
  <metadata id="CorelCorpID_0Corel-Layer"/>
  <g id="_1526472394304">
   <path class="fil0" d="M19.18 9.53l0 -6.81 2.49 0c0.52,0 0.86,0.11 1.16,0.22 0.68,0.34 0.98,0.98 0.98,1.55 0,0.63 -0.26,1.09 -0.79,1.42 0.79,0.19 1.24,0.72 1.24,1.55 0,0.94 -0.56,1.61 -1.5,1.91 -0.34,0.12 -0.72,0.16 -1.28,0.16l-2.3 0 0 0zm3.05 -5.65c-0.19,-0.07 -0.38,-0.11 -0.64,-0.11l-1.28 0 0 1.77 1.2 0c0.34,0 0.57,-0.04 0.76,-0.15 0.26,-0.15 0.41,-0.42 0.41,-0.72 0,-0.33 -0.19,-0.64 -0.45,-0.79zm0.34 2.82c-0.15,-0.07 -0.38,-0.11 -0.75,-0.11l-1.51 0 0 1.88 1.39 0c0.45,0 0.68,-0.07 0.87,-0.15 0.34,-0.15 0.49,-0.45 0.49,-0.83 0,-0.37 -0.15,-0.63 -0.49,-0.79zm8.46 2.83l0 -6.81 1.17 0 0 6.81 -1.17 0zm8.46 0l0 -6.81 1.17 0 0 6.81 -1.17 0zm4.89 -6.85c0.76,0 1.51,0.19 1.92,0.38l-0.04 1.12c-0.6,-0.3 -1.16,-0.48 -1.88,-0.48 -0.64,0 -1.2,0.18 -1.2,0.71 0,1.39 3.5,0.83 3.5,3.12 0,1.28 -1.05,2.07 -2.63,2.07 -1.06,0 -1.77,-0.3 -2.3,-0.6l0.49 -0.94c0.41,0.26 1.09,0.52 1.84,0.52 0.72,0 1.36,-0.26 1.36,-0.86 0,-1.47 -3.46,-0.83 -3.46,-3.12 0,-1.24 0.97,-1.92 2.4,-1.92zm7.79 6.85l0 -2.94 -3.27 0 0 2.94 -1.17 0 0 -6.81 1.17 0 0 2.78 3.27 0 0 -2.78 1.16 0 0 6.81 -1.16 0zm-30.43 1.16c0.71,0 1.28,0.15 1.88,0.42l-0.34 0.97c-0.34,-0.15 -0.79,-0.34 -1.43,-0.34 -1.28,0 -2.07,1.1 -2.07,2.41 0,1.36 0.76,2.45 2.07,2.45 0.64,0 1.09,-0.19 1.43,-0.34l0.34 0.98c-0.6,0.26 -1.17,0.41 -1.88,0.41 -2.03,0 -3.2,-1.43 -3.2,-3.46 0,-1.92 1.17,-3.5 3.2,-3.5zm25.43 0c0.75,0 1.31,0.15 1.88,0.42l-0.34 0.97c-0.34,-0.15 -0.79,-0.34 -1.43,-0.34 -1.28,0 -2.07,1.1 -2.07,2.41 0,1.36 0.75,2.45 2.07,2.45 0.64,0 1.09,-0.19 1.43,-0.34l0.34 0.98c-0.57,0.26 -1.13,0.41 -1.88,0.41 -2.03,0 -3.2,-1.43 -3.2,-3.46 0,-1.92 1.17,-3.5 3.2,-3.5zm-16.93 3.46c0,2.03 -1.28,3.5 -3.2,3.5 -1.91,0 -3.19,-1.43 -3.19,-3.46 0,-2.03 1.28,-3.5 3.19,-3.5 1.96,0 3.2,1.43 3.2,3.46zm-1.2 0c0,-1.47 -0.87,-2.41 -2,-2.41 -1.12,0 -1.99,0.94 -1.99,2.45 0,1.47 0.87,2.41 1.99,2.41 1.13,0 2,-0.94 2,-2.45zm1.99 0.83l0 -4.21 1.17 0 0 4.25c0,1.16 0.6,1.58 1.58,1.58 0.97,0 1.58,-0.42 1.58,-1.58l0 -4.25 1.16 0 0 4.21c0,1.84 -1.05,2.67 -2.74,2.67 -1.7,0 -2.75,-0.83 -2.75,-2.67zm7.67 -2.37l-0.03 0c0.03,0.23 0.03,0.6 0.03,0.9l0 4.03 -1.16 0 0 -6.77 1.28 0 3.12 4.62 0.04 0c-0.04,-0.22 -0.04,-0.6 -0.04,-0.9l0 -3.72 1.16 0 0 6.77 -1.01 0 -3.39 -4.93zm11.25 4.93l0 -6.77 1.17 0 0 6.77 -1.17 0zm2.22 0l0 -6.77 1.16 0 0 5.71 2.68 0 0 1.06 -3.84 0zm-13.58 -14.78l-5.49 0 0 1.05 2.18 0 0 5.72 1.17 0 0 -5.72 2.14 0 0 -1.05zm-9.63 6.77c-0.98,-2.07 -1.24,-2.64 -1.65,-2.64l-1.09 0 0 2.64 -1.17 0 0 -6.77 2.29 0c1.77,0 2.41,0.9 2.41,1.91 0,0.94 -0.49,1.55 -1.24,1.77 0.3,0.19 0.64,0.83 1.77,3.09l-1.32 0zm-1.54 -5.76l-1.2 0 0 2.07 1.16 0c0.83,0 1.21,-0.41 1.21,-1.05 0,-0.57 -0.34,-1.02 -1.17,-1.02z"/>
   <path class="fil0" d="M7.79 5.99c0,2.14 -1.77,3.87 -3.92,3.87 -2.1,0 -3.87,-1.73 -3.87,-3.87 0,-2.14 1.77,-3.87 3.87,-3.87 2.15,0 3.92,1.73 3.92,3.87zm8.27 0c0,1.03 -0.41,2.01 -1.13,2.74 -0.73,0.73 -1.72,1.14 -2.74,1.13 -2.15,0 -3.88,-1.73 -3.88,-3.87 0,-2.14 1.73,-3.87 3.88,-3.87 1.02,-0.01 2.01,0.4 2.74,1.13 0.72,0.73 1.13,1.71 1.13,2.74zm-8.27 8.31c0,2.15 -1.77,3.88 -3.92,3.88 -2.1,0 -3.87,-1.73 -3.87,-3.88 0,-2.14 1.77,-3.87 3.87,-3.87 2.15,0 3.92,1.73 3.92,3.87zm8.27 0c0,1.03 -0.41,2.02 -1.13,2.74 -0.73,0.73 -1.72,1.14 -2.74,1.14 -1.03,0 -2.02,-0.41 -2.74,-1.14 -0.73,-0.72 -1.14,-1.71 -1.14,-2.74 0,-1.03 0.41,-2.01 1.14,-2.74 0.72,-0.73 1.71,-1.13 2.74,-1.13 1.02,0 2.01,0.4 2.74,1.13 0.72,0.73 1.13,1.71 1.13,2.74z"/>
  </g>
  <path class="fil1" d="M1.78 1.2c0.28,0 0.49,-0.15 0.52,-0.44l-0.26 0c-0.02,0.15 -0.12,0.23 -0.27,0.23 -0.19,0 -0.3,-0.14 -0.3,-0.39l0 -0.01c0,-0.24 0.12,-0.38 0.3,-0.38 0.15,0 0.23,0.07 0.25,0.21l0.26 0c-0.02,-0.28 -0.23,-0.42 -0.51,-0.42 -0.33,0 -0.58,0.24 -0.58,0.59l0 0.02c0,0.35 0.21,0.59 0.59,0.59z"/>
  <polygon id="_1" class="fil1" points="2.47,1.18 3.25,1.18 3.25,0.98 2.73,0.98 2.73,0.69 3.13,0.69 3.13,0.49 2.73,0.49 2.73,0.22 3.23,0.22 3.23,0.02 2.47,0.02 "/>
  <path id="_2" class="fil1" d="M3.44 1.18l0.26 0 0 -0.45 0.11 0 0.28 0.45 0.28 0 -0.31 -0.49c0.14,-0.04 0.24,-0.14 0.24,-0.31l0 -0.01c0,-0.24 -0.17,-0.35 -0.45,-0.35l-0.41 0 0 1.16zm0.26 -0.63l0 -0.33 0.15 0c0.12,0 0.19,0.04 0.19,0.16l0 0.01c0,0.11 -0.06,0.16 -0.19,0.16l-0.15 0z"/>
  <polygon id="_3" class="fil1" points="4.73,1.18 5,1.18 5,0.22 5.31,0.22 5.31,0.02 4.42,0.02 4.42,0.22 4.73,0.22 "/>
  <polygon id="_4" class="fil1" points="5.48,1.18 5.75,1.18 5.75,0.02 5.48,0.02 "/>
  <polygon id="_5" class="fil1" points="6,1.18 6.27,1.18 6.27,0.73 6.65,0.73 6.65,0.53 6.27,0.53 6.27,0.22 6.75,0.22 6.75,0.02 6,0.02 "/>
  <polygon id="_6" class="fil1" points="6.93,1.18 7.2,1.18 7.2,0.02 6.93,0.02 "/>
  <polygon id="_7" class="fil1" points="7.45,1.18 8.24,1.18 8.24,0.98 7.71,0.98 7.71,0.69 8.11,0.69 8.11,0.49 7.71,0.49 7.71,0.22 8.21,0.22 8.21,0.02 7.45,0.02 "/>
  <path id="_8" class="fil1" d="M8.68 0.98l0 -0.76 0.11 0c0.24,0 0.35,0.13 0.35,0.37l0 0.01c0,0.24 -0.12,0.38 -0.35,0.38l-0.11 0zm-0.26 0.2l0.38 0c0.41,0 0.61,-0.23 0.61,-0.58l0 -0.01c0,-0.35 -0.2,-0.57 -0.61,-0.57l-0.38 0 0 1.16z"/>
  <path id="_9" class="fil1" d="M9.96 1.18l0.48 0c0.27,0 0.41,-0.11 0.41,-0.32l0 -0.01c0,-0.16 -0.08,-0.24 -0.24,-0.27 0.13,-0.04 0.19,-0.13 0.19,-0.25l0 -0.01c0,-0.2 -0.13,-0.3 -0.38,-0.3l-0.46 0 0 1.16zm0.26 -0.18l0 -0.34 0.17 0c0.14,0 0.2,0.06 0.2,0.17l0 0c0,0.11 -0.06,0.17 -0.19,0.17l-0.18 0zm0 -0.5l0 -0.3 0.15 0c0.13,0 0.18,0.04 0.18,0.14l0 0.01c0,0.1 -0.05,0.15 -0.17,0.15l-0.16 0z"/>
  <polygon id="_10" class="fil1" points="11.27,1.18 11.54,1.18 11.54,0.68 11.9,0.02 11.64,0.02 11.41,0.46 11.18,0.02 10.89,0.02 11.27,0.68 "/>
 </g>
</svg>
