<?xml version="1.0" encoding="UTF-8"?>
<!DOCTYPE svg PUBLIC "-//W3C//DTD SVG 1.1//EN" "http://www.w3.org/Graphics/SVG/1.1/DTD/svg11.dtd">
<!-- Creator: CorelDRAW -->
<svg xmlns="http://www.w3.org/2000/svg" xml:space="preserve" width="517px" height="150px" version="1.1" style="shape-rendering:geometricPrecision; text-rendering:geometricPrecision; image-rendering:optimizeQuality; fill-rule:evenodd; clip-rule:evenodd"
viewBox="0 0 429.3 124.56"
 xmlns:xlink="http://www.w3.org/1999/xlink"
 xmlns:xodm="http://www.corel.com/coreldraw/odm/2003">
 <defs>
  <style type="text/css">
   <![CDATA[
    .fil2 {fill:#555555}
    .fil0 {fill:black}
    .fil1 {fill:white}
    .fil3 {fill:#2B2A29;fill-rule:nonzero}
   ]]>
  </style>
 </defs>
 <g id="Layer_x0020_1">
  <metadata id="CorelCorpID_0Corel-Layer"/>
  <g id="_1526471515008">
   <path class="fil0" d="M30.57 104.47c0,-1.36 0,-1.69 0.84,-2.31 0.43,-0.31 1.59,-0.88 2.13,-1.01 0,0.88 -0.26,1.67 -0.83,2.31 -0.74,0.82 -0.64,0.01 -2.14,1.01zm44.03 -1.92c0,-2.31 1.36,-2.27 3.31,-2.27 -0.08,0.96 -0.67,0.9 -1.43,1.36 -0.6,0.37 -1.15,0.73 -1.88,0.91zm-51.02 -5.59c1.17,0 1.16,0.5 2.27,0.52 -0.18,0.69 -0.15,0.45 -0.88,0.69 -2.43,0.77 -1.23,0.06 -2.96,-0.34 0.3,-0.44 0.85,-0.87 1.57,-0.87zm64.99 -3.15c0.47,-1.77 1.79,-1.57 2.97,-1.57l0 0.52c-0.68,0.19 -0.78,0.52 -1.19,0.74 -0.27,0.14 -1.43,0.28 -1.78,0.31zm-18.52 -1.4c1.06,-0.24 2.38,-0.61 3.5,1.05 -1.59,0.77 -2.54,0.38 -3.5,-1.05zm-55.9 -1.04c0.68,-0.16 1.66,-1.09 2.97,0.87 -1.66,0.88 -2.18,0.64 -2.97,-0.87zm13.8 -2.8c0.64,0 0.69,1.04 0.95,1.68 0.3,0.74 0.51,1 0.7,1.91 0.26,1.23 -0.26,3.5 1.32,3.92 -0.18,0.79 -0.35,0.56 -0.52,1.23l-0.53 0c-0.09,-0.36 -0.05,-0.59 -0.45,-0.44 -0.98,0.38 0.9,0.04 -0.77,2.53 -0.88,-0.32 0.1,0 -0.43,-0.31 -0.2,-0.12 0.02,-0.55 -0.46,-0.06 -0.31,0.32 -0.09,0.96 -0.2,1.55 -0.16,0.91 -0.95,1.34 -1.18,2.32l-0.35 0c-0.22,-0.94 -0.35,-0.22 -0.35,-1.75 0,-0.6 0.13,-0.68 0.17,-1.22 -1.82,0.42 0.08,1.06 -2.3,1.71 -0.6,0.16 -0.56,0.14 -1.01,0.38 0.36,-1.56 0.97,-2.5 2.26,-3.15 1.59,-0.81 3.15,-0.72 3.15,-2.79 0,-2.03 -1.9,-4.48 -1.46,-6.16 0.18,-0.67 0.73,-1.35 1.46,-1.35zm56.95 6.29c0,2.24 -0.02,1.62 0.88,3.32 -0.3,0.34 -0.57,0.54 -0.7,1.05l-0.7 0c-0.17,-0.71 -0.05,-0.53 -0.53,-0.7 -0.36,1.57 0.15,1.72 -1.22,2.44 -0.17,-0.34 -0.25,-0.62 -0.35,-1.04l-0.35 0c-0.1,1.18 -0.37,2.17 -1.39,2.44 -0.56,-0.41 -0.15,-0.29 -0.7,-0.7 -0.47,0.98 0.3,2.3 -2.27,4.02 -0.1,-1.14 -0.47,-1.42 0.17,-2.62 -1.77,0.47 -1.56,1.63 -1.92,2.28 -0.47,0.83 -1.99,0.87 -2.97,1.39 0,-1.95 0.43,-2.61 1.69,-3.38 1.93,-1.18 5.98,-2.94 7.55,-5.03 1.9,-2.53 0.19,-2.46 0.19,-5.39 0,-1.09 1.1,-2.07 1.71,-2.66 2.14,-2.1 -0.37,-2.23 2.31,-2.23 0.49,1.85 2.19,-0.73 1.35,1.68 -0.61,1.77 -2.75,3.68 -2.75,5.13zm-74.94 -15.9c-0.24,-1.02 -0.07,-1.91 0.35,-2.79 1.48,0.99 0.66,1.48 0.35,2.1 -0.31,0.61 -0.02,0.51 -0.7,0.69zm62.89 -0.52c0.3,-0.63 0.19,-1.75 0.52,-2.45 1.09,0.73 0.66,2.13 -0.52,2.45zm-65.16 -4.89c0,-0.88 0.17,-1.08 0.17,-2.1 3.2,1.7 1.4,4.23 1.4,6.29l0 1.57c0,1.62 1.94,5.24 3.32,5.24 0.93,0 1.13,-0.63 1.75,-1.04 0.1,0.46 0.14,1.17 0.29,1.62 0.09,0.27 0.46,1.09 0.58,1.34 -0.7,0.37 -0.9,0.32 -1.67,0.6 -0.58,0.22 -1.9,2.27 -2.52,-0.42 0.72,-0.35 0.79,0.09 0.87,-0.87 -1.05,0 -1.38,0.09 -1.98,-0.47 -0.28,-0.27 -0.99,-1.2 -0.99,-1.63 0,-0.74 -0.02,-0.02 0.25,-0.45 0.36,-0.59 -0.01,0.37 0.27,-0.42 -1.42,-0.96 -1.65,-1.42 -2.09,-3.32 0.71,0 0.56,0.06 1.05,-0.18 -0.53,-0.78 -0.9,-0.63 -1.48,-1.49 -0.29,-0.42 -0.86,-1.69 -0.97,-2.18 1.81,0 1.25,0.44 2.27,0.53 -0.02,-0.94 -0.52,-1.72 -0.52,-2.62zm62.89 -2.62c3.27,2.19 1.39,3.67 1.39,9.95 0,1.85 0.68,4.02 2.45,4.02 0.82,0 1.25,-0.54 1.75,-0.87 0,4.2 -0.23,2.97 -2.45,2.97 -1.33,0 -1.39,0.67 -2.62,0.7 -0.08,-0.93 -0.35,-0.87 -0.35,-2.1l1.22 0 0 -0.52c-0.71,-0.17 -1.14,-0.31 -1.49,-0.95 -0.24,-0.45 -0.43,-1.39 -0.43,-2.02 0.69,0.05 0.53,0.24 1.05,0 -0.82,-1.55 -1.04,-0.75 -0.87,-2.8 0.68,-0.01 0.41,0.05 0.87,-0.17 -0.29,-1.1 -1.69,-1.08 -1.92,-3.85 2.53,0 0.74,0.55 2.1,0.7 -0.11,-1.23 -0.6,-1.25 -0.82,-2.16 -0.16,-0.68 0.12,-1.93 0.12,-2.9zm10.83 1.04c0.92,-0.07 1.32,-0.98 2.1,-1.39 0.13,0.27 0.25,0.62 0.32,0.91 0.15,0.58 0.06,0.83 0.1,1.08 0.12,0.81 0.04,0.3 0.77,0.48 0.76,0.18 0.73,0.61 0.73,1.37 0,0.41 -0.19,0.83 -0.34,1.06 -0.27,0.44 -0.26,0.46 -0.89,0.51l0.21 -1.39c-0.71,0.18 -0.94,0.9 -1.06,1.59 -0.29,1.73 -0.45,2.81 -1.58,4.05 -0.89,0.97 0.47,0.57 1.04,0.3l1.1 2.26c0.41,1.1 -0.73,0.58 -1.13,0.22 -0.51,-0.46 0.26,-0.12 -0.5,-0.39 -0.35,0.74 -0.07,1.46 -0.7,1.92 -0.81,-0.21 -1.03,-1.12 -1.04,-1.92l-0.53 0c-0.02,0.93 -0.3,1.71 -0.87,2.1 -1.03,-0.69 -0.64,-1.8 -0.88,-2.8l-0.35 0c-0.03,1.44 -0.8,4.18 1.23,4.72 1.27,-0.85 0.8,-1.49 2.62,-0.52 0.91,-0.62 1.63,-1.39 2.67,-1.87 4.52,-2.11 8.29,0.99 12.35,0.99 0.75,0 1.4,-0.54 1.4,-1.22 0,-2.76 -8.91,-3.28 -10.16,-7.31 -1.18,-3.8 2.46,-7.31 8.14,-5 0.96,0.4 2.35,0.95 3.42,0.95 0.8,0 0.7,-0.76 0.7,-1.57 1.1,0.74 1.73,4.58 -4.08,1.63 -0.61,-0.31 -0.88,-0.46 -1.58,-0.7 -0.57,-0.19 -1.15,-0.55 -1.51,-0.06 2.41,0.57 3.43,2.63 6.12,2.63l0 0.34c-0.57,0.14 -1.09,0.35 -1.75,0.35 -2.81,0 -5.17,-4.25 -7.72,-1.95 -1.15,1.04 -0.99,2.64 -0.01,3.75 0.41,0.47 0.8,1 1.44,1.17 0.29,-0.69 -0.22,-0.02 0.18,-0.87 1.1,0.53 1.33,0.35 2.12,1.38 0.22,0.29 0.49,0.96 0.84,0.58 0.32,-0.34 -0.04,-0.24 -0.17,-0.82 -0.21,-0.95 2.58,0.27 3.15,2.7l0.35 -1.04c1.08,0.09 2.09,2.07 2.09,3.14 0,1.65 -1.62,3.13 -3.44,2.93 -0.77,-0.08 -1.82,-0.33 -2.57,-0.59 -0.91,-0.32 -1.47,-0.77 -2.55,-0.77 0.15,0.57 0.23,0.42 0.64,0.76 0.81,0.67 1.33,1.59 2.02,2.35 1.65,1.82 3.47,0.15 2.23,2.48 -0.81,-0.21 -0.15,-0.27 -1.04,-0.35 0.09,1.18 0.58,1.35 0,2.45 -0.74,-0.2 -0.74,-0.83 -0.95,-0.29 -0.18,0.46 0.57,1.31 -0.4,2.79 -0.38,0.57 -0.32,0.85 -0.75,1.17 -0.2,-0.85 -0.35,-0.79 -0.35,-1.92l-0.35 0c-0.32,1.36 -0.99,2.23 -2.1,2.97 -0.06,-2.98 -0.88,-2.24 1.86,-4.27 1.17,-0.87 1.4,-1.92 1.29,-3.25 -0.43,-0.1 -0.34,-0.11 -0.81,-0.23 -1.83,-0.48 -2.48,-0.83 -3.46,-2.48 -0.19,-0.33 -0.29,-0.56 -0.43,-0.8 -0.46,-0.74 0.14,-0.41 -0.72,-0.5 0.14,0.57 0.81,1.34 -0.12,1.35 -0.19,0 -1.44,-0.48 -2.32,-0.48 -1.07,0 -2.65,1.54 -4.2,1.57l-0.35 -1.22c-0.19,0.85 -1.02,1.82 -0.96,2.62 0.04,0.52 0.43,0.65 0.39,1.2 -0.05,0.69 -0.44,0.48 -0.65,1.25l-0.52 0c-0.13,-0.49 -0.35,-0.79 -0.7,-1.05 -0.29,0.61 0,0.63 0,1.39 0,0.8 -0.37,0.92 -0.7,1.4 -1.12,-0.3 -0.71,-1.28 -1.12,0.62 -0.18,0.84 -0.56,1.28 -1.5,1.3 -0.08,-0.91 0.17,-0.31 -0.35,-0.52 0,2.07 -1.29,1.98 -1.4,3.32 -1.38,-1.02 -0.28,-1.72 -0.17,-2.97 -1.53,0.41 0.24,0.97 -3.85,1.92 0.85,-3.61 2.99,-2.49 5.53,-3.91 3.53,-1.98 1.81,-4.84 1.81,-6.75 0,-1.07 0.1,-2.35 0.25,-3.42 0.2,-1.45 0.14,-1.89 0.8,-2.86 0.68,0.05 0.46,0.15 1.22,0.17 -0.35,-0.52 -0.77,-0.93 -1.05,-1.57 -0.53,-1.23 -0.34,-3.26 -0.99,-4.46 -0.7,-1.28 -0.4,0.41 -0.4,1.14 -1.03,-0.28 -2.27,-2.94 -0.64,-3.26 0.62,-0.11 0.5,0.22 1.34,0.29 0,-1.41 0.29,-1.29 0.52,-2.27 1.47,0.34 0.62,0.92 1.75,1.22 0,-1.38 0.4,-2.24 1.22,-2.79 0.79,1.49 0.9,1.37 0.7,2.96zm-45.95 3.15c-1.53,2.09 -5.22,-2.45 -7.33,-2.45 -1.91,0 -2.28,1.19 -2.28,2.8 0,1.22 2.29,3.25 3.32,3.49 -0.08,-1.04 -0.27,-0.3 -0.52,-1.22 2.65,0 2.58,1.89 4.02,2.27 -0.06,-0.71 -0.83,-1.57 -0.18,-1.57 1.04,0 1.64,0.42 2.18,0.97 0.02,0.03 0.06,0.06 0.08,0.09 0.45,0.48 0.71,1.03 1.24,1.38 -0.06,-0.67 -0.16,-0.45 -0.18,-1.22 3.03,0.71 3.93,6.39 -0.19,6.62 -1.26,0.07 -3.85,-1.18 -4.52,-0.85 0.59,0.81 1.1,0.19 1.87,1.62 0.46,0.87 0.65,1.67 0.85,2.82 0.39,2.29 0.68,3.77 3.39,3.77 0.24,1.04 0.24,2.28 0,3.32 -0.58,-0.14 -1.67,-0.76 -0.93,0.36 0.36,0.54 1.51,2.15 0.75,2.93 -0.36,0.37 -1.56,-1.1 -0.86,0.32 0.23,0.46 0.49,0.65 0.67,1.12 0.44,1.15 0.28,1.54 0.2,2.6 -0.77,-0.4 -1.12,-1.23 -1.56,-1.17 -0.65,0.08 -0.02,1.07 -0.02,2.05 0,1.37 -0.75,1.88 -1.39,2.62 -0.97,-4.13 -1.02,-1.97 0.17,-6.29 0.32,-1.15 0.58,-1.91 0.71,-3.32 0.49,-5.62 -3.46,-3.63 -4.71,-7.01 -0.22,-0.61 -1.54,-5.45 -2.48,-5.49 -0.8,-0.04 0.22,0.65 0.06,1.11 -0.18,0.51 -0.64,-0.32 -1.97,-0.32 -1.29,0 -1.6,0.7 -2.96,0.7 0,-0.84 0.41,-1.14 -0.18,-1.57 -0.16,0.69 -0.7,1.51 -0.7,2.27 0,0.81 1.04,1.56 1.4,2.1 -0.25,0.46 -0.45,0.76 -0.7,1.22 -0.65,-0.05 -0.79,-0.31 -1.07,-0.27 -0.63,0.09 -0.15,0.48 -0.15,1.15 0,0.63 -0.21,0.61 -0.35,1.22l-0.53 0c-0.14,-0.53 0.01,-0.39 -0.52,-0.53 -0.35,0.73 -0.03,1.53 -0.46,2.51 -0.37,0.84 -0.91,1.18 -1.11,2.04l-0.35 0c-0.54,-2.3 -0.18,-1.36 -0.18,-3.32l-0.81 0.41c-0.04,0.03 -0.18,0.1 -0.22,0.13 -0.34,0.26 -0.19,0.01 -0.38,0.49 -0.01,0.03 -0.14,0.62 -0.16,0.71 -0.67,0.16 -1.78,0.12 -2.27,0.35 0.66,-2.82 0.69,-2.1 3.02,-3.09 5.39,-2.27 1.28,-4.77 -0.36,-6.38 -1.73,-1.69 -2.79,-5.73 -1.26,-5.73 0.79,0 2.16,0.62 0.84,-0.65 -2.15,-2.07 -0.84,-5.56 -2.41,-5.98 0.01,0.77 0.17,0.81 0.17,1.74 -1.19,-0.32 -2.95,-3.87 0.18,-3.14 0,-0.93 0.17,-1.53 0.34,-2.27 1.14,0.26 1.16,0.71 1.93,1.22 0.02,-0.93 0.5,-2.22 1.04,-2.62 0.34,0.23 0.6,0.52 0.82,0.94 0.52,1.02 0.05,2.07 1.32,0.86 0.37,-0.36 0.66,-0.61 1.18,-0.75 0,3.18 0.2,2.3 1.58,2.62 0.6,1.26 0.08,2.76 -0.7,2.97 -0.22,-0.93 0.12,-0.96 -0.18,-1.57 -0.52,0.38 -0.57,1.12 -0.67,1.94 -0.46,3.78 -0.29,2.83 -1.32,4.14 -0.8,1.01 0.85,0.31 1.29,0.21 0.23,0.46 0.3,0.84 0.58,1.34 0.45,0.8 0.62,0.45 0.65,1.45 -1.38,0 -0.81,-0.61 -1.93,-0.7 0.08,0.88 0.4,1.55 -0.34,2.1 -0.63,-0.17 -0.68,-0.36 -0.93,-1 -0.28,-0.72 -0.12,-0.91 -0.82,-1.1 -0.09,0.4 -0.18,0.59 -0.33,0.89 -0.25,0.49 -0.15,0.53 -0.72,0.68 -0.97,-0.71 -0.45,-1.7 -1.22,-2.27 -0.63,1.12 0.28,3.28 1.05,3.85 1.79,-0.42 1.31,-0.71 3.14,0.52 1.79,-1.2 2.4,-3.53 8.59,-2.47 2.03,0.34 4.45,1.42 6.43,1.42 2.8,0 2.97,-2.89 -0.69,-3.84 -3.01,-0.78 -9.44,-1.67 -9.44,-5.77l0 -1.39c0,-3.07 3.95,-5.28 8.07,-2.66 0.89,0.57 2.37,1.61 3.46,1.61 0.66,0 0.88,-0.84 0.88,-1.57l0.34 0c0.18,0.73 0.48,1.05 0.1,1.83 -1.41,2.88 -6.24,-1.57 -8.13,-2.01 0.22,0.61 -0.25,0.05 0.48,0.57l2.21 1.45c0.9,0.67 1.75,1.54 3.07,1.65zm-33.01 -31.45l40.35 0 0 -41.22 21.84 0 0 41.22 40.35 0 0 21.84 -40.35 0 0 50.66c0,0.59 -1.52,1.11 -2.45,1.58 -0.93,0.46 -1.86,0.93 -2.79,1.39 -0.75,0.37 -5.25,2.72 -5.62,2.74 -0.5,0.04 -4.79,-2.26 -5.62,-2.68 -1,-0.5 -1.8,-0.9 -2.8,-1.4 -0.93,-0.46 -2.56,-1.04 -2.56,-1.63l0 -50.66 -40.35 0 0 -21.84zm28.65 -8.21c0.36,-0.69 0.53,-1.74 2.09,-1.74 0.41,0 1.19,1.74 -2.09,1.74zm63.94 0c0.33,-1.42 1.14,-1.88 2.44,-1.57 -0.08,1.02 -0.43,0.91 -0.87,1.57l-1.57 0zm-8.11 -1.33c0.37,0.43 0.17,-0.3 0.24,0.63 -1.22,0.11 -1.82,0.76 -3.14,-1.22 1.09,-0.54 2.11,-0.32 2.9,0.59zm-64.38 -0.43c0.48,0.33 0.63,0.39 0.68,1.06 -0.84,0.07 -1.42,0.5 -1.95,0.05l-1.19 -1.27c1,-0.49 1.52,-0.46 2.46,0.16zm48.2 -1.38c2.33,-1.23 2.15,0.18 4.19,0.35 -0.37,0.55 -1.18,1.22 -2.09,1.22 -0.42,0 -1.85,-1.2 -2.1,-1.57zm-63.94 0c2.43,-1.28 2.2,0.3 4.37,0.35 -0.6,0.52 -1.17,1.22 -2.27,1.22 -0.13,0 -1.8,-1.12 -2.1,-1.57zm18.17 -4.89c0,-1.32 0.26,-1.11 0.96,-1.67 0.64,-0.51 0.38,-0.7 1.49,-0.95 0.37,0.77 1.05,1.93 1.05,2.44 0,0.53 -1.37,3.38 1.39,4.02 -0.23,1.02 -0.24,0.72 -0.7,1.4 -0.57,-0.38 -0.24,-0.46 -1.04,-0.53 0,1.43 1.1,2.12 -0.7,3.32 -0.73,-0.53 0.03,-0.45 -0.88,-0.7 -0.53,1.11 0.32,1.36 -0.74,2.58 -0.29,0.34 -1.34,1.35 -1.7,1.44 -0.06,-0.72 -0.18,-0.39 -0.18,-1.05 0,-0.59 0.79,-0.7 0.88,-1.74 -2.57,0.6 -1.77,1.89 -3.66,1.93 -0.91,0.01 -0.87,0 -1.58,0.16 0.08,-0.96 0.53,-1.68 1.27,-2.04 0.81,-0.41 1.51,-0.43 2.46,-0.69 7,-1.89 1.68,-5.44 1.68,-7.92zm63.94 -0.35c0,-1.1 1.84,-2.22 2.45,-2.27 0.2,0.85 1.04,1.8 1.04,2.44 0,0.34 -0.33,0.92 -0.42,1.33 -0.37,1.7 1.27,2.5 1.82,2.87 -0.26,0.49 -0.39,0.76 -0.7,1.22 -1.24,-0.33 0.28,-0.49 -1.22,-0.53 0.08,0.97 1.21,2.16 -0.52,3.32 -0.49,-0.33 -0.42,-0.53 -0.88,-0.7 -0.72,1.51 0.81,1.03 -1.61,3.29 -0.19,0.17 -0.26,0.29 -0.42,0.45 -0.28,0.25 -0.01,0.14 -0.41,0.28 -0.48,-2.06 0.37,-1.39 0.7,-2.79 -0.85,0.07 -1.83,0.67 -2.34,1.33 -0.99,1.24 -1.64,0.16 -2.9,0.76 0.08,-3.85 7.33,-1.7 7.33,-5.76 0,-1.75 -1.92,-2.69 -1.92,-5.24zm-79.31 -11.01c-0.45,-0.93 -0.21,-2.06 0,-2.97 1.27,0.11 1.18,2.18 0,2.97zm63.94 0c-0.42,-0.79 -0.36,-0.56 -0.23,-1.43 0.11,-0.72 0.09,-0.95 0.23,-1.54 1.35,0.12 1.06,2.26 0,2.97zm-64.99 5.07c-0.09,-1.09 -0.38,-0.47 -1.35,-1.62 -0.53,-0.62 -0.75,-1.11 -0.75,-2.23 0.73,0 0.63,0.07 1.05,-0.17 -0.56,-0.83 -0.97,-0.53 -1.63,-1.86 -0.42,-0.84 -0.69,-1.45 -1.16,-2.16 2.22,-1.07 1.66,0.99 2.79,1.75 0,-4.02 -1.22,-2.37 -1.22,-4.02 0,-1.13 0.43,-1.9 0.52,-2.97 2.45,1.64 1.75,4.33 1.75,7.86 0,2.65 0.8,7.34 3.14,7.34 1.17,0 1.09,-0.84 1.93,-1.4 0.09,1.08 0.35,2.29 0.35,3.5 -0.93,0.02 -1.57,0.3 -2.11,0.69 -0.83,0.59 -0.61,0.96 -1.21,1.4 -0.83,-0.55 -0.93,-1.21 -1.4,-2.09 0.67,-0.15 0.68,0.03 1.57,-0.18 -0.27,-1.02 -1.4,-0.65 -2.22,-1.45 -0.5,-0.48 -1.08,-1.63 -1.1,-2.57 0.53,0.02 0.64,0.08 1.05,0.18zm62.9 -0.2l1.04 0.2c-0.06,-0.76 -0.1,-0.57 -0.62,-0.96 -0.9,-0.67 -1.62,-1.62 -1.65,-2.89l1.22 0 0 -0.52c-0.89,-0.21 -1.42,-0.84 -1.73,-1.59l-1.06 -2.25c0.92,-0.02 1.24,-0.41 1.74,0.34 0.42,0.62 0.27,1.19 1.05,1.4 0,-0.76 -0.18,-1.33 -0.31,-1.95 -0.2,-0.95 0.07,-0.29 -0.32,-0.73 -0.47,-0.55 -0.95,-0.4 -0.49,-2.27 0.21,-0.84 0.25,-0.86 0.25,-1.86 0.91,0.24 1.5,1.46 1.77,2.42 0.46,1.63 0.15,1.83 0.15,3.52 0,2.37 -0.11,9.26 3.14,9.26 0.7,0 1.37,-1.02 1.93,-1.4 0,1.26 0.34,2.24 0.34,3.5 -2.52,0.05 -2.71,1.65 -3.31,2.09 -0.9,-0.6 -0.94,-1.14 -1.4,-2.09 0.42,-0.09 0.94,-0.13 1.57,-0.18 -0.36,-1.33 -1.58,0 -3.01,-2.58 -0.27,-0.5 -0.31,-0.73 -0.3,-1.46zm8.73 -13.08c0,-1.15 0.51,-2.03 1.39,-2.62 1.56,1.36 0.69,1.83 1.03,2.6 0.25,0.59 0.93,-0.92 2.12,-1.2 0.16,0.71 0.17,0.82 0.17,1.75 0.25,0.16 0.28,0.2 0.54,0.33 2.07,1.05 0.96,1.67 0.51,3.33l-0.52 0 0 -1.74c-0.67,0.17 -0.41,0.01 -0.59,0.63 -0.44,1.5 -0.02,3.35 -0.76,4.84 -0.39,0.78 -0.57,0.49 -0.57,1.69 0.3,-0.15 0.77,-0.35 1.22,-0.35 0.2,0 1.94,2.27 0.7,2.27 -0.52,0 -0.96,-0.64 -1.4,-0.87 0,0.42 0.04,1.02 0.02,1.41 -0.05,0.66 -0.12,1.23 -0.82,0.8 -0.32,-0.19 -0.27,-0.23 -0.42,-0.46 -0.36,-0.58 -0.06,-0.45 -0.7,-0.88 -0.22,0.94 -0.17,2.34 -1.23,2.62 -0.73,-0.54 -0.87,-1.5 -0.87,-2.79 -0.65,0.17 -0.76,0.86 -1.22,1.74 1.35,0.91 1.42,1.71 2.27,2.97 0.74,-0.39 0.55,-0.16 0.99,-0.93 0.29,-0.49 0.36,-0.7 0.95,-0.8 2.14,-0.34 0.94,0.25 2.52,-0.97 1.86,-1.43 4.27,-1.66 6.89,-1.66 3.24,0 8.22,2.48 8.22,-0.35 0,-3.01 -11.88,-3 -11.88,-8.74 0,-3.1 2.37,-5.13 5.46,-4.6 5.28,0.91 6.24,3.08 6.24,-0.11 0.94,0.25 1.47,1.73 0.56,2.49 -0.67,0.57 -2.07,0.01 -2.68,-0.2 -0.76,-0.26 -2.75,-1.06 -3.47,-1.07 0.35,0.47 0.58,0.44 1.15,0.77 1.39,0.81 2.46,1.29 4.09,1.67 -1.73,2.37 -5.3,-1.74 -7.34,-1.74 -2.09,0 -2.79,0.98 -2.79,2.97 0,1.4 3.22,4.51 1.57,1.39 2.71,0.06 2.85,3.01 4.54,3.15 -0.23,-1 -0.5,-0.47 -0.52,-1.57 2.74,0 2.17,1.82 3.49,2.79 0.51,-0.37 0.33,0.03 0.35,-0.87 2.08,0.17 3.56,4.02 1.98,5.47 -1.83,1.67 -5.45,-0.41 -7.74,-0.41l0 0.35c2.34,0.55 2.86,1.92 3.51,4 1.09,3.48 2.36,2.82 4.17,2.82 0.35,0.71 0.35,1.03 0.35,2.09 -0.7,-0.06 -0.63,-0.28 -1.22,0 0.23,0.85 0.31,0.4 0.8,0.95 0.22,0.26 0.42,0.72 0.42,1.15 0,1.73 0.07,1.15 -1.22,1.05 0,1.42 0.58,1.14 0.91,2.07 0.15,0.4 -0.04,1.74 -0.04,2.64 -1.5,-0.4 -1.05,-1.63 -1.92,-2.27 -0.27,0.19 -0.52,0.24 -0.52,0.7 0,1.94 0.5,1.29 -1.38,1.95 -0.27,0.09 -0.46,0.19 -0.72,0.32 0,-3.26 2.8,-4.71 2.8,-6.64 0,-2.44 -1.42,-2.09 -3.32,-2.96 -2.65,-1.22 -5.61,-7.53 -6.4,-7.25 -0.5,0.18 0.46,0.72 0.46,1.65 0,0.82 -1.41,-0.39 -4.3,0.94 -0.62,0.29 -0.45,0.29 -1.29,0.29 0.09,-0.41 0.16,-0.52 0.17,-1.05 -0.7,0.19 -0.76,0.63 -1.15,1.29 -1.04,1.75 -0.68,1.73 0.1,2.9 -0.34,0.66 -0.24,0.8 -0.87,1.22 -0.76,-0.55 0.06,-0.31 -0.7,-0.87 -0.59,1.25 0.05,2.94 -1.57,3.32 -0.33,-0.62 -0.24,-1.06 -0.7,-1.4 -0.68,1.42 0.52,2.57 -1.57,3.67l-0.25 -0.45c-0.22,-0.38 -0.12,-0.46 -0.62,-0.6 0,1.03 0.15,2.36 -0.22,3.1 -0.45,0.9 -0.97,0.85 -1.01,2.32 -1.86,-0.5 -0.97,-1.77 -0.87,-2.97 -0.87,0.23 -0.13,0.27 -1.11,0.81 -1,0.56 -0.44,-0.02 -0.94,0.98 -0.41,0.83 -1.59,1.14 -2.49,1.35 0,-1.9 0.59,-2.51 1.86,-3.2 0.66,-0.36 0.94,-0.47 1.56,-0.88 1.9,-1.26 5.31,-4.37 5.31,-6.92 0,-0.98 -0.37,-1.81 -0.72,-2.77 -0.79,-2.17 -1.01,-5.01 -0.5,-7.19 0.88,0 0.78,0.16 1.57,0.17 -0.64,-1.2 -1.12,-1.77 -1.47,-3.42 -0.2,-0.92 -0.17,-3.3 -1.15,-3.56l0 1.92c-1.05,-0.71 -2.19,-3.5 -0.52,-3.5 0.96,0 1.11,0.91 1.22,-0.32 0.11,-1.21 -0.16,-0.81 0.35,-1.77 0.63,0.17 1.22,0.58 1.4,1.22l0.35 0zm-63.94 0c0.01,-0.71 0.16,-1.15 0.49,-1.6 0.17,-0.24 0.71,-0.88 0.9,-1.02 0.97,0.65 1.05,1.21 1.05,2.8 0.89,-0.24 1,-1.15 2.1,-1.4 0.2,0.85 0.35,0.79 0.35,1.92 0.58,0.28 0.64,0.1 1.09,0.66 0.63,0.8 0.61,2.72 -0.74,2.83l0 -1.74c-0.76,0.2 -0.62,0.76 -0.69,1.58 -0.36,4.48 -1.15,4.32 -1.23,5.43l1.39 -0.2c0.56,0.83 1.8,3.22 -0.02,1.97 -0.42,-0.29 -0.34,-0.3 -0.85,-0.57 0,0.88 0.28,2.24 -0.49,2.24 -0.87,0 -0.51,-0.95 -1.43,-1.19 -0.1,0.42 -0.13,0.84 -0.25,1.32 -0.19,0.79 -0.28,0.48 -0.45,1.12l-0.7 0c-0.28,-1.21 -0.7,-0.95 -0.7,-2.79 -0.61,0.16 -0.42,0.21 -0.67,0.73 -0.79,1.64 0.01,1.06 0.84,2.41 0.44,0.71 0.33,1.09 1.05,1.57 0.64,-0.42 0.98,-1.11 1.4,-1.74 3.13,0 1.58,-0.43 3.96,-1.64 1.31,-0.67 2.7,-0.98 4.6,-0.98 5.47,0 8.12,2.07 9.31,0.38 1.57,-2.2 -4.62,-3.58 -5.69,-4 -2.58,-1.02 -6.06,-2.38 -6.06,-5.82 0,-2.62 2.08,-4.08 4.41,-4.33 1.6,-0.17 5.35,1.34 6.9,1.67l0.57 -0.48c-0.06,-0.68 -0.16,-0.46 -0.18,-1.22l0.53 0c0.16,0.7 0.52,0.87 0.52,1.57 0,2.62 -5.45,-0.25 -6.64,-0.35 0.35,0.47 0.58,0.44 1.15,0.77 1.39,0.82 2.44,1.29 4.09,1.67l0 0.35c-2.26,0.53 -2.37,0.32 -4.46,-0.95 -0.74,-0.45 -1.82,-1.14 -2.88,-1.14 -1.34,0 -2.79,0.62 -2.79,2.27 0,2.27 3.13,5.03 1.57,2.09 2.72,0.06 2.94,3.02 4.54,3.15 -0.17,-0.77 -0.45,-0.73 -0.52,-1.57 2.72,0 2.21,1.81 3.67,2.79 0.22,-0.46 0.16,-0.19 0.17,-0.87 2.74,0.23 4.01,6.11 0.35,6.11 -1.77,0 -3.24,-0.7 -5,-0.96 -0.83,-0.13 -0.72,-0.27 -1.11,0.26 2.43,0.57 2.81,1.68 3.56,3.96 1.09,3.32 1.85,2.86 4.3,2.86 0.01,0.61 0.29,1.22 0.28,1.65 -0.03,1 -0.71,-0.08 -1.33,0.44 0.15,0.56 -0.03,0.16 0.32,0.56l0.18 0.17c0.91,0.87 0.72,1.37 0.72,2.59 -0.76,-0.01 -0.54,-0.12 -1.22,-0.17 0.03,1.27 0.61,1.08 0.94,2.04 0.23,0.66 -0.06,1.71 -0.06,2.67 -1.29,-0.34 -1.09,-1.65 -1.93,-2.27 -0.81,0.6 -0.35,0.76 -0.35,1.75 0,0.83 -1.63,0.89 -2.27,1.22 0,-3.59 2.97,-4.7 2.97,-7.16 0,-1.65 -2.26,-1.91 -3.37,-2.39 -2.92,-1.24 -6.69,-9.29 -6.63,-7.12 0.02,0.56 0.84,0.56 0.57,1.82 -1.22,0 -1.91,-0.32 -2.9,0.07 -0.69,0.27 -1.75,0.79 -2.52,0.81 0.02,-0.83 0.2,-0.58 0,-1.05 -0.66,0.18 -0.82,0.77 -1.11,1.34 -0.95,1.88 -0.85,1.48 0.07,2.85 -0.17,0.73 -0.34,0.86 -0.88,1.22 -0.25,-0.37 -0.33,-0.6 -0.7,-0.87 -0.42,0.89 0.03,2.56 -1.17,3.13 -0.43,0.21 -0.43,-0.06 -0.69,-0.57 -0.31,-0.62 0.24,-0.16 -0.41,-0.64 -0.56,1.18 0.82,2.41 -1.57,3.67 -0.02,-0.03 -0.16,-0.28 -0.19,-0.34 -0.26,-0.5 0.02,-0.49 -0.51,-0.71 -0.3,0.63 0,0.92 0,1.75 0,1.47 -1.36,2.12 -1.4,3.67 -1.81,-0.48 -0.98,-1.7 -0.84,-2.7 0.05,-0.41 -0.01,-0.37 -0.23,-0.23 -0.23,0.15 0.04,-0.05 -0.21,0.22 -0.51,0.53 -1.26,0.69 -1.57,1.42 -0.39,0.9 -0.02,0.68 -1.12,0.98 -0.53,0.15 -0.93,0.36 -1.44,0.48 0,-3.73 3.53,-2.89 6.91,-7.23 4.03,-5.17 0.43,-4.86 0.43,-10.41 0,-3.58 -0.41,-3.19 1.74,-3.15 -0.16,-0.6 -0.62,-1.01 -0.85,-1.59 -0.98,-2.4 -0.64,-5.1 -1.8,-5.39l0.21 1.74c-0.7,-0.05 -0.27,0.07 -0.63,-0.24 -0.43,-0.36 -0.77,-1.13 -0.77,-1.68 0,-1.67 0.5,-1.43 1.92,-1.22 0,-0.82 0.09,-1.74 0.35,-2.27 0.85,0.23 1.12,0.8 1.75,1.22zm-16.25 -7.34l0 64.12c0,18.95 5.79,31.92 16.5,40.28 5.25,4.1 12.06,7.1 18.26,10.21 1.9,0.94 18.59,9.43 19.05,9.43l9.26 -4.54c7.66,-3.84 21.49,-10.28 27.3,-14.63 2.65,-1.98 5.07,-4.3 7.14,-6.84 1.54,-1.89 3.3,-4.67 4.42,-6.92 3.74,-7.47 5.51,-16.69 5.51,-25.07l0 -66.04c0,-0.39 -0.12,-0.52 -0.51,-0.52l-0.02 0 -106.39 0 -0.01 0c-0.39,0 -0.51,0.13 -0.51,0.52z"/>
   <path class="fil1" d="M58.87 104.12c0.39,-0.57 0.69,-0.54 0.88,-1.22 0.71,0.47 1.12,1.17 1.14,1.12 0.01,-0.02 0.05,0.07 0.08,0.1 -0.88,1.31 -0.95,0.87 -0.84,1.86 0.15,1.38 0.45,3.08 1.19,4.25 0.36,0.57 0.84,0.82 1.22,1.4l-1.92 0c-0.08,0.91 -0.46,1.44 -0.52,2.27l-0.35 0c-0.18,-0.76 -0.51,-1.36 -0.53,-2.27l-2.09 0c1.57,-1.37 2.44,-3.07 2.44,-5.41 0,-2.26 -0.35,-0.79 -0.7,-2.1zm-11.18 9.96c-0.12,-0.19 -0.03,-0.03 -0.19,-0.34 -1.31,-2.57 0.89,-1.82 -2.6,-2.11 1.76,-1.53 2.44,-3.42 2.44,-5.94 0,-0.74 -0.09,-0.87 -0.87,-1.4l1.05 -1.39c0.74,0.49 0.56,0.78 1.22,1.22 -0.11,0.16 -0.87,1.12 -0.87,1.22 0,1.3 0.25,2.74 0.64,3.73 0.77,1.96 1.39,2 1.8,2.56 -0.74,0.06 -0.3,0.11 -0.95,0.07 -0.33,-0.03 -0.58,-0.07 -0.97,-0.07 -0.21,0.9 -0.51,1.62 -0.7,2.45zm6.12 -22.19c0.29,0.2 0.3,0.2 0.57,0.48l0.47 0.57c-0.36,0.69 -0.5,0.67 -0.87,1.22 0.1,1.24 0.33,2.73 0.67,3.7 0.55,1.51 1.09,1.57 1.78,2.59 -0.68,0.33 -1.07,0 -1.92,0 -0.03,1.05 -0.45,1.31 -0.53,2.27l-0.35 0c-0.18,-0.76 -0.5,-1.36 -0.52,-2.27 -1.24,0 -0.83,0.3 -2.1,0 1.68,-1.46 2.45,-2.98 2.45,-5.41 0,-2.26 -0.35,-0.79 -0.74,-2.14l1.09 -1.01zm6.11 -11.18c0.53,0.36 0.7,0.7 1.05,1.22 -0.49,0.57 -0.97,0.73 -0.82,1.84 0.68,4.76 1.5,4.17 2.39,5.5 -0.61,0.3 -0.09,0.27 -1.92,0 -0.02,1.05 -0.44,1.31 -0.52,2.27l-0.35 0c-0.2,-0.83 -0.53,-1.24 -0.53,-2.27 -0.79,0.02 -0.69,0.17 -1.57,0.17 -1.89,0 1.92,-0.52 1.92,-5.59 0,-2.25 -0.35,-0.78 -0.74,-2.13l1.09 -1.01zm-13.28 1.05c0.18,-0.27 0.82,-1.05 1.05,-1.22 0.28,0.4 0.65,0.95 1.05,1.22 -0.11,0.16 -0.87,1.12 -0.87,1.22 0,1.33 0.26,2.69 0.62,3.74 0.55,1.6 1.53,2.16 1.82,2.55 -0.46,0.23 0.15,0.17 -0.52,0.17 -0.9,0 -0.76,-0.12 -1.4,-0.17 -0.07,0.84 -0.51,1.62 -0.7,2.45 -0.6,-0.87 -0.56,-1.81 -0.87,-2.45 -0.55,0.05 -0.62,0.17 -1.22,0.17 -1.17,0 -0.69,-0.12 -0.45,-0.41 0.12,-0.13 0.38,-0.3 0.57,-0.5 1.09,-1.22 1.62,-3.41 1.62,-5.2 0,-1 -0.48,-0.76 -0.7,-1.57zm6.99 -1.4c-0.18,-0.76 -0.5,-1.36 -0.52,-2.27 -0.72,0.06 -0.95,0.17 -1.92,0.17 0.21,-0.8 2.27,-1.91 2.27,-5.24 0,-2.2 0.01,-1.2 -0.7,-2.27 0.34,-0.65 0.44,-0.81 1.05,-1.22 0.53,0.36 0.69,0.7 1.04,1.22 -0.68,1.03 -0.94,0.37 -0.76,1.79 0.2,1.53 0.27,2.86 1.19,4.26l0.56 0.66c0.51,0.5 0.41,0.13 0.59,0.8 -0.97,0 -1.21,-0.11 -1.92,-0.17 -0.03,1.05 -0.45,1.31 -0.53,2.27l-0.35 0zm-8.73 -35.11c0.17,-0.67 0.73,-1.23 1.57,-1.23 1.91,0 1.53,1.23 2.45,1.23l2.27 0c0.63,0 0.67,-1.23 2.09,-1.23 1.78,0 1.32,0.79 2.18,1.14 0.64,0.25 1.97,0.09 2.71,0.09 0.18,-0.67 0.74,-1.23 1.58,-1.23 1.9,0 1.53,1.23 2.44,1.23l3.5 0 0 17.82 -3.32 0 0 6.81 -4.02 0 0 -6.81 -9.78 0 0 6.81 -4.02 0 0 -6.81 -3.32 0 0 -17.82 3.67 0zm-15.9 18.34c-0.67,-2.89 -0.39,-2.1 -2.45,-2.1 0.29,-1.07 0.26,0.11 1.22,-1.57 0.87,-1.52 0.96,-2.58 1.11,-4.33 0.1,-1.12 -0.18,-0.76 -0.75,-1.61 0.35,-0.52 0.51,-0.86 1.04,-1.22 0.54,0.36 0.7,0.7 1.05,1.22 -0.26,0.39 -0.7,0.62 -0.7,1.05 0,5.1 1.68,5.31 2.45,6.46 -0.5,0 -0.9,-0.01 -1.39,-0.04 -0.59,-0.04 -0.61,-0.51 -1.23,2.14l-0.35 0zm61.49 -9.78c0.31,-0.46 0.62,-0.89 1.23,-1.05 0.15,0.57 0.43,0.76 0.87,1.05 -0.18,0.27 -0.87,1.12 -0.87,1.39 0,4.75 2.15,5.48 2.44,6.29 -0.81,0 -1.35,0.1 -1.92,-0.17 -0.05,0.64 -0.39,1.89 -0.87,2.44 -0.2,-0.82 -0.49,-1.55 -0.7,-2.44 -0.57,0.27 -1.11,0.17 -1.92,0.17 0.74,-1.11 2.44,-1.94 2.44,-6.11 0,-0.79 -0.48,-0.77 -0.7,-1.57zm-12.92 7.57l-1.93 0.11c0.21,-0.56 0.57,-0.42 1.27,-1.53 0.36,-0.58 0.54,-1.1 0.76,-1.86 0.81,-2.79 0.41,-3.13 -0.45,-4.12 0.17,-0.26 0.81,-1.05 1.04,-1.22 0.61,0.41 0.71,0.57 1.05,1.22 -0.32,0.49 -0.7,0.61 -0.7,1.4 0,4.21 1.62,4.88 2.45,6.11 -2.44,0 -1.78,-0.43 -2.07,0.2 -0.04,0.08 -0.54,1.98 -0.55,2.07 -0.51,-0.37 -0.82,-1.73 -0.87,-2.38zm-61.5 -8.62c0.24,0.17 0.87,0.96 1.05,1.22 -0.17,0.2 -0.87,0.78 -0.87,1.05 0,5.05 2.1,5.49 2.44,6.51l-1.92 -0.22c-0.04,0.49 -0.21,1.05 -0.32,1.43 -0.17,0.56 -0.14,0.71 -0.55,1.01 -0.05,-0.21 -0.49,-1.94 -0.55,-2.07 -0.26,-0.55 0.03,-0.29 -0.84,-0.23 -0.43,0.04 -0.8,0.03 -1.23,0.03 0.62,-0.93 1.3,-1.11 1.77,-2.42 1.51,-4.14 0.19,-4.46 -0.07,-5.3l1.09 -1.01zm82.11 3.49c-0.54,-0.39 -0.81,-1.48 -0.87,-2.27l-1.93 0c0.43,-0.63 0.88,-0.81 1.29,-1.51 0.33,-0.57 0.54,-1.18 0.74,-1.88 0.87,-3.02 0.27,-3.04 -0.45,-4.12l0.31 -0.38c0.12,-0.13 0.13,-0.15 0.25,-0.28 0.28,-0.29 0.36,-0.36 0.66,-0.56 0.27,0.4 0.75,0.93 0.87,1.39 -0.26,0.4 -0.7,0.62 -0.7,1.05 0,1.97 0.33,3.87 1.47,5.35 0.45,0.58 0.63,0.46 0.98,0.94l-1.92 0c-0.17,0.35 -0.6,1.83 -0.7,2.27zm-13.45 0c-0.08,-0.96 -0.5,-1.22 -0.53,-2.27l-2.09 0c1.57,-1.37 2.44,-3.03 2.44,-5.41 0,-1.62 0.01,-0.97 -0.37,-1.55 -0.13,-0.21 -0.21,-0.33 -0.33,-0.55 0.29,-0.43 0.71,-1.09 1.23,-1.22 0.18,0.68 0.49,0.65 0.87,1.22 -1.05,1.57 -0.91,0.81 -0.79,1.81 0.32,2.63 0.41,3.85 2.54,5.7l-2.1 0c-0.02,1.05 -0.44,1.31 -0.52,2.27l-0.35 0zm-12.55 -1.02c-0.16,0.55 -0.15,0.73 -0.55,1.02 -0.11,-0.44 -0.54,-1.92 -0.7,-2.27l-1.92 0c0.79,-1.08 2.44,-1.76 2.44,-5.94 0,-0.74 -0.09,-0.87 -0.87,-1.4 0.31,-0.46 0.73,-0.93 1.05,-1.39 0.63,0.42 0.8,0.77 1.22,1.39 -0.36,0.24 -0.88,0.65 -0.88,1.23 0,1.21 0.33,2.83 0.7,3.67 0.89,1.99 1.23,1.67 1.75,2.44l-1.92 0c-0.1,0.41 -0.22,0.9 -0.32,1.25zm-37.42 -8.59c0.13,-0.46 0.61,-0.99 0.88,-1.39 0.63,0.42 0.81,0.77 1.22,1.39 -0.35,0.24 -0.87,0.65 -0.87,1.23 0,4.15 1.75,5.07 2.44,6.11l-1.92 0c-0.09,0.41 -0.21,0.9 -0.32,1.25 -0.16,0.55 -0.15,0.73 -0.55,1.02 -0.1,-0.44 -0.54,-1.92 -0.7,-2.27l-1.92 0c0.48,-0.66 2.44,-1.76 2.44,-5.59 0,-1.51 -0.08,-0.83 -0.7,-1.75zm-14.84 7.34c0.29,-0.44 0.23,-0.27 0.59,-0.63 0.59,-0.58 0.88,-1.16 1.21,-1.93 0.38,-0.91 0.64,-2.49 0.64,-3.73 0,-0.36 -0.62,-0.87 -0.87,-1.05 0.41,-0.62 0.58,-0.97 1.22,-1.39 0.27,0.4 0.75,0.93 0.87,1.39 -0.26,0.4 -0.69,0.62 -0.69,1.05 0,1.39 0.18,2.8 0.64,3.9 0.78,1.86 1.39,1.83 1.8,2.39l-1.92 0c-0.17,0.35 -0.6,1.83 -0.7,2.27 -0.54,-0.4 -0.71,-1.55 -0.87,-2.27l-1.92 0zm-10.31 2.27l-0.35 0c-0.08,-0.96 -0.5,-1.22 -0.53,-2.27l-2.09 0c2.09,-1.82 2.29,-3.11 2.53,-5.88 0.09,-0.95 0.31,0 -0.78,-1.63 0.38,-0.57 0.69,-0.54 0.87,-1.22l0.35 0c0.18,0.68 0.49,0.65 0.87,1.22 -0.45,0.85 -0.7,0.78 -0.7,1.22 0,1.71 0.07,2.64 0.72,4.18 0.39,0.92 1.01,1.49 1.73,2.11l-2.1 0c-0.02,1.05 -0.44,1.31 -0.52,2.27zm49.26 -25.33c0.37,-0.55 0.51,-0.53 0.88,-1.22l1.22 1.22c-0.19,0.29 -0.38,0.51 -0.59,0.82 -0.36,0.53 -0.33,0.13 -0.23,1.02 0.1,0.8 0.16,1.59 0.36,2.28 0.24,0.83 0.43,1.35 0.84,1.97 0.38,0.59 0.83,0.88 1.19,1.42l-1.92 0c-0.08,0.91 -0.46,1.45 -0.52,2.27l-0.35 0c-0.18,-0.76 -0.51,-1.36 -0.53,-2.27l-2.09 0c1.57,-1.36 2.44,-3.07 2.44,-5.41 0,-2.26 -0.35,-0.79 -0.7,-2.1zm-10.48 7.51c-0.17,0.72 -0.33,1.88 -0.87,2.27 -0.1,-0.43 -0.54,-1.92 -0.7,-2.27l-1.92 0c0.61,-0.83 2.44,-1.64 2.44,-5.94 0,-0.74 -0.09,-0.87 -0.87,-1.39l1.05 -1.4c0.63,0.42 0.8,0.78 1.22,1.4 -0.36,0.23 -0.87,0.64 -0.87,1.22 0,1.76 0.5,3.75 1.42,5.04 0.5,0.7 0.6,0.45 1.02,1.07l-1.92 0zm5.42 -19.74l1.04 1.05c-0.36,0.69 -0.5,0.67 -0.87,1.22 0.1,1.24 0.33,2.74 0.67,3.7 0.55,1.51 1.09,1.57 1.78,2.59 -1.19,0.28 -0.72,0 -1.92,0 -0.03,1.05 -0.45,1.31 -0.53,2.27l-0.35 0c-0.18,-0.76 -0.5,-1.36 -0.52,-2.27 -1.45,0 0.1,0.19 -2.1,0 1.58,-1.37 2.45,-2.99 2.45,-5.41 0,-2.26 -0.35,-0.79 -0.74,-2.14l1.09 -1.01zm5.06 -10.13c0.39,-0.57 0.69,-0.54 0.88,-1.22 0.63,0.42 0.8,0.77 1.22,1.39 -0.49,0.57 -0.97,0.73 -0.82,1.84 0.68,4.76 1.5,4.17 2.39,5.5 -0.61,0.31 -0.09,0.27 -1.92,0 -0.08,0.91 -0.46,1.44 -0.52,2.27l-0.35 0c-0.2,-0.83 -0.53,-1.23 -0.53,-2.3 -1.71,0.25 -1.03,0.29 -2.09,0.03 0.75,-0.66 1.35,-1.19 1.77,-2.24 0.34,-0.81 0.67,-1.97 0.67,-3.17 0,-2.26 -0.35,-0.79 -0.7,-2.1zm-12.23 0c0.18,-0.27 0.82,-1.05 1.05,-1.22 0.28,0.41 0.65,0.95 1.05,1.22 -0.11,0.16 -0.87,1.12 -0.87,1.22 0,1.33 0.26,2.69 0.62,3.74 0.24,0.68 0.46,0.96 0.8,1.48 0.5,0.73 0.65,0.56 1.02,1.07 -0.61,0.31 -0.09,0.27 -1.92,0 -0.07,0.84 -0.51,1.62 -0.7,2.45 -0.13,-0.19 -0.03,-0.03 -0.19,-0.33l-0.33 -0.89c-0.13,-0.45 -0.16,-0.84 -0.36,-1.26 -1.58,0.23 -1,0.27 -1.91,0.03 0.78,-0.68 1.34,-1.3 1.8,-2.39 1.51,-3.6 0.02,-4.85 -0.06,-5.12zm-44.19 56.95l40.35 0 0 50.66c0,0.59 1.63,1.17 2.56,1.63 1,0.5 1.8,0.9 2.8,1.4 0.83,0.42 5.12,2.72 5.62,2.68 0.37,-0.02 4.87,-2.37 5.62,-2.74 0.93,-0.46 1.86,-0.93 2.79,-1.39 0.93,-0.47 2.45,-0.99 2.45,-1.58l0 -50.66 40.35 0 0 -21.84 -40.35 0 0 -41.22 -21.84 0 0 41.22 -40.35 0 0 21.84z"/>
   <path class="fil0" d="M59.22 67.78l1.92 0 0 0.88 -1.92 0 0 -0.88zm-13.97 0l2.09 0 0 0.88 -2.09 0 0 -0.88zm13.97 -3.14l1.92 0 0 2.62 -1.92 0 0 -2.62zm-13.97 0l2.09 0 0 2.62 -2.09 0 0 -2.62zm-0.88 -6.12c1.66,0 1.55,0.64 1.05,1.58l-1.05 0c-0.11,-0.23 -0.35,-0.58 -0.35,-0.88 0,-0.02 0.32,-0.63 0.35,-0.7zm16.77 0.7c0,-0.79 0.77,-0.7 1.23,-0.7 0.23,0.35 0.31,0.49 0.52,0.88 -0.17,0.26 -0.17,-0.4 -0.17,0.52 -0.49,0.11 -1.58,0.58 -1.58,-0.7zm-12.92 -4.19c1.89,-2.82 7.98,-3.3 10.3,0.17 -3.03,4.53 -9.65,2.28 -10.3,-0.17zm12.92 -4.02c0,-0.32 0.64,-0.57 0.88,-0.7 0.77,0.41 0.46,0.1 0.87,0.88 -0.62,1.18 -0.62,0.92 -1.57,0.69 -0.09,-0.39 -0.18,-0.4 -0.18,-0.87zm-17.12 0.35c0,-0.65 0.44,-0.82 0.88,-1.05 0.77,0.41 0.46,0.1 0.87,0.88 -0.99,1.86 -1.75,0.19 -1.75,0.17zm1.75 -4.89c0,-1.53 1.92,-1.89 1.92,0.52 0,0.73 0.3,2.62 -0.87,2.62 -1.39,0 -1.05,-0.79 -1.05,-3.14zm6.64 0.52c0,-2.23 1.92,-2.22 1.92,-0.52 0,2.35 0.34,3.14 -1.05,3.14 -1.09,0 -0.87,-1.87 -0.87,-2.62zm6.64 -0.87c0,-0.67 1.08,-1.22 1.56,-0.53 0.47,0.68 0.18,2.12 0.18,2.28 0,0 0.48,1.74 -0.69,1.74 -1.42,0 -1.05,-0.84 -1.05,-3.49zm-14.15 -0.87l-3.67 0 0 17.82 3.32 0 0 6.81 4.02 0 0 -6.81 9.78 0 0 6.81 4.02 0 0 -6.81 3.32 0 0 -17.82 -3.5 0c-0.91,0 -0.54,-1.23 -2.44,-1.23 -0.84,0 -1.4,0.56 -1.58,1.23 -0.74,0 -2.07,0.16 -2.71,-0.09 -0.86,-0.35 -0.4,-1.14 -2.18,-1.14 -1.42,0 -1.46,1.23 -2.09,1.23l-2.27 0c-0.92,0 -0.54,-1.23 -2.45,-1.23 -0.84,0 -1.4,0.56 -1.57,1.23z"/>
   <path class="fil1" d="M18.87 15.9c-0.13,0.29 -1.02,3.89 -2.6,-0.02 -0.21,-0.51 -0.72,-1.68 -0.72,-2.25 0,-0.18 0.24,-0.37 0.42,-0.43 0.31,-0.11 0.2,-0.04 0.46,0.03 0.53,0.15 0.59,0.4 1.21,0.4 1.25,0 0.48,-0.35 1.23,-0.35 1.66,0 0.68,1.08 0,2.62zm-2.79 -6.12c1.07,0.76 1.28,0.66 0.87,2.45 -1.49,-0.03 -2.25,-1.83 -2.28,-3.15 0.77,0.07 0.94,0.37 1.41,0.7zm1.91 0.7c0,-0.26 0.48,-0.43 0.7,-0.53 1.43,-0.65 1.86,-1.48 1.66,-0.29 -0.05,0.28 -0.96,2.51 -1.83,2.74 -0.11,-0.23 -0.53,-1.6 -0.53,-1.92zm-1.74 -2.62c-0.63,-0.42 -0.9,-0.99 -1.75,-1.22 -0.26,0.53 -0.35,1.45 -0.35,2.27 -1.42,-0.21 -1.92,-0.45 -1.92,1.22 0,0.55 0.34,1.32 0.77,1.68 0.36,0.31 -0.07,0.19 0.63,0.24l-0.21 -1.74c1.16,0.29 0.82,2.99 1.8,5.39 0.23,0.58 0.69,0.99 0.85,1.59 -2.15,-0.04 -1.74,-0.43 -1.74,3.15 0,5.55 3.6,5.24 -0.43,10.41 -3.38,4.34 -6.91,3.5 -6.91,7.23 0.51,-0.12 0.91,-0.33 1.44,-0.48 1.1,-0.3 0.73,-0.08 1.12,-0.98 0.31,-0.73 1.06,-0.89 1.57,-1.42 0.25,-0.27 -0.02,-0.07 0.21,-0.22 0.22,-0.14 0.28,-0.18 0.23,0.23 -0.14,1 -0.97,2.22 0.84,2.7 0.04,-1.55 1.4,-2.2 1.4,-3.67 0,-0.83 -0.3,-1.12 0,-1.75 0.53,0.22 0.25,0.21 0.51,0.71 0.03,0.06 0.17,0.31 0.19,0.34 2.39,-1.26 1.01,-2.49 1.57,-3.67 0.65,0.48 0.1,0.02 0.41,0.64 0.26,0.51 0.26,0.78 0.69,0.57 1.2,-0.57 0.75,-2.24 1.17,-3.13 0.37,0.27 0.45,0.5 0.7,0.87 0.54,-0.36 0.71,-0.49 0.88,-1.22 -0.92,-1.37 -1.02,-0.97 -0.07,-2.85 0.29,-0.57 0.45,-1.16 1.11,-1.34 0.2,0.47 0.02,0.22 0,1.05 0.77,-0.02 1.83,-0.54 2.52,-0.81 0.99,-0.39 1.68,-0.07 2.9,-0.07 0.27,-1.26 -0.55,-1.26 -0.57,-1.82 -0.06,-2.17 3.71,5.88 6.63,7.12 1.11,0.48 3.37,0.74 3.37,2.39 0,2.46 -2.97,3.57 -2.97,7.16 0.64,-0.33 2.27,-0.39 2.27,-1.22 0,-0.99 -0.46,-1.15 0.35,-1.75 0.84,0.62 0.64,1.93 1.93,2.27 0,-0.96 0.29,-2.01 0.06,-2.67 -0.33,-0.96 -0.91,-0.77 -0.94,-2.04 0.68,0.05 0.46,0.16 1.22,0.17 0,-1.22 0.19,-1.72 -0.72,-2.59l-0.18 -0.17c-0.35,-0.4 -0.17,0 -0.32,-0.56 0.62,-0.52 1.3,0.56 1.33,-0.44 0.01,-0.43 -0.27,-1.04 -0.28,-1.65 -2.45,0 -3.21,0.46 -4.3,-2.86 -0.75,-2.28 -1.13,-3.39 -3.56,-3.96 0.39,-0.53 0.28,-0.39 1.11,-0.26 1.76,0.26 3.23,0.96 5,0.96 3.66,0 2.39,-5.88 -0.35,-6.11 -0.01,0.68 0.05,0.41 -0.17,0.87 -1.46,-0.98 -0.95,-2.79 -3.67,-2.79 0.07,0.84 0.35,0.8 0.52,1.57 -1.6,-0.13 -1.82,-3.09 -4.54,-3.15 1.56,2.94 -1.57,0.18 -1.57,-2.09 0,-1.65 1.45,-2.27 2.79,-2.27 1.06,0 2.14,0.69 2.88,1.14 2.09,1.27 2.2,1.48 4.46,0.95l0 -0.35c-1.65,-0.38 -2.7,-0.85 -4.09,-1.67 -0.57,-0.33 -0.8,-0.3 -1.15,-0.77 1.19,0.1 6.64,2.97 6.64,0.35 0,-0.7 -0.36,-0.87 -0.52,-1.57l-0.53 0c0.02,0.76 0.12,0.54 0.18,1.22l-0.57 0.48c-1.55,-0.33 -5.3,-1.84 -6.9,-1.67 -2.33,0.25 -4.41,1.71 -4.41,4.33 0,3.44 3.48,4.8 6.06,5.82 1.07,0.42 7.26,1.8 5.69,4 -1.19,1.69 -3.84,-0.38 -9.31,-0.38 -1.9,0 -3.29,0.31 -4.6,0.98 -2.38,1.21 -0.83,1.64 -3.96,1.64 -0.42,0.63 -0.76,1.32 -1.4,1.74 -0.72,-0.48 -0.61,-0.86 -1.05,-1.57 -0.83,-1.35 -1.63,-0.77 -0.84,-2.41 0.25,-0.52 0.06,-0.57 0.67,-0.73 0,1.84 0.42,1.58 0.7,2.79l0.7 0c0.17,-0.64 0.26,-0.33 0.45,-1.12 0.12,-0.48 0.15,-0.9 0.25,-1.32 0.92,0.24 0.56,1.19 1.43,1.19 0.77,0 0.49,-1.36 0.49,-2.24 0.51,0.27 0.43,0.28 0.85,0.57 1.82,1.25 0.58,-1.14 0.02,-1.97l-1.39 0.2c0.08,-1.11 0.87,-0.95 1.23,-5.43 0.07,-0.82 -0.07,-1.38 0.69,-1.58l0 1.74c1.35,-0.11 1.37,-2.03 0.74,-2.83 -0.45,-0.56 -0.51,-0.38 -1.09,-0.66 0,-1.13 -0.15,-1.07 -0.35,-1.92 -1.1,0.25 -1.21,1.16 -2.1,1.4 0,-1.59 -0.08,-2.15 -1.05,-2.8 -0.19,0.14 -0.73,0.78 -0.9,1.02 -0.33,0.45 -0.48,0.89 -0.49,1.6z"/>
   <path class="fil1" d="M79.49 13.28c1,-0.39 1.14,0.35 2.09,0.35 0.7,0 0.87,-0.36 1.58,-0.53 0.03,0.03 0.07,0.06 0.09,0.08l0.6 0.62c-0.28,1.21 -0.39,0.13 -0.87,2.1 -1.03,4.29 -3.49,-0.21 -3.49,-2.62zm2.44 -2.8c0,-0.23 2.21,-1.38 2.27,-1.4 0,1.09 -0.53,1.83 -1.09,2.76 -0.31,0.5 -0.01,0.39 -0.65,0.56 -0.11,-0.23 -0.53,-1.6 -0.53,-1.92zm-1.84 -0.6c1.58,1.07 0.76,0.86 0.62,2.52 -1.32,-0.3 -2.1,-2.27 -2.1,-2.97 0,-0.93 1.33,0.34 1.48,0.45zm0.1 -2.02l-0.35 0c-0.18,-0.64 -0.77,-1.05 -1.4,-1.22 -0.51,0.96 -0.24,0.56 -0.35,1.77 -0.11,1.23 -0.26,0.32 -1.22,0.32 -1.67,0 -0.53,2.79 0.52,3.5l0 -1.92c0.98,0.26 0.95,2.64 1.15,3.56 0.35,1.65 0.83,2.22 1.47,3.42 -0.79,-0.01 -0.69,-0.17 -1.57,-0.17 -0.51,2.18 -0.29,5.02 0.5,7.19 0.35,0.96 0.72,1.79 0.72,2.77 0,2.55 -3.41,5.66 -5.31,6.92 -0.62,0.41 -0.9,0.52 -1.56,0.88 -1.27,0.69 -1.86,1.3 -1.86,3.2 0.9,-0.21 2.08,-0.52 2.49,-1.35 0.5,-1 -0.06,-0.42 0.94,-0.98 0.98,-0.54 0.24,-0.58 1.11,-0.81 -0.1,1.2 -0.99,2.47 0.87,2.97 0.04,-1.47 0.56,-1.42 1.01,-2.32 0.37,-0.74 0.22,-2.07 0.22,-3.1 0.5,0.14 0.4,0.22 0.62,0.6l0.25 0.45c2.09,-1.1 0.89,-2.25 1.57,-3.67 0.46,0.34 0.37,0.78 0.7,1.4 1.62,-0.38 0.98,-2.07 1.57,-3.32 0.76,0.56 -0.06,0.32 0.7,0.87 0.63,-0.42 0.53,-0.56 0.87,-1.22 -0.78,-1.17 -1.14,-1.15 -0.1,-2.9 0.39,-0.66 0.45,-1.1 1.15,-1.29 -0.01,0.53 -0.08,0.64 -0.17,1.05 0.84,0 0.67,0 1.29,-0.29 2.89,-1.33 4.3,-0.12 4.3,-0.94 0,-0.93 -0.96,-1.47 -0.46,-1.65 0.79,-0.28 3.75,6.03 6.4,7.25 1.9,0.87 3.32,0.52 3.32,2.96 0,1.93 -2.8,3.38 -2.8,6.64 0.26,-0.13 0.45,-0.23 0.72,-0.32 1.88,-0.66 1.38,-0.01 1.38,-1.95 0,-0.46 0.25,-0.51 0.52,-0.7 0.87,0.64 0.42,1.87 1.92,2.27 0,-0.9 0.19,-2.24 0.04,-2.64 -0.33,-0.93 -0.91,-0.65 -0.91,-2.07 1.29,0.1 1.22,0.68 1.22,-1.05 0,-0.43 -0.2,-0.89 -0.42,-1.15 -0.49,-0.55 -0.57,-0.1 -0.8,-0.95 0.59,-0.28 0.52,-0.06 1.22,0 0,-1.06 0,-1.38 -0.35,-2.09 -1.81,0 -3.08,0.66 -4.17,-2.82 -0.65,-2.08 -1.17,-3.45 -3.51,-4l0 -0.35c2.29,0 5.91,2.08 7.74,0.41 1.58,-1.45 0.1,-5.3 -1.98,-5.47 -0.02,0.9 0.16,0.5 -0.35,0.87 -1.32,-0.97 -0.75,-2.79 -3.49,-2.79 0.02,1.1 0.29,0.57 0.52,1.57 -1.69,-0.14 -1.83,-3.09 -4.54,-3.15 1.65,3.12 -1.57,0.01 -1.57,-1.39 0,-1.99 0.7,-2.97 2.79,-2.97 2.04,0 5.61,4.11 7.34,1.74 -1.63,-0.38 -2.7,-0.86 -4.09,-1.67 -0.57,-0.33 -0.8,-0.3 -1.15,-0.77 0.72,0.01 2.71,0.81 3.47,1.07 0.61,0.21 2.01,0.77 2.68,0.2 0.91,-0.76 0.38,-2.24 -0.56,-2.49 0,3.19 -0.96,1.02 -6.24,0.11 -3.09,-0.53 -5.46,1.5 -5.46,4.6 0,5.74 11.88,5.73 11.88,8.74 0,2.83 -4.98,0.35 -8.22,0.35 -2.62,0 -5.03,0.23 -6.89,1.66 -1.58,1.22 -0.38,0.63 -2.52,0.97 -0.59,0.1 -0.66,0.31 -0.95,0.8 -0.44,0.77 -0.25,0.54 -0.99,0.93 -0.85,-1.26 -0.92,-2.06 -2.27,-2.97 0.46,-0.88 0.57,-1.57 1.22,-1.74 0,1.29 0.14,2.25 0.87,2.79 1.06,-0.28 1.01,-1.68 1.23,-2.62 0.64,0.43 0.34,0.3 0.7,0.88 0.15,0.23 0.1,0.27 0.42,0.46 0.7,0.43 0.77,-0.14 0.82,-0.8 0.02,-0.39 -0.02,-0.99 -0.02,-1.41 0.44,0.23 0.88,0.87 1.4,0.87 1.24,0 -0.5,-2.27 -0.7,-2.27 -0.45,0 -0.92,0.2 -1.22,0.35 0,-1.2 0.18,-0.91 0.57,-1.69 0.74,-1.49 0.32,-3.34 0.76,-4.84 0.18,-0.62 -0.08,-0.46 0.59,-0.63l0 1.74 0.52 0c0.45,-1.66 1.56,-2.28 -0.51,-3.33 -0.26,-0.13 -0.29,-0.17 -0.54,-0.33 0,-0.93 -0.01,-1.04 -0.17,-1.75 -1.19,0.28 -1.87,1.79 -2.12,1.2 -0.34,-0.77 0.53,-1.24 -1.03,-2.6 -0.88,0.59 -1.39,1.47 -1.39,2.62z"/>
   <path class="fil1" d="M19.92 76.87c0,1.33 -0.65,2.92 -1.75,3.67 -0.8,-0.19 -1.03,-0.57 -1.44,-1.19 -0.45,-0.68 -0.83,-1.06 -0.83,-1.96 0,-1.35 1.43,-0.17 2.09,-0.17 1.16,0 0.64,-0.35 1.93,-0.35zm-4.72 -3.67c2.04,0.47 2.81,0.93 1.92,2.79 -0.7,-0.36 -0.83,-0.45 -1.3,-1.14 -0.37,-0.54 -0.6,-0.83 -0.62,-1.65zm3.49 2.62c-0.97,-2.04 0.52,-2.03 0.83,-2.15 0.38,-0.14 2.08,-1.22 0.37,0.9 -0.19,0.23 -0.34,0.53 -0.48,0.75 -0.47,0.74 0.15,0.4 -0.72,0.5zm16.77 -0.7c-1.32,-0.11 -2.17,-0.98 -3.07,-1.65l-2.21 -1.45c-0.73,-0.52 -0.26,0.04 -0.48,-0.57 1.89,0.44 6.72,4.89 8.13,2.01 0.38,-0.78 0.08,-1.1 -0.1,-1.83l-0.34 0c0,0.73 -0.22,1.57 -0.88,1.57 -1.09,0 -2.57,-1.04 -3.46,-1.61 -4.12,-2.62 -8.07,-0.41 -8.07,2.66l0 1.39c0,4.1 6.43,4.99 9.44,5.77 3.66,0.95 3.49,3.84 0.69,3.84 -1.98,0 -4.4,-1.08 -6.43,-1.42 -6.19,-1.06 -6.8,1.27 -8.59,2.47 -1.83,-1.23 -1.35,-0.94 -3.14,-0.52 -0.77,-0.57 -1.68,-2.73 -1.05,-3.85 0.77,0.57 0.25,1.56 1.22,2.27 0.57,-0.15 0.47,-0.19 0.72,-0.68 0.15,-0.3 0.24,-0.49 0.33,-0.89 0.7,0.19 0.54,0.38 0.82,1.1 0.25,0.64 0.3,0.83 0.93,1 0.74,-0.55 0.42,-1.22 0.34,-2.1 1.12,0.09 0.55,0.7 1.93,0.7 -0.03,-1 -0.2,-0.65 -0.65,-1.45 -0.28,-0.5 -0.35,-0.88 -0.58,-1.34 -0.44,0.1 -2.09,0.8 -1.29,-0.21 1.03,-1.31 0.86,-0.36 1.32,-4.14 0.1,-0.82 0.15,-1.56 0.67,-1.94 0.3,0.61 -0.04,0.64 0.18,1.57 0.78,-0.21 1.3,-1.71 0.7,-2.97 -1.38,-0.32 -1.58,0.56 -1.58,-2.62 -0.52,0.14 -0.81,0.39 -1.18,0.75 -1.27,1.21 -0.8,0.16 -1.32,-0.86 -0.22,-0.42 -0.48,-0.71 -0.82,-0.94 -0.54,0.4 -1.02,1.69 -1.04,2.62 -0.77,-0.51 -0.79,-0.96 -1.93,-1.22 -0.17,0.74 -0.34,1.34 -0.34,2.27 -3.13,-0.73 -1.37,2.82 -0.18,3.14 0,-0.93 -0.16,-0.97 -0.17,-1.74 1.57,0.42 0.26,3.91 2.41,5.98 1.32,1.27 -0.05,0.65 -0.84,0.65 -1.53,0 -0.47,4.04 1.26,5.73 1.64,1.61 5.75,4.11 0.36,6.38 -2.33,0.99 -2.36,0.27 -3.02,3.09 0.49,-0.23 1.6,-0.19 2.27,-0.35 0.02,-0.09 0.15,-0.68 0.16,-0.71 0.19,-0.48 0.04,-0.23 0.38,-0.49 0.04,-0.03 0.18,-0.1 0.22,-0.13l0.81 -0.41c0,1.96 -0.36,1.02 0.18,3.32l0.35 0c0.2,-0.86 0.74,-1.2 1.11,-2.04 0.43,-0.98 0.11,-1.78 0.46,-2.51 0.53,0.14 0.38,0 0.52,0.53l0.53 0c0.14,-0.61 0.35,-0.59 0.35,-1.22 0,-0.67 -0.48,-1.06 0.15,-1.15 0.28,-0.04 0.42,0.22 1.07,0.27 0.25,-0.46 0.45,-0.76 0.7,-1.22 -0.36,-0.54 -1.4,-1.29 -1.4,-2.1 0,-0.76 0.54,-1.58 0.7,-2.27 0.59,0.43 0.18,0.73 0.18,1.57 1.36,0 1.67,-0.7 2.96,-0.7 1.33,0 1.79,0.83 1.97,0.32 0.16,-0.46 -0.86,-1.15 -0.06,-1.11 0.94,0.04 2.26,4.88 2.48,5.49 1.25,3.38 5.2,1.39 4.71,7.01 -0.13,1.41 -0.39,2.17 -0.71,3.32 -1.19,4.32 -1.14,2.16 -0.17,6.29 0.64,-0.74 1.39,-1.25 1.39,-2.62 0,-0.98 -0.63,-1.97 0.02,-2.05 0.44,-0.06 0.79,0.77 1.56,1.17 0.08,-1.06 0.24,-1.45 -0.2,-2.6 -0.18,-0.47 -0.44,-0.66 -0.67,-1.12 -0.7,-1.42 0.5,0.05 0.86,-0.32 0.76,-0.78 -0.39,-2.39 -0.75,-2.93 -0.74,-1.12 0.35,-0.5 0.93,-0.36 0.24,-1.04 0.24,-2.28 0,-3.32 -2.71,0 -3,-1.48 -3.39,-3.77 -0.2,-1.15 -0.39,-1.95 -0.85,-2.82 -0.77,-1.43 -1.28,-0.81 -1.87,-1.62 0.67,-0.33 3.26,0.92 4.52,0.85 4.12,-0.23 3.22,-5.91 0.19,-6.62 0.02,0.77 0.12,0.55 0.18,1.22 -0.53,-0.35 -0.79,-0.9 -1.24,-1.38 -0.02,-0.03 -0.06,-0.06 -0.08,-0.09 -0.54,-0.55 -1.14,-0.97 -2.18,-0.97 -0.65,0 0.12,0.86 0.18,1.57 -1.44,-0.38 -1.37,-2.27 -4.02,-2.27 0.25,0.92 0.44,0.18 0.52,1.22 -1.03,-0.24 -3.32,-2.27 -3.32,-3.49 0,-1.61 0.37,-2.8 2.28,-2.8 2.11,0 5.8,4.54 7.33,2.45z"/>
   <path class="fil1" d="M82.28 77.04c0,1.23 -0.25,1.08 -0.8,2 -0.31,0.51 -0.48,1.32 -1.12,1.32 -1.09,0 -1.92,-2.35 -1.92,-3.32 0,-1.23 1.58,0 1.92,0 0.48,0 1.92,-1.14 1.92,0zm0.88 -3.84c-0.02,0.86 -0.06,0.77 -0.84,1.61 -0.42,0.46 -0.2,0.29 -0.5,0.73 -1.04,1.55 -0.94,-0.85 -0.94,-1.47l2.28 -0.87zm-3.15 0.7c0,0.77 0.06,1.37 -0.52,1.92 -0.56,-0.15 -0.62,-0.25 -1.11,-1.16 -0.28,-0.52 -0.45,-0.93 -0.47,-1.64 0.99,0.23 0.57,0.52 2.1,0.88zm1.4 -1.93c0.2,-1.59 0.09,-1.47 -0.7,-2.96 -0.82,0.55 -1.22,1.41 -1.22,2.79 -1.13,-0.3 -0.28,-0.88 -1.75,-1.22 -0.23,0.98 -0.52,0.86 -0.52,2.27 -0.84,-0.07 -0.72,-0.4 -1.34,-0.29 -1.63,0.32 -0.39,2.98 0.64,3.26 0,-0.73 -0.3,-2.42 0.4,-1.14 0.65,1.2 0.46,3.23 0.99,4.46 0.28,0.64 0.7,1.05 1.05,1.57 -0.76,-0.02 -0.54,-0.12 -1.22,-0.17 -0.66,0.97 -0.6,1.41 -0.8,2.86 -0.15,1.07 -0.25,2.35 -0.25,3.42 0,1.91 1.72,4.77 -1.81,6.75 -2.54,1.42 -4.68,0.3 -5.53,3.91 4.09,-0.95 2.32,-1.51 3.85,-1.92 -0.11,1.25 -1.21,1.95 0.17,2.97 0.11,-1.34 1.4,-1.25 1.4,-3.32 0.52,0.21 0.27,-0.39 0.35,0.52 0.94,-0.02 1.32,-0.46 1.5,-1.3 0.41,-1.9 0,-0.92 1.12,-0.62 0.33,-0.48 0.7,-0.6 0.7,-1.4 0,-0.76 -0.29,-0.78 0,-1.39 0.35,0.26 0.57,0.56 0.7,1.05l0.52 0c0.21,-0.77 0.6,-0.56 0.65,-1.25 0.04,-0.55 -0.35,-0.68 -0.39,-1.2 -0.06,-0.8 0.77,-1.77 0.96,-2.62l0.35 1.22c1.55,-0.03 3.13,-1.57 4.2,-1.57 0.88,0 2.13,0.48 2.32,0.48 0.93,-0.01 0.26,-0.78 0.12,-1.35 0.86,0.09 0.26,-0.24 0.72,0.5 0.14,0.24 0.24,0.47 0.43,0.8 0.98,1.65 1.63,2 3.46,2.48 0.47,0.12 0.38,0.13 0.81,0.23 0.11,1.33 -0.12,2.38 -1.29,3.25 -2.74,2.03 -1.92,1.29 -1.86,4.27 1.11,-0.74 1.78,-1.61 2.1,-2.97l0.35 0c0,1.13 0.15,1.07 0.35,1.92 0.43,-0.32 0.37,-0.6 0.75,-1.17 0.97,-1.48 0.22,-2.33 0.4,-2.79 0.21,-0.54 0.21,0.09 0.95,0.29 0.58,-1.1 0.09,-1.27 0,-2.45 0.89,0.08 0.23,0.14 1.04,0.35 1.24,-2.33 -0.58,-0.66 -2.23,-2.48 -0.69,-0.76 -1.21,-1.68 -2.02,-2.35 -0.41,-0.34 -0.49,-0.19 -0.64,-0.76 1.08,0 1.64,0.45 2.55,0.77 0.75,0.26 1.8,0.51 2.57,0.59 1.82,0.2 3.44,-1.28 3.44,-2.93 0,-1.07 -1.01,-3.05 -2.09,-3.14l-0.35 1.04c-0.57,-2.43 -3.36,-3.65 -3.15,-2.7 0.13,0.58 0.49,0.48 0.17,0.82 -0.35,0.38 -0.62,-0.29 -0.84,-0.58 -0.79,-1.03 -1.02,-0.85 -2.12,-1.38 -0.4,0.85 0.11,0.18 -0.18,0.87 -0.64,-0.17 -1.03,-0.7 -1.44,-1.17 -0.98,-1.11 -1.14,-2.71 0.01,-3.75 2.55,-2.3 4.91,1.95 7.72,1.95 0.66,0 1.18,-0.21 1.75,-0.35l0 -0.34c-2.69,0 -3.71,-2.06 -6.12,-2.63 0.36,-0.49 0.94,-0.13 1.51,0.06 0.7,0.24 0.97,0.39 1.58,0.7 5.81,2.95 5.18,-0.89 4.08,-1.63 0,0.81 0.1,1.57 -0.7,1.57 -1.07,0 -2.46,-0.55 -3.42,-0.95 -5.68,-2.31 -9.32,1.2 -8.14,5 1.25,4.03 10.16,4.55 10.16,7.31 0,0.68 -0.65,1.22 -1.4,1.22 -4.06,0 -7.83,-3.1 -12.35,-0.99 -1.04,0.48 -1.76,1.25 -2.67,1.87 -1.82,-0.97 -1.35,-0.33 -2.62,0.52 -2.03,-0.54 -1.26,-3.28 -1.23,-4.72l0.35 0c0.24,1 -0.15,2.11 0.88,2.8 0.57,-0.39 0.85,-1.17 0.87,-2.1l0.53 0c0.01,0.8 0.23,1.71 1.04,1.92 0.63,-0.46 0.35,-1.18 0.7,-1.92 0.76,0.27 -0.01,-0.07 0.5,0.39 0.4,0.36 1.54,0.88 1.13,-0.22l-1.1 -2.26c-0.57,0.27 -1.93,0.67 -1.04,-0.3 1.13,-1.24 1.29,-2.32 1.58,-4.05 0.12,-0.69 0.35,-1.41 1.06,-1.59l-0.21 1.39c0.63,-0.05 0.62,-0.07 0.89,-0.51 0.15,-0.23 0.34,-0.65 0.34,-1.06 0,-0.76 0.03,-1.19 -0.73,-1.37 -0.73,-0.18 -0.65,0.33 -0.77,-0.48 -0.04,-0.25 0.05,-0.5 -0.1,-1.08 -0.07,-0.29 -0.19,-0.64 -0.32,-0.91 -0.78,0.41 -1.18,1.32 -2.1,1.39z"/>
   <path class="fil1" d="M84.9 94.86c0,-1.45 2.14,-3.36 2.75,-5.13 0.84,-2.41 -0.86,0.17 -1.35,-1.68 -2.68,0 -0.17,0.13 -2.31,2.23 -0.61,0.59 -1.71,1.57 -1.71,2.66 0,2.93 1.71,2.86 -0.19,5.39 -1.57,2.09 -5.62,3.85 -7.55,5.03 -1.26,0.77 -1.69,1.43 -1.69,3.38 0.98,-0.52 2.5,-0.56 2.97,-1.39 0.36,-0.65 0.15,-1.81 1.92,-2.28 -0.64,1.2 -0.27,1.48 -0.17,2.62 2.57,-1.72 1.8,-3.04 2.27,-4.02 0.55,0.41 0.14,0.29 0.7,0.7 1.02,-0.27 1.29,-1.26 1.39,-2.44l0.35 0c0.1,0.42 0.18,0.7 0.35,1.04 1.37,-0.72 0.86,-0.87 1.22,-2.44 0.48,0.17 0.36,-0.01 0.53,0.7l0.7 0c0.13,-0.51 0.4,-0.71 0.7,-1.05 -0.9,-1.7 -0.88,-1.08 -0.88,-3.32z"/>
   <path class="fil1" d="M71.45 14.67c-0.78,-0.21 -0.63,-0.78 -1.05,-1.4 -0.5,-0.75 -0.82,-0.36 -1.74,-0.34l1.06 2.25c0.31,0.75 0.84,1.38 1.73,1.59l0 0.52 -1.22 0c0.03,1.27 0.75,2.22 1.65,2.89 0.52,0.39 0.56,0.2 0.62,0.96l-1.04 -0.2c-0.01,0.73 0.03,0.96 0.3,1.46 1.43,2.58 2.65,1.25 3.01,2.58 -0.63,0.05 -1.15,0.09 -1.57,0.18 0.46,0.95 0.5,1.49 1.4,2.09 0.6,-0.44 0.79,-2.04 3.31,-2.09 0,-1.26 -0.34,-2.24 -0.34,-3.5 -0.56,0.38 -1.23,1.4 -1.93,1.4 -3.25,0 -3.14,-6.89 -3.14,-9.26 0,-1.69 0.31,-1.89 -0.15,-3.52 -0.27,-0.96 -0.86,-2.18 -1.77,-2.42 0,1 -0.04,1.02 -0.25,1.86 -0.46,1.87 0.02,1.72 0.49,2.27 0.39,0.44 0.12,-0.22 0.32,0.73 0.13,0.62 0.31,1.19 0.31,1.95z"/>
   <path class="fil1" d="M6.29 10.83c0,1.65 1.22,0 1.22,4.02 -1.13,-0.76 -0.57,-2.82 -2.79,-1.75 0.47,0.71 0.74,1.32 1.16,2.16 0.66,1.33 1.07,1.03 1.63,1.86 -0.42,0.24 -0.32,0.17 -1.05,0.17 0,1.12 0.22,1.61 0.75,2.23 0.97,1.15 1.26,0.53 1.35,1.62 -0.41,-0.1 -0.52,-0.16 -1.05,-0.18 0.02,0.94 0.6,2.09 1.1,2.57 0.82,0.8 1.95,0.43 2.22,1.45 -0.89,0.21 -0.9,0.03 -1.57,0.18 0.47,0.88 0.57,1.54 1.4,2.09 0.6,-0.44 0.38,-0.81 1.21,-1.4 0.54,-0.39 1.18,-0.67 2.11,-0.69 0,-1.21 -0.26,-2.42 -0.35,-3.5 -0.84,0.56 -0.76,1.4 -1.93,1.4 -2.34,0 -3.14,-4.69 -3.14,-7.34 0,-3.53 0.7,-6.22 -1.75,-7.86 -0.09,1.07 -0.52,1.84 -0.52,2.97z"/>
   <path class="fil1" d="M24.98 27.43c0,2.48 5.32,6.03 -1.68,7.92 -0.95,0.26 -1.65,0.28 -2.46,0.69 -0.74,0.36 -1.19,1.08 -1.27,2.04 0.71,-0.16 0.67,-0.15 1.58,-0.16 1.89,-0.04 1.09,-1.33 3.66,-1.93 -0.09,1.04 -0.88,1.15 -0.88,1.74 0,0.66 0.12,0.33 0.18,1.05 0.36,-0.09 1.41,-1.1 1.7,-1.44 1.06,-1.22 0.21,-1.47 0.74,-2.58 0.91,0.25 0.15,0.17 0.88,0.7 1.8,-1.2 0.7,-1.89 0.7,-3.32 0.8,0.07 0.47,0.15 1.04,0.53 0.46,-0.68 0.47,-0.38 0.7,-1.4 -2.76,-0.64 -1.39,-3.49 -1.39,-4.02 0,-0.51 -0.68,-1.67 -1.05,-2.44 -1.11,0.25 -0.85,0.44 -1.49,0.95 -0.7,0.56 -0.96,0.35 -0.96,1.67z"/>
   <path class="fil1" d="M88.92 27.08c0,2.55 1.92,3.49 1.92,5.24 0,4.06 -7.25,1.91 -7.33,5.76 1.26,-0.6 1.91,0.48 2.9,-0.76 0.51,-0.66 1.49,-1.26 2.34,-1.33 -0.33,1.4 -1.18,0.73 -0.7,2.79 0.4,-0.14 0.13,-0.03 0.41,-0.28 0.16,-0.16 0.23,-0.28 0.42,-0.45 2.42,-2.26 0.89,-1.78 1.61,-3.29 0.46,0.17 0.39,0.37 0.88,0.7 1.73,-1.16 0.6,-2.35 0.52,-3.32 1.5,0.04 -0.02,0.2 1.22,0.53 0.31,-0.46 0.44,-0.73 0.7,-1.22 -0.55,-0.37 -2.19,-1.17 -1.82,-2.87 0.09,-0.41 0.42,-0.99 0.42,-1.33 0,-0.64 -0.84,-1.59 -1.04,-2.44 -0.61,0.05 -2.45,1.17 -2.45,2.27z"/>
   <path class="fil1" d="M70.75 85.6c0,1.23 0.27,1.17 0.35,2.1 1.23,-0.03 1.29,-0.7 2.62,-0.7 2.22,0 2.45,1.23 2.45,-2.97 -0.5,0.33 -0.93,0.87 -1.75,0.87 -1.77,0 -2.45,-2.17 -2.45,-4.02 0,-6.28 1.88,-7.76 -1.39,-9.95 0,0.97 -0.28,2.22 -0.12,2.9 0.22,0.91 0.71,0.93 0.82,2.16 -1.36,-0.15 0.43,-0.7 -2.1,-0.7 0.23,2.77 1.63,2.75 1.92,3.85 -0.46,0.22 -0.19,0.16 -0.87,0.17 -0.17,2.05 0.05,1.25 0.87,2.8 -0.52,0.24 -0.36,0.05 -1.05,0 0,0.63 0.19,1.57 0.43,2.02 0.35,0.64 0.78,0.78 1.49,0.95l0 0.52 -1.22 0z"/>
   <path class="fil1" d="M14.62 85.13c-0.15,-0.45 -0.19,-1.16 -0.29,-1.62 -0.62,0.41 -0.82,1.04 -1.75,1.04 -1.38,0 -3.32,-3.62 -3.32,-5.24l0 -1.57c0,-2.06 1.8,-4.59 -1.4,-6.29 0,1.02 -0.17,1.22 -0.17,2.1 0,0.9 0.5,1.68 0.52,2.62 -1.02,-0.09 -0.46,-0.53 -2.27,-0.53 0.11,0.49 0.68,1.76 0.97,2.18 0.58,0.86 0.95,0.71 1.48,1.49 -0.49,0.24 -0.34,0.18 -1.05,0.18 0.44,1.9 0.67,2.36 2.09,3.32 -0.28,0.79 0.09,-0.17 -0.27,0.42 -0.27,0.43 -0.25,-0.29 -0.25,0.45 0,0.43 0.71,1.36 0.99,1.63 0.6,0.56 0.93,0.47 1.98,0.47 -0.08,0.96 -0.15,0.52 -0.87,0.87 0.62,2.69 1.94,0.64 2.52,0.42 0.77,-0.28 0.97,-0.23 1.67,-0.6 -0.12,-0.25 -0.49,-1.07 -0.58,-1.34z"/>
   <path class="fil1" d="M28.65 99.4c1.67,-2.49 -0.21,-2.15 0.77,-2.53 0.4,-0.15 0.36,0.08 0.45,0.44l0.53 0c0.17,-0.67 0.34,-0.44 0.52,-1.23 -1.58,-0.42 -1.06,-2.69 -1.32,-3.92 -0.19,-0.91 -0.4,-1.17 -0.7,-1.91 -0.26,-0.64 -0.31,-1.68 -0.95,-1.68 -0.73,0 -1.28,0.68 -1.46,1.35 -0.44,1.68 1.46,4.13 1.46,6.16 0,2.07 -1.56,1.98 -3.15,2.79 -1.29,0.65 -1.9,1.59 -2.26,3.15 0.45,-0.24 0.41,-0.22 1.01,-0.38 2.38,-0.65 0.48,-1.29 2.3,-1.71 -0.04,0.54 -0.17,0.62 -0.17,1.22 0,1.53 0.13,0.81 0.35,1.75l0.35 0c0.23,-0.98 1.02,-1.41 1.18,-2.32 0.11,-0.59 -0.11,-1.23 0.2,-1.55 0.48,-0.49 0.26,-0.06 0.46,0.06 0.53,0.31 -0.45,-0.01 0.43,0.31z"/>
   <path class="fil0" d="M58.87 8.56c0.35,1.31 0.7,-0.16 0.7,2.1 0,1.2 -0.33,2.36 -0.67,3.17 -0.42,1.05 -1.02,1.58 -1.77,2.24 1.06,0.26 0.38,0.22 2.09,-0.03 0,1.07 0.33,1.47 0.53,2.3l0.35 0c0.06,-0.83 0.44,-1.36 0.52,-2.27 1.83,0.27 1.31,0.31 1.92,0 -0.89,-1.33 -1.71,-0.74 -2.39,-5.5 -0.15,-1.11 0.33,-1.27 0.82,-1.84 -0.42,-0.62 -0.59,-0.97 -1.22,-1.39 -0.19,0.68 -0.49,0.65 -0.88,1.22z"/>
   <path class="fil0" d="M58.83 81.72c0.39,1.35 0.74,-0.12 0.74,2.13 0,5.07 -3.81,5.59 -1.92,5.59 0.88,0 0.78,-0.15 1.57,-0.17 0,1.03 0.33,1.44 0.53,2.27l0.35 0c0.08,-0.96 0.5,-1.22 0.52,-2.27 1.83,0.27 1.31,0.3 1.92,0 -0.89,-1.33 -1.71,-0.74 -2.39,-5.5 -0.15,-1.11 0.33,-1.27 0.82,-1.84 -0.35,-0.52 -0.52,-0.86 -1.05,-1.22l-1.09 1.01z"/>
   <path class="fil0" d="M52.72 92.9c0.39,1.35 0.74,-0.12 0.74,2.14 0,2.43 -0.77,3.95 -2.45,5.41 1.27,0.3 0.86,0 2.1,0 0.02,0.91 0.34,1.51 0.52,2.27l0.35 0c0.08,-0.96 0.5,-1.22 0.53,-2.27 0.85,0 1.24,0.33 1.92,0 -0.69,-1.02 -1.23,-1.08 -1.78,-2.59 -0.34,-0.97 -0.57,-2.46 -0.67,-3.7 0.37,-0.55 0.51,-0.53 0.87,-1.22l-0.47 -0.57c-0.27,-0.28 -0.28,-0.28 -0.57,-0.48l-1.09 1.01z"/>
   <path class="fil0" d="M46.64 81.76c0.22,0.81 0.7,0.57 0.7,1.57 0,1.79 -0.53,3.98 -1.62,5.2 -0.19,0.2 -0.45,0.37 -0.57,0.5 -0.24,0.29 -0.72,0.41 0.45,0.41 0.6,0 0.67,-0.12 1.22,-0.17 0.31,0.64 0.27,1.58 0.87,2.45 0.19,-0.83 0.63,-1.61 0.7,-2.45 0.64,0.05 0.5,0.17 1.4,0.17 0.67,0 0.06,0.06 0.52,-0.17 -0.29,-0.39 -1.27,-0.95 -1.82,-2.55 -0.36,-1.05 -0.62,-2.41 -0.62,-3.74 0,-0.1 0.76,-1.06 0.87,-1.22 -0.4,-0.27 -0.77,-0.82 -1.05,-1.22 -0.23,0.17 -0.87,0.95 -1.05,1.22z"/>
   <path class="fil1" d="M49.09 55.03c0.64,-0.34 1.22,-0.79 1.9,-1.07 2.44,-1.01 5.5,-0.23 6.49,1.24 -1.56,2.33 -6.65,2.43 -8.39,-0.17zm-0.87 0c0.65,2.45 7.27,4.7 10.3,0.17 -2.32,-3.47 -8.41,-2.99 -10.3,-0.17z"/>
   <path class="fil0" d="M28.13 53.98c0.57,0.85 0.85,0.49 0.75,1.61 -0.15,1.75 -0.24,2.81 -1.11,4.33 -0.96,1.68 -0.93,0.5 -1.22,1.57 2.06,0 1.78,-0.79 2.45,2.1l0.35 0c0.62,-2.65 0.64,-2.18 1.23,-2.14 0.49,0.03 0.89,0.04 1.39,0.04 -0.77,-1.15 -2.45,-1.36 -2.45,-6.46 0,-0.43 0.44,-0.66 0.7,-1.05 -0.35,-0.52 -0.51,-0.86 -1.05,-1.22 -0.53,0.36 -0.69,0.7 -1.04,1.22z"/>
   <path class="fil0" d="M52.72 19.7c0.39,1.35 0.74,-0.12 0.74,2.14 0,2.42 -0.87,4.04 -2.45,5.41 2.2,0.19 0.65,0 2.1,0 0.02,0.91 0.34,1.51 0.52,2.27l0.35 0c0.08,-0.96 0.5,-1.22 0.53,-2.27 1.2,0 0.73,0.28 1.92,0 -0.69,-1.02 -1.23,-1.08 -1.78,-2.59 -0.34,-0.96 -0.57,-2.46 -0.67,-3.7 0.37,-0.55 0.51,-0.53 0.87,-1.22l-1.04 -1.05 -1.09 1.01z"/>
   <path class="fil0" d="M83.85 46.47c0.12,0.22 0.2,0.34 0.33,0.55 0.38,0.58 0.37,-0.07 0.37,1.55 0,2.38 -0.87,4.04 -2.44,5.41l2.09 0c0.03,1.05 0.45,1.31 0.53,2.27l0.35 0c0.08,-0.96 0.5,-1.22 0.52,-2.27l2.1 0c-2.13,-1.85 -2.22,-3.07 -2.54,-5.7 -0.12,-1 -0.26,-0.24 0.79,-1.81 -0.38,-0.57 -0.69,-0.54 -0.87,-1.22 -0.52,0.13 -0.94,0.79 -1.23,1.22z"/>
   <path class="fil0" d="M52.76 70.75c0.71,1.07 0.7,0.07 0.7,2.27 0,3.33 -2.06,4.44 -2.27,5.24 0.97,0 1.2,-0.11 1.92,-0.17 0.02,0.91 0.34,1.51 0.52,2.27l0.35 0c0.08,-0.96 0.5,-1.22 0.53,-2.27 0.71,0.06 0.95,0.17 1.92,0.17 -0.18,-0.67 -0.08,-0.3 -0.59,-0.8l-0.56 -0.66c-0.92,-1.4 -0.99,-2.73 -1.19,-4.26 -0.18,-1.42 0.08,-0.76 0.76,-1.79 -0.35,-0.52 -0.51,-0.86 -1.04,-1.22 -0.61,0.41 -0.71,0.57 -1.05,1.22z"/>
   <path class="fil0" d="M8.39 46.47c1.09,1.63 0.87,0.68 0.78,1.63 -0.24,2.77 -0.44,4.06 -2.53,5.88l2.09 0c0.03,1.05 0.45,1.31 0.53,2.27l0.35 0c0.08,-0.96 0.5,-1.22 0.52,-2.27l2.1 0c-0.72,-0.62 -1.34,-1.19 -1.73,-2.11 -0.65,-1.54 -0.72,-2.47 -0.72,-4.18 0,-0.44 0.25,-0.37 0.7,-1.22 -0.38,-0.57 -0.69,-0.54 -0.87,-1.22l-0.35 0c-0.18,0.68 -0.49,0.65 -0.87,1.22z"/>
   <path class="fil0" d="M90.49 53.81c0.22,0.8 0.7,0.78 0.7,1.57 0,4.17 -1.7,5 -2.44,6.11 0.81,0 1.35,0.1 1.92,-0.17 0.21,0.89 0.5,1.62 0.7,2.44 0.48,-0.55 0.82,-1.8 0.87,-2.44 0.57,0.27 1.11,0.17 1.92,0.17 -0.29,-0.81 -2.44,-1.54 -2.44,-6.29 0,-0.27 0.69,-1.12 0.87,-1.39 -0.44,-0.29 -0.72,-0.48 -0.87,-1.05 -0.61,0.16 -0.92,0.59 -1.23,1.05z"/>
   <path class="fil0" d="M46.47 104.29c0.78,0.53 0.87,0.66 0.87,1.4 0,2.52 -0.68,4.41 -2.44,5.94 3.49,0.29 1.29,-0.46 2.6,2.11 0.16,0.31 0.07,0.15 0.19,0.34 0.19,-0.83 0.49,-1.55 0.7,-2.45 0.39,0 0.64,0.04 0.97,0.07 0.65,0.04 0.21,-0.01 0.95,-0.07 -0.41,-0.56 -1.03,-0.6 -1.8,-2.56 -0.39,-0.99 -0.64,-2.43 -0.64,-3.73 0,-0.1 0.76,-1.06 0.87,-1.22 -0.66,-0.44 -0.48,-0.73 -1.22,-1.22l-1.05 1.39z"/>
   <path class="fil0" d="M46.64 8.56c0.08,0.27 1.57,1.52 0.06,5.12 -0.46,1.09 -1.02,1.71 -1.8,2.39 0.91,0.24 0.33,0.2 1.91,-0.03 0.2,0.42 0.23,0.81 0.36,1.26l0.33 0.89c0.16,0.3 0.06,0.14 0.19,0.33 0.19,-0.83 0.63,-1.61 0.7,-2.45 1.83,0.27 1.31,0.31 1.92,0 -0.37,-0.51 -0.52,-0.34 -1.02,-1.07 -0.34,-0.52 -0.56,-0.8 -0.8,-1.48 -0.36,-1.05 -0.62,-2.41 -0.62,-3.74 0,-0.1 0.76,-1.06 0.87,-1.22 -0.4,-0.27 -0.77,-0.81 -1.05,-1.22 -0.23,0.17 -0.87,0.95 -1.05,1.22z"/>
   <path class="fil0" d="M96.96 46.47c0.72,1.08 1.32,1.1 0.45,4.12 -0.2,0.7 -0.41,1.31 -0.74,1.88 -0.41,0.7 -0.86,0.88 -1.29,1.51l1.93 0c0.06,0.79 0.33,1.88 0.87,2.27 0.1,-0.44 0.53,-1.92 0.7,-2.27l1.92 0c-0.35,-0.48 -0.53,-0.36 -0.98,-0.94 -1.14,-1.48 -1.47,-3.38 -1.47,-5.35 0,-0.43 0.44,-0.65 0.7,-1.05 -0.12,-0.46 -0.6,-0.99 -0.87,-1.39 -0.3,0.2 -0.38,0.27 -0.66,0.56 -0.12,0.13 -0.13,0.15 -0.25,0.28l-0.31 0.38z"/>
   <path class="fil0" d="M58.87 30.92c0.35,1.31 0.7,-0.16 0.7,2.1 0,2.34 -0.87,4.05 -2.44,5.41l2.09 0c0.02,0.91 0.35,1.51 0.53,2.27l0.35 0c0.06,-0.82 0.44,-1.36 0.52,-2.27l1.92 0c-0.36,-0.54 -0.81,-0.83 -1.19,-1.42 -0.41,-0.62 -0.6,-1.14 -0.84,-1.97 -0.2,-0.69 -0.26,-1.48 -0.36,-2.28 -0.1,-0.89 -0.13,-0.49 0.23,-1.02 0.21,-0.31 0.4,-0.53 0.59,-0.82l-1.22 -1.22c-0.37,0.69 -0.51,0.67 -0.88,1.22z"/>
   <path class="fil0" d="M77.22 53.98c0.86,0.99 1.26,1.33 0.45,4.12 -0.22,0.76 -0.4,1.28 -0.76,1.86 -0.7,1.11 -1.06,0.97 -1.27,1.53l1.93 -0.11c0.05,0.65 0.36,2.01 0.87,2.38 0.01,-0.09 0.51,-1.99 0.55,-2.07 0.29,-0.63 -0.37,-0.2 2.07,-0.2 -0.83,-1.23 -2.45,-1.9 -2.45,-6.11 0,-0.79 0.38,-0.91 0.7,-1.4 -0.34,-0.65 -0.44,-0.81 -1.05,-1.22 -0.23,0.17 -0.87,0.96 -1.04,1.22z"/>
   <path class="fil0" d="M58.87 104.12c0.35,1.31 0.7,-0.16 0.7,2.1 0,2.34 -0.87,4.04 -2.44,5.41l2.09 0c0.02,0.91 0.35,1.51 0.53,2.27l0.35 0c0.06,-0.83 0.44,-1.36 0.52,-2.27l1.92 0c-0.38,-0.58 -0.86,-0.83 -1.22,-1.4 -0.74,-1.17 -1.04,-2.87 -1.19,-4.25 -0.11,-0.99 -0.04,-0.55 0.84,-1.86 -0.03,-0.03 -0.07,-0.12 -0.08,-0.1 -0.02,0.05 -0.43,-0.65 -1.14,-1.12 -0.19,0.68 -0.49,0.65 -0.88,1.22z"/>
   <path class="fil0" d="M70.58 46.64c0.78,0.53 0.87,0.66 0.87,1.4 0,4.18 -1.65,4.86 -2.44,5.94l1.92 0c0.16,0.35 0.59,1.83 0.7,2.27 0.4,-0.29 0.39,-0.47 0.55,-1.02 0.1,-0.35 0.22,-0.84 0.32,-1.25l1.92 0c-0.52,-0.77 -0.86,-0.45 -1.75,-2.44 -0.37,-0.84 -0.7,-2.46 -0.7,-3.67 0,-0.58 0.52,-0.99 0.88,-1.23 -0.42,-0.62 -0.59,-0.97 -1.22,-1.39 -0.32,0.46 -0.74,0.93 -1.05,1.39z"/>
   <path class="fil0" d="M14.98 53.77c0.26,0.84 1.58,1.16 0.07,5.3 -0.47,1.31 -1.15,1.49 -1.77,2.42 0.43,0 0.8,0.01 1.23,-0.03 0.87,-0.06 0.58,-0.32 0.84,0.23 0.06,0.13 0.5,1.86 0.55,2.07 0.41,-0.3 0.38,-0.45 0.55,-1.01 0.11,-0.38 0.28,-0.94 0.32,-1.43l1.92 0.22c-0.34,-1.02 -2.44,-1.46 -2.44,-6.51 0,-0.27 0.7,-0.85 0.87,-1.05 -0.18,-0.26 -0.81,-1.05 -1.05,-1.22l-1.09 1.01z"/>
   <path class="fil0" d="M21.49 46.64c0.25,0.18 0.87,0.69 0.87,1.05 0,1.24 -0.26,2.82 -0.64,3.73 -0.33,0.77 -0.62,1.35 -1.21,1.93 -0.36,0.36 -0.3,0.19 -0.59,0.63l1.92 0c0.16,0.72 0.33,1.87 0.87,2.27 0.1,-0.44 0.53,-1.92 0.7,-2.27l1.92 0c-0.41,-0.56 -1.02,-0.53 -1.8,-2.39 -0.46,-1.1 -0.64,-2.51 -0.64,-3.9 0,-0.43 0.43,-0.65 0.69,-1.05 -0.12,-0.46 -0.6,-0.99 -0.87,-1.39 -0.64,0.42 -0.81,0.77 -1.22,1.39z"/>
   <path class="fil0" d="M46.47 31.1c0.78,0.52 0.87,0.65 0.87,1.39 0,4.3 -1.83,5.11 -2.44,5.94l1.92 0c0.16,0.35 0.6,1.84 0.7,2.27 0.54,-0.39 0.7,-1.55 0.87,-2.27l1.92 0c-0.42,-0.62 -0.52,-0.37 -1.02,-1.07 -0.92,-1.29 -1.42,-3.28 -1.42,-5.04 0,-0.58 0.51,-0.99 0.87,-1.22 -0.42,-0.62 -0.59,-0.98 -1.22,-1.4l-1.05 1.4z"/>
   <path class="fil0" d="M34.76 46.64c0.62,0.92 0.7,0.24 0.7,1.75 0,3.83 -1.96,4.93 -2.44,5.59l1.92 0c0.16,0.35 0.6,1.83 0.7,2.27 0.4,-0.29 0.39,-0.47 0.55,-1.02 0.11,-0.35 0.23,-0.84 0.32,-1.25l1.92 0c-0.69,-1.04 -2.44,-1.96 -2.44,-6.11 0,-0.58 0.52,-0.99 0.87,-1.23 -0.41,-0.62 -0.59,-0.97 -1.22,-1.39 -0.27,0.4 -0.75,0.93 -0.88,1.39z"/>
   <path class="fil0" d="M51.01 54.68c3.07,-0.71 1.56,-0.74 4.72,0 -0.85,1.15 -3.85,1.19 -4.72,0zm-1.92 0.35c1.74,2.6 6.83,2.5 8.39,0.17 -0.99,-1.47 -4.05,-2.25 -6.49,-1.24 -0.68,0.28 -1.26,0.73 -1.9,1.07z"/>
   <path class="fil0" d="M82.13 16.45c-0.24,0.67 -0.09,0.48 -0.9,0.5 -0.15,-0.65 -0.35,-1.31 -0.35,-2.1 0,-0.47 0.88,-0.35 1.4,-0.35l-0.15 1.95zm-2.64 -3.17c0,2.41 2.46,6.91 3.49,2.62 0.48,-1.97 0.59,-0.89 0.87,-2.1l-0.6 -0.62c-0.02,-0.02 -0.06,-0.05 -0.09,-0.08 -0.71,0.17 -0.88,0.53 -1.58,0.53 -0.95,0 -1.09,-0.74 -2.09,-0.35z"/>
   <path class="fil0" d="M17.03 15.62c-0.24,-1.26 0.03,-1.12 1.31,-1.12 0,0.95 0.21,2.45 -0.7,2.45 -0.39,0 -0.53,-0.86 -0.61,-1.33zm-1.48 -1.99c0,0.57 0.51,1.74 0.72,2.25 1.58,3.91 2.47,0.31 2.6,0.02 0.68,-1.54 1.66,-2.62 0,-2.62 -0.75,0 0.02,0.35 -1.23,0.35 -0.62,0 -0.68,-0.25 -1.21,-0.4 -0.26,-0.07 -0.15,-0.14 -0.46,-0.03 -0.18,0.06 -0.42,0.25 -0.42,0.43z"/>
   <path class="fil0" d="M80.19 79.66c-0.39,0 -0.37,-0.56 -0.4,-0.99 -0.05,-0.58 -0.02,-0.18 0.05,-0.93l0.7 0c0.95,0 0.33,1.92 -0.35,1.92zm-1.75 -2.62c0,0.97 0.83,3.32 1.92,3.32 0.64,0 0.81,-0.81 1.12,-1.32 0.55,-0.92 0.8,-0.77 0.8,-2 0,-1.14 -1.44,0 -1.92,0 -0.34,0 -1.92,-1.23 -1.92,0z"/>
   <path class="fil0" d="M18.43 79.23c-0.17,0.58 -0.16,0.55 -0.79,0.61 -0.16,-0.71 -0.52,-0.88 -0.52,-1.58 0,-0.62 0.12,-0.01 1.4,-0.35 0,0.52 0.05,0.85 -0.09,1.32zm-2.53 -1.84c0,0.9 0.38,1.28 0.83,1.96 0.41,0.62 0.64,1 1.44,1.19 1.1,-0.75 1.75,-2.34 1.75,-3.67 -1.29,0 -0.77,0.35 -1.93,0.35 -0.66,0 -2.09,-1.18 -2.09,0.17z"/>
   <path class="fil1" d="M45.77 46.47c0,2.35 -0.34,3.14 1.05,3.14 1.17,0 0.87,-1.89 0.87,-2.62 0,-2.41 -1.92,-2.05 -1.92,-0.52z"/>
   <path class="fil1" d="M52.41 46.99c0,0.75 -0.22,2.62 0.87,2.62 1.39,0 1.05,-0.79 1.05,-3.14 0,-1.7 -1.92,-1.71 -1.92,0.52z"/>
   <path class="fil1" d="M59.05 46.12c0,2.65 -0.37,3.49 1.05,3.49 1.17,0 0.69,-1.74 0.69,-1.74 0,-0.16 0.29,-1.6 -0.18,-2.28 -0.48,-0.69 -1.56,-0.14 -1.56,0.53z"/>
   <polygon class="fil1" points="45.25,67.26 47.34,67.26 47.34,64.64 45.25,64.64 "/>
   <path class="fil1" d="M30.57 104.47c1.5,-1 1.4,-0.19 2.14,-1.01 0.57,-0.64 0.83,-1.43 0.83,-2.31 -0.54,0.13 -1.7,0.7 -2.13,1.01 -0.84,0.62 -0.84,0.95 -0.84,2.31z"/>
   <path class="fil1" d="M70.75 32.32c0.25,0.37 1.68,1.57 2.1,1.57 0.91,0 1.72,-0.67 2.09,-1.22 -2.04,-0.17 -1.86,-1.58 -4.19,-0.35z"/>
   <path class="fil1" d="M6.81 32.32c0.3,0.45 1.97,1.57 2.1,1.57 1.1,0 1.67,-0.7 2.27,-1.22 -2.17,-0.05 -1.94,-1.63 -4.37,-0.35z"/>
   <polygon class="fil1" points="59.22,67.26 61.14,67.26 61.14,64.64 59.22,64.64 "/>
   <path class="fil0" d="M16.95 12.23c0.41,-1.79 0.2,-1.69 -0.87,-2.45 -0.47,-0.33 -0.64,-0.63 -1.41,-0.7 0.03,1.32 0.79,3.12 2.28,3.15z"/>
   <path class="fil0" d="M78.61 9.43c0,0.7 0.78,2.67 2.1,2.97 0.14,-1.66 0.96,-1.45 -0.62,-2.52 -0.15,-0.11 -1.48,-1.38 -1.48,-0.45z"/>
   <path class="fil1" d="M51.01 54.68c0.87,1.19 3.87,1.15 4.72,0 -3.16,-0.74 -1.65,-0.71 -4.72,0z"/>
   <path class="fil0" d="M17.99 10.48c0,0.32 0.42,1.69 0.53,1.92 0.87,-0.23 1.78,-2.46 1.83,-2.74 0.2,-1.19 -0.23,-0.36 -1.66,0.29 -0.22,0.1 -0.7,0.27 -0.7,0.53z"/>
   <path class="fil1" d="M74.6 102.55c0.73,-0.18 1.28,-0.54 1.88,-0.91 0.76,-0.46 1.35,-0.4 1.43,-1.36 -1.95,0 -3.31,-0.04 -3.31,2.27z"/>
   <path class="fil0" d="M81.93 10.48c0,0.32 0.42,1.69 0.53,1.92 0.64,-0.17 0.34,-0.06 0.65,-0.56 0.56,-0.93 1.09,-1.67 1.09,-2.76 -0.06,0.02 -2.27,1.17 -2.27,1.4z"/>
   <path class="fil1" d="M22.01 97.83c1.73,0.4 0.53,1.11 2.96,0.34 0.73,-0.24 0.7,0 0.88,-0.69 -1.11,-0.02 -1.1,-0.52 -2.27,-0.52 -0.72,0 -1.27,0.43 -1.57,0.87z"/>
   <path class="fil1" d="M70.05 92.41c0.96,1.43 1.91,1.82 3.5,1.05 -1.12,-1.66 -2.44,-1.29 -3.5,-1.05z"/>
   <path class="fil0" d="M17.12 75.99c0.89,-1.86 0.12,-2.32 -1.92,-2.79 0.02,0.82 0.25,1.11 0.62,1.65 0.47,0.69 0.6,0.78 1.3,1.14z"/>
   <path class="fil1" d="M20.09 33.54l1.19 1.27c0.53,0.45 1.11,0.02 1.95,-0.05 -0.05,-0.67 -0.2,-0.73 -0.68,-1.06 -0.94,-0.62 -1.46,-0.65 -2.46,-0.16z"/>
   <path class="fil1" d="M84.03 33.54c1.32,1.98 1.92,1.33 3.14,1.22 -0.07,-0.93 0.13,-0.2 -0.24,-0.63 -0.79,-0.91 -1.81,-1.13 -2.9,-0.59z"/>
   <path class="fil0" d="M79.49 75.82c0.58,-0.55 0.52,-1.15 0.52,-1.92 -1.53,-0.36 -1.11,-0.65 -2.1,-0.88 0.02,0.71 0.19,1.12 0.47,1.64 0.49,0.91 0.55,1.01 1.11,1.16z"/>
   <path class="fil0" d="M80.88 74.07c0,0.62 -0.1,3.02 0.94,1.47 0.3,-0.44 0.08,-0.27 0.5,-0.73 0.78,-0.84 0.82,-0.75 0.84,-1.61l-2.28 0.87z"/>
   <path class="fil1" d="M14.15 91.37c0.79,1.51 1.31,1.75 2.97,0.87 -1.31,-1.96 -2.29,-1.03 -2.97,-0.87z"/>
   <path class="fil0" d="M18.69 75.82c0.87,-0.1 0.25,0.24 0.72,-0.5 0.14,-0.22 0.29,-0.52 0.48,-0.75 1.71,-2.12 0.01,-1.04 -0.37,-0.9 -0.31,0.12 -1.8,0.11 -0.83,2.15z"/>
   <path class="fil1" d="M17.64 16.95c0.91,0 0.7,-1.5 0.7,-2.45 -1.28,0 -1.55,-0.14 -1.31,1.12 0.08,0.47 0.22,1.33 0.61,1.33z"/>
   <path class="fil1" d="M95.04 35.46l1.57 0c0.44,-0.66 0.79,-0.55 0.87,-1.57 -1.3,-0.31 -2.11,0.15 -2.44,1.57z"/>
   <path class="fil1" d="M80.88 14.85c0,0.79 0.2,1.45 0.35,2.1 0.81,-0.02 0.66,0.17 0.9,-0.5l0.15 -1.95c-0.52,0 -1.4,-0.12 -1.4,0.35z"/>
   <path class="fil1" d="M88.57 93.81c0.35,-0.03 1.51,-0.17 1.78,-0.31 0.41,-0.22 0.51,-0.55 1.19,-0.74l0 -0.52c-1.18,0 -2.5,-0.2 -2.97,1.57z"/>
   <path class="fil1" d="M31.1 35.46c3.28,0 2.5,-1.74 2.09,-1.74 -1.56,0 -1.73,1.05 -2.09,1.74z"/>
   <path class="fil1" d="M73.55 16.07c1.06,-0.71 1.35,-2.85 0,-2.97 -0.14,0.59 -0.12,0.82 -0.23,1.54 -0.13,0.87 -0.19,0.64 0.23,1.43z"/>
   <path class="fil1" d="M9.61 16.07c1.18,-0.79 1.27,-2.86 0,-2.97 -0.21,0.91 -0.45,2.04 0,2.97z"/>
   <path class="fil1" d="M9.96 78.96c0.68,-0.18 0.39,-0.08 0.7,-0.69 0.31,-0.62 1.13,-1.11 -0.35,-2.1 -0.42,0.88 -0.59,1.77 -0.35,2.79z"/>
   <path class="fil1" d="M61.14 51.01c0,0.47 0.09,0.48 0.18,0.87 0.95,0.23 0.95,0.49 1.57,-0.69 -0.41,-0.78 -0.1,-0.47 -0.87,-0.88 -0.24,0.13 -0.88,0.38 -0.88,0.7z"/>
   <path class="fil1" d="M44.02 59.22c0,0.3 0.24,0.65 0.35,0.88l1.05 0c0.5,-0.94 0.61,-1.58 -1.05,-1.58 -0.03,0.07 -0.35,0.68 -0.35,0.7z"/>
   <path class="fil1" d="M61.14 59.22c0,1.28 1.09,0.81 1.58,0.7 0,-0.92 0,-0.26 0.17,-0.52 -0.21,-0.39 -0.29,-0.53 -0.52,-0.88 -0.46,0 -1.23,-0.09 -1.23,0.7z"/>
   <path class="fil1" d="M44.02 51.36c0,0.02 0.76,1.69 1.75,-0.17 -0.41,-0.78 -0.1,-0.47 -0.87,-0.88 -0.44,0.23 -0.88,0.4 -0.88,1.05z"/>
   <path class="fil1" d="M17.12 78.26c0,0.7 0.36,0.87 0.52,1.58 0.63,-0.06 0.62,-0.03 0.79,-0.61 0.14,-0.47 0.09,-0.8 0.09,-1.32 -1.28,0.34 -1.4,-0.27 -1.4,0.35z"/>
   <path class="fil1" d="M80.19 79.66c0.68,0 1.3,-1.92 0.35,-1.92l-0.7 0c-0.07,0.75 -0.1,0.35 -0.05,0.93 0.03,0.43 0.01,0.99 0.4,0.99z"/>
   <polygon class="fil1" points="45.25,68.66 47.34,68.66 47.34,67.78 45.25,67.78 "/>
   <polygon class="fil1" points="59.22,68.66 61.14,68.66 61.14,67.78 59.22,67.78 "/>
   <path class="fil1" d="M72.85 78.44c1.18,-0.32 1.61,-1.72 0.52,-2.45 -0.33,0.7 -0.22,1.82 -0.52,2.45z"/>
  </g>
  <g id="_1526471506032">
   <path class="fil2" d="M194.22 60l7.33 -0.01 0.17 -20.64c3.23,-3.06 10.85,-6.05 11.34,1.55 0.39,5.99 -0.55,13.29 0.18,19.07l7.35 -0.02 0.09 -21.27c0.98,-0.38 10.67,-6.62 11.44,2.31 0.51,5.88 -0.61,13.35 0.24,19.01l7.14 -0.01c0.65,-4.88 0.83,-22.58 -1.31,-25.97 -5.24,-8.28 -14.1,-3 -18.85,-0.18 -0.55,-0.43 -0.29,-0.25 -0.86,-0.85l-2.5 -2.24c-1.54,-0.87 -3.45,-1.17 -5.38,-1.08 -5.36,0.26 -6.32,2.72 -9.45,3.78 -2.06,-1.49 -2.45,-2.91 -6.96,-4.23l0.03 30.78z"/>
   <path class="fil2" d="M304.73 99.29c3.89,-3 10.72,-5.6 11.33,2.4 0.45,5.96 -0.37,12.59 0.16,18.6l7.31 -0.19 0.09 -21.11c2.17,-0.79 4.13,-2.75 7.44,-2.51 7.02,0.5 2.6,12.88 4.16,23.82l7.22 -0.01c0.6,-5.04 0.86,-22.4 -1.39,-25.93 -4.92,-7.75 -12.77,-4.11 -18.81,-0.19l-1.17 -1.13c-2.32,-2.33 -3.94,-3.46 -8.06,-3.12 -4.08,0.34 -6.28,2.64 -8.96,3.87 -2.88,-2.05 -2.43,-2.97 -6.99,-4.21l0.2 30.72 7.29 -0.03 0.18 -20.98z"/>
   <path class="fil2" d="M351.32 60.16c1.9,-0.01 7.89,1.02 9.93,1.54 3.96,1.01 5.52,4.18 1.32,6.04 -5.69,2.52 -16.88,0.31 -11.25,-7.58zm4.53 -25.79c7.19,-1.57 9.12,9.32 2.67,10.7 -7.68,1.64 -8.74,-9.37 -2.67,-10.7zm-6.46 14.34c-0.47,0.72 -0.14,0.24 -0.75,0.9 -4.12,4.48 -2.5,5.31 -0.81,8.68 -5.58,1.97 -7.33,9.32 -1.2,13.32 5.71,3.73 21.22,3.52 24.93,-4.25 1.78,-3.71 0.28,-6.67 -1.77,-8.52 -4.37,-3.93 -12.47,-1.66 -16.82,-5.45 -0.42,-6.4 6.07,0.92 13.16,-5.48 3.99,-3.6 4.36,-8.91 1.49,-14.17 3.67,-0.71 4.42,-1.78 5.33,-5.08 -11.59,-0.87 -27.89,-2.18 -28.12,10.69 -0.1,5.27 2.25,7.28 4.56,9.36z"/>
   <path class="fil2" d="M147.37 91.07c0.7,-1.53 -1.1,2.01 0.39,-0.71l5.15 13.45 -9.9 -0.06 4.36 -12.68zm-10.76 29.21c0.96,-1.77 1.52,-3.61 2.24,-5.51 0.34,-0.91 0.58,-1.77 0.94,-2.69 1.37,-3.5 2.28,-2.16 15.68,-2.12 0.95,3.24 2.22,7.67 4.03,10.29l7.96 -0.04 -16.51 -41.36 -5.41 0c-1.84,1.06 -7.51,17.36 -8.62,20.49 -2.34,6.57 -6.25,14.61 -7.84,20.94l7.53 0z"/>
   <path class="fil2" d="M252.66 53.78c-0.39,-2.98 -0.56,-14.75 0.17,-17.29 7.12,-2.57 11.87,1.07 11.88,8.06 0.01,7.17 -4.8,10.65 -12.05,9.23zm-7.69 4.57c7.79,4.19 23.36,3.14 26.93,-9.58 1.63,-5.82 -0.17,-12.14 -3.42,-15.42 -4.25,-4.3 -9.03,-4.18 -15.99,-3.22l0 -14.55 -7.5 -0.06 -0.02 42.83z"/>
   <path class="fil2" d="M332.37 36.51c0.29,4.37 0.28,10.95 0.13,15.37 -0.1,3.05 -1.67,2.97 -5.03,2.56 -12.56,-1.56 -9.12,-22.37 4.9,-17.93zm0.07 -20.02l0 13.36c-4.42,0.38 -9.94,-1.15 -15.63,4.07 -3.22,2.96 -5.58,9.18 -4.21,15.61 2.44,11.46 16.16,13.2 27.32,9.18l0.02 -42.91 -7.5 0.69z"/>
   <path class="fil2" d="M162.21 57.54c-1.01,-2.22 -1.35,-3.05 -1.53,-5.85 -5.25,2.3 -10.66,4.18 -16.78,1.25 -4.17,-1.99 -7.29,-6.9 -7.15,-13.58 0.15,-6.5 3.25,-10.99 7.61,-13.15 7.23,-3.58 11.46,-0.01 17.04,0.96l0 -6.71c-16.61,-7.4 -32.87,3.61 -32.65,19.94 0.12,9.02 3.97,14.75 10.13,18.08 6,3.25 18.12,3.37 23.33,-0.94z"/>
   <path class="fil2" d="M181.08 52.35c-2.32,3.19 -8.98,3.63 -9.86,-0.72 -1.14,-5.65 5.81,-5.09 9.87,-5.2l-0.01 5.92zm-15.63 -19.66l2.06 4.51c4.58,-0.52 14.19,-5.33 13.64,3.98 -4.76,0.65 -8.25,0.1 -12.53,2.01 -3.22,1.44 -5.73,4.6 -5.04,9.68 0.85,6.21 7.42,9.22 13.68,7.27 2.56,-0.79 2.84,-1.59 4.66,-2.71 1.81,0.57 3.74,2.42 6.93,3.42 -0.04,-6.53 1.16,-22.15 -1.65,-26.78 -3.92,-6.45 -15.22,-4.75 -21.75,-1.38z"/>
   <path class="fil2" d="M384.71 99.59c16.59,-11.28 10.55,9.81 11.91,20.7l7.23 0c0.69,-4.86 0.7,-22.61 -1.22,-26.2 -4.93,-9.22 -18.41,-0.33 -18.54,-0.28 -2.39,-2.07 -3.16,-3.16 -6.93,-4.26l0.19 30.74 7.35 0 0.01 -20.7z"/>
   <path class="fil2" d="M380.83 42.15c0.89,-9.08 10.6,-9.08 11.48,-0.03l-11.48 0.03zm18.15 15.83l-2.22 -4.96c-3.24,1.11 -6.22,2.52 -10.18,1.48 -3.16,-0.83 -5.72,-3.45 -5.47,-7.15l18.74 0c-0.03,-6.85 -1.23,-14.78 -8.78,-17.01 -8.57,-2.53 -14.64,2.17 -16.77,8.59 -2.34,7.08 -0.26,15.21 4.33,18.87 4.89,3.92 14.94,3.63 20.35,0.18z"/>
   <path class="fil2" d="M354.03 102.27c0.34,-3.79 1.68,-6.45 5.64,-6.53 4.05,-0.09 5.49,2.95 5.84,6.65l-11.48 -0.12zm16.06 10.87c-3.45,1.21 -6.17,2.7 -10.42,1.54 -3.25,-0.88 -5.36,-3.16 -5.5,-7.11l18.88 -0.18c-0.03,-8.49 -1.94,-14.62 -8.92,-16.89 -6.75,-2.19 -13.67,0.76 -16.44,8.08 -3.07,8.11 -0.28,15.79 4.41,19.55 5.99,4.79 13.73,2.62 20.22,0.28l-2.23 -5.27z"/>
   <path class="fil2" d="M224.59 102.29c0.35,-3.84 1.64,-6.48 5.67,-6.55 4,-0.07 5.45,2.98 5.82,6.64l-11.49 -0.09zm16.07 10.85c-3.35,1.05 -6.14,2.77 -10.4,1.55 -3.21,-0.92 -5.42,-3.31 -5.51,-7.12l18.86 -0.22c-0.03,-8.84 -2.11,-14.59 -8.89,-16.84 -16.56,-5.47 -23.56,18.83 -12,27.59 6.22,4.73 13.44,2.83 20.13,0.3l-2.19 -5.26z"/>
   <path class="fil2" d="M272.87 113.2l-1.63 5.58c7.49,3.08 20.15,3.46 21.75,-4.71 1.06,-5.46 -1.32,-8.36 -4.64,-10.16 -4.09,-2.23 -9.22,-1.6 -8.77,-7.06 3.87,-1.83 6.82,-0.7 10.91,0.14l1.47 -5.54c-15.86,-6.26 -24.04,5.52 -18.28,12.58 2.51,3.07 11.18,4.39 12.05,7.26 2.08,6.9 -12.85,1.91 -12.86,1.91z"/>
   <path class="fil2" d="M206.3 110.49c0.92,7.92 -9.49,3.46 -12.95,2.49 -0.9,1.52 -1.52,3.73 -1.5,5.75 21.24,8.32 27.81,-9.23 17,-14.84 -1.74,-0.9 -3.71,-1.46 -5.54,-2.25 -2.48,-1.06 -3.67,-1.49 -3.09,-4.56 3.15,-2.04 7.23,-0.92 10.99,-0.06l1.51 -5.74c-23.31,-5.83 -22.92,10.73 -15.88,14.75 3.27,1.86 6.54,2.32 9.46,4.46z"/>
   <path class="fil2" d="M429.3 118.87l0 -1.02 -2.02 -4.28c-9.18,3.08 -7.86,1.21 -7.64,-16.87 7.78,-1.36 5.1,0.88 9,-5.6l-9.02 -0.48c-0.76,-6.2 1.07,-7.66 -1.23,-8.76l-6.1 1.86 -0.25 6.92 -5.23 0 0.09 5.84 5.3 0.01c0.1,4.72 -0.77,17.59 0.99,20.81 2.89,5.29 10.77,3.71 16.11,1.57z"/>
   <path class="fil2" d="M247.94 113.02l-1.42 5.99c8.24,1.97 19.12,4.25 21.65,-4.84 3.29,-11.8 -11.73,-10.15 -13.61,-15.57 1.17,-4.53 7.32,-2.34 11.03,-1.69l1.62 -5.58c-18.69,-6.3 -28.12,10.11 -12.17,16.26 2.34,0.9 5.3,1.61 5.86,3.65 0.9,3.24 -2.27,3.85 -5.16,3.81 -3.56,-0.04 -4.97,-1.39 -7.8,-2.03z"/>
   <path class="fil2" d="M168.86 112.95c1.66,6.2 1.42,8.02 8.39,8 13.62,-0.03 15.11,-12.08 7.78,-16.62 -3.88,-2.4 -10.13,-1.98 -9.39,-7.43 3.62,-1.89 6.92,-0.66 10.88,0.07l1.49 -5.79c-5.25,-1.11 -10.89,-2.33 -15.74,0.36 -4.35,2.42 -6.01,8.57 -2.32,12.8 2.38,2.73 11.05,4.15 11.78,6.94 0.78,2.93 -2.39,3.77 -5,3.77 -3.13,0.01 -5.31,-1.29 -7.87,-2.1z"/>
   <path class="fil2" d="M284.23 33.46c-2.37,-3.12 1.4,-3.13 -7.47,-2.93l0.01 29.34 7.47 0.25c0.63,-13.44 -2.28,-20.85 3.36,-23.71 3.3,-1.68 4.88,-0.38 7.79,0.55l-0.13 -6.73c-7.24,-0.96 -7.45,0.62 -11.03,3.23z"/>
   <polygon class="fil2" points="299.73,58.06 299.79,60.11 307.25,60.1 307.35,58.06 307.34,30.4 299.73,30.41 "/>
   <path class="fil2" d="M302.24 16.99c-6.3,2.46 -2.4,10.29 2.9,8.4 5.63,-2 2.63,-10.56 -2.9,-8.4z"/>
   <path class="fil2" d="M428.64 91.1c-0.43,-0.94 0.36,-0.77 -4.01,-0.71 -1.54,0.01 -3.1,0 -4.64,0l0.01 -8.86c-3.16,-0.72 -0.39,-0.17 -1.61,0.33 2.3,1.1 0.47,2.56 1.23,8.76l9.02 0.48z"/>
  </g>
  <path class="fil3" d="M138.26 8.17c1.95,0 3.36,-1 3.56,-2.97l-1.77 0c-0.14,1.02 -0.83,1.52 -1.82,1.52 -1.3,0 -2.06,-0.95 -2.06,-2.59l0 -0.09c0,-1.64 0.8,-2.62 2.05,-2.62 1,0 1.53,0.51 1.67,1.46l1.84 0c-0.19,-1.95 -1.61,-2.88 -3.52,-2.88 -2.25,0 -3.94,1.64 -3.94,4.05l0 0.09c0,2.44 1.39,4.03 3.99,4.03z"/>
  <polygon id="_1" class="fil3" points="142.98,8.05 148.33,8.05 148.33,6.66 144.77,6.66 144.77,4.68 147.47,4.68 147.47,3.37 144.77,3.37 144.77,1.52 148.15,1.52 148.15,0.12 142.98,0.12 "/>
  <path id="_2" class="fil3" d="M149.58 8.05l1.79 0 0 -3.06 0.77 0 1.9 3.06 1.91 0 -2.1 -3.37c0.93,-0.28 1.63,-0.91 1.63,-2.11l0 -0.04c0,-1.64 -1.18,-2.41 -3.06,-2.41l-2.84 0 0 7.93zm1.79 -4.28l0 -2.27 1.01 0c0.86,0 1.35,0.27 1.35,1.08l0 0.05c0,0.76 -0.46,1.14 -1.35,1.14l-1.01 0z"/>
  <polygon id="_3" class="fil3" points="158.42,8.05 160.23,8.05 160.23,1.52 162.37,1.52 162.37,0.12 156.28,0.12 156.28,1.52 158.42,1.52 "/>
  <polygon id="_4" class="fil3" points="163.53,8.05 165.34,8.05 165.34,0.12 163.53,0.12 "/>
  <polygon id="_5" class="fil3" points="167.1,8.05 168.89,8.05 168.89,4.98 171.5,4.98 171.5,3.63 168.89,3.63 168.89,1.53 172.19,1.53 172.19,0.12 167.1,0.12 "/>
  <polygon id="_6" class="fil3" points="173.43,8.05 175.24,8.05 175.24,0.12 173.43,0.12 "/>
  <polygon id="_7" class="fil3" points="176.99,8.05 182.34,8.05 182.34,6.66 178.78,6.66 178.78,4.68 181.48,4.68 181.48,3.37 178.78,3.37 178.78,1.52 182.16,1.52 182.16,0.12 176.99,0.12 "/>
  <path id="_8" class="fil3" d="M185.39 6.66l0 -5.14 0.71 0c1.67,0 2.37,0.88 2.37,2.51l0 0.09c0,1.64 -0.75,2.54 -2.35,2.54l-0.73 0zm-1.8 1.39l2.58 0c2.79,0 4.17,-1.58 4.17,-3.96l0 -0.09c0,-2.37 -1.37,-3.88 -4.15,-3.88l-2.6 0 0 7.93z"/>
  <path id="_9" class="fil3" d="M194.1 8.05l3.27 0c1.83,0 2.78,-0.76 2.78,-2.22l0 -0.04c0,-1.06 -0.55,-1.65 -1.59,-1.86 0.89,-0.26 1.29,-0.87 1.29,-1.7l0 -0.04c0,-1.36 -0.9,-2.07 -2.63,-2.07l-3.12 0 0 7.93zm1.76 -1.24l0 -2.27 1.14 0c0.98,0 1.38,0.37 1.38,1.11l0 0.04c0,0.72 -0.4,1.12 -1.29,1.12l-1.23 0zm0 -3.43l0 -2.03 1.06 0c0.85,0 1.22,0.3 1.22,0.97l0 0.04c0,0.71 -0.34,1.02 -1.21,1.02l-1.07 0z"/>
  <polygon id="_10" class="fil3" points="203.04,8.05 204.85,8.05 204.85,4.64 207.33,0.12 205.59,0.12 204.01,3.16 202.4,0.12 200.43,0.12 203.04,4.64 "/>
 </g>
</svg>
