<?xml version="1.0" encoding="UTF-8"?>
<!DOCTYPE svg PUBLIC "-//W3C//DTD SVG 1.1//EN" "http://www.w3.org/Graphics/SVG/1.1/DTD/svg11.dtd">
<!-- Creator: CorelDRAW -->
<svg xmlns="http://www.w3.org/2000/svg" xml:space="preserve" width="338px" height="150px" version="1.1" style="shape-rendering:geometricPrecision; text-rendering:geometricPrecision; image-rendering:optimizeQuality; fill-rule:evenodd; clip-rule:evenodd"
viewBox="0 0 60.79 27.01"
 xmlns:xlink="http://www.w3.org/1999/xlink"
 xmlns:xodm="http://www.corel.com/coreldraw/odm/2003">
 <defs>
  <style type="text/css">
   <![CDATA[
    .fil0 {fill:#555555}
    .fil1 {fill:#2B2A29;fill-rule:nonzero}
   ]]>
  </style>
 </defs>
 <g id="Layer_x0020_1">
  <metadata id="CorelCorpID_0Corel-Layer"/>
  <g id="_1490969566464">
   <path class="fil0" d="M25.49 12.54c1.05,0 1.72,0.15 2.54,0.65 0.37,0.22 0.79,0.6 1.04,0.94l0.38 0.61c0.42,0.95 0.27,0.93 0.42,1.57l-8.61 0c0,-0.26 0.1,-0.62 0.17,-0.83 0.16,-0.48 0.35,-0.92 0.67,-1.31 0.16,-0.19 0.31,-0.36 0.5,-0.53 0.35,-0.31 0.79,-0.57 1.22,-0.76 0.43,-0.18 1.07,-0.34 1.67,-0.34zm-8.48 5.14c0,1.11 0,1.5 0.23,2.6 0.19,0.94 0.72,2.26 1.32,3.05 0.08,0.11 0.13,0.2 0.21,0.31l0.78 0.88c2.37,2.37 6.04,2.97 9.29,2.04 1.13,-0.32 1.99,-0.78 2.85,-1.43l0.48 -0.4c0.12,-0.11 0.32,-0.31 0.42,-0.43 0.6,-0.75 0.92,-1.09 1.29,-2.15 0.06,-0.19 0.21,-0.54 -0.13,-0.54l-3.7 0c-0.2,0 -0.3,0.28 -0.5,0.56 -0.67,0.93 -2.13,1.46 -3.3,1.46l-0.55 0c-1.3,0 -2.7,-0.85 -3.29,-1.59 -0.42,-0.54 -0.77,-1.08 -0.95,-1.79 -0.06,-0.24 -0.17,-0.64 -0.17,-0.94l12.69 0c0.31,0 0.24,-0.4 0.24,-0.79 0,-2.27 -0.43,-4.1 -1.7,-5.97 -0.22,-0.32 -0.29,-0.36 -0.5,-0.62 -0.63,-0.79 -1.6,-1.41 -2.51,-1.86 -0.89,-0.43 -2.27,-0.82 -3.58,-0.82 -0.94,0 -1.46,0.02 -2.37,0.25 -0.58,0.14 -1.07,0.31 -1.57,0.53 -0.67,0.28 -1.68,0.91 -2.22,1.46 -0.26,0.26 -0.53,0.51 -0.77,0.8l-0.45 0.6c-0.9,1.34 -1.54,2.96 -1.54,4.79z"/>
   <path class="fil0" d="M46.18 14.47c0,0.84 0.07,1.44 0.43,2.13 0.25,0.48 0.58,0.86 0.99,1.2 0.49,0.42 0.75,0.57 1.33,0.86 0.46,0.23 1.05,0.44 1.6,0.58 1.55,0.38 3.54,0.53 4.93,1.09 0.34,0.13 0.78,0.36 0.98,0.64 0.26,0.37 0.3,0.57 0.3,1.02 0,1.37 -1.87,1.84 -2.92,1.84 -1.17,0 -2.04,-0.14 -2.9,-0.74 -0.53,-0.37 -0.79,-0.84 -0.99,-1.43 -0.09,-0.26 -0.03,-0.45 -0.37,-0.45l-3.38 0c-0.22,0 -0.3,0.07 -0.3,0.23 0,0.42 0.2,0.99 0.31,1.33 0.19,0.6 0.5,1.13 0.87,1.6 0.06,0.08 0.12,0.16 0.19,0.23 0.34,0.35 0.39,0.46 0.85,0.81 1.39,1.06 3.26,1.56 5.12,1.6l0.48 0c0.91,-0.02 1.81,-0.15 2.63,-0.38 0.41,-0.11 0.79,-0.24 1.15,-0.42 0.1,-0.04 0.17,-0.06 0.27,-0.11l0.74 -0.45c0.16,-0.12 0.3,-0.21 0.45,-0.34 0.15,-0.13 0.27,-0.24 0.41,-0.38 0.26,-0.25 0.67,-0.78 0.85,-1.11 0.05,-0.1 0.09,-0.15 0.14,-0.26 0.27,-0.58 0.43,-1.26 0.45,-1.95l0 -0.35c-0.03,-0.89 -0.28,-1.76 -0.81,-2.39 -0.91,-1.1 -2.1,-1.61 -3.43,-2.06 -1.62,-0.54 -4.14,-0.68 -5.37,-1.2 -0.48,-0.2 -1.01,-0.56 -1.01,-1.17 0,-0.42 0,-0.79 0.34,-1.15 0.22,-0.22 0.36,-0.34 0.64,-0.49 1.2,-0.67 3.36,-0.52 4.35,0.28 0.07,0.06 0.13,0.09 0.19,0.16 0.26,0.24 0.45,0.5 0.6,0.83 0.06,0.13 0.12,0.46 0.27,0.46l3.56 0c0.14,0 0.2,-0.07 0.2,-0.21 0,-0.63 -0.47,-1.63 -0.82,-2.15 -0.23,-0.35 -0.54,-0.72 -0.85,-1.02 -0.39,-0.39 -1.06,-0.85 -1.54,-1.09 -0.16,-0.08 -0.32,-0.15 -0.5,-0.22 -0.18,-0.08 -0.36,-0.14 -0.56,-0.2 -1.37,-0.39 -1.88,-0.42 -3.31,-0.42 -0.44,0 -0.93,0.06 -1.33,0.13 -0.21,0.04 -0.4,0.08 -0.6,0.13 -0.21,0.05 -0.4,0.11 -0.59,0.17 -0.83,0.24 -1.73,0.72 -2.37,1.3 -0.08,0.06 -0.12,0.08 -0.19,0.16 -0.07,0.06 -0.13,0.12 -0.19,0.19 -0.77,0.82 -1.29,1.97 -1.29,3.17z"/>
   <path class="fil0" d="M36.96 5.69l0 3.94 -2.57 0c-0.17,0 -0.29,0.06 -0.29,0.23l0 2.77c0,0.14 0.09,0.23 0.23,0.23l2.63 0 0 9.57c0,0.48 0.07,1.01 0.16,1.41 0.05,0.23 0.1,0.41 0.18,0.61 0.14,0.35 0.32,0.72 0.58,0.99 0.67,0.69 1.85,1.06 2.82,1.16 0.22,0.02 1.29,0.07 1.49,0.04 0.38,-0.05 1.15,-0.01 1.57,-0.01l0.75 -0.03c0.29,0 0.56,0.02 0.56,-0.26l0 -2.77c0,-0.27 -0.23,-0.26 -0.5,-0.26 -0.58,0 -1.85,0.03 -2.28,-0.06 -1,-0.2 -1.16,-0.85 -1.16,-1.96l0 -8.43 3.7 0c0.18,0 0.24,-0.11 0.24,-0.29l0 -2.68c0,-0.15 -0.12,-0.26 -0.26,-0.26l-3.68 0 0 -3.88c0,-0.14 -0.09,-0.24 -0.23,-0.24l-3.77 0c-0.07,0 -0.17,0.11 -0.17,0.18z"/>
   <path class="fil0" d="M7.35 5.72c-0.13,-0.09 -2.58,-2.57 -2.89,-2.88 -0.52,-0.52 -0.26,-0.48 -1.62,-0.03 -0.2,0.07 -0.38,0.13 -0.57,0.19 -0.4,0.13 -0.72,0.2 -0.29,0.62l0.74 0.75c0.34,0.34 0.66,0.66 1.01,1 0.15,0.16 1.9,1.88 1.99,2.01l-4.38 0c-0.21,0 -0.29,-0.02 -0.38,0.12l-0.81 1.63c-0.08,0.14 -0.13,0.25 -0.15,0.34l0 0.08c0.03,0.1 0.17,0.13 0.53,0.13l5.19 0 -2.87 2.88c-0.6,0.6 -0.51,0.18 0.16,2.28 0.02,0.08 0.07,0.24 0.1,0.31 0.04,0.09 0.14,0.16 0.25,0.12 0.11,-0.04 7.38,-7.35 8.04,-8.01l2.8 -2.8c0.53,-0.54 0.49,-0.22 0.02,-1.62 -0.08,-0.26 -0.27,-1.06 -0.45,-1.06 -0.2,0 -0.37,0.24 -0.58,0.44l-1.5 1.51c-0.16,0.15 -1.88,1.9 -2.01,1.99 0,-1.31 0,-2.61 0,-3.91 0,-1.01 0.07,-0.67 -0.78,-1.17 -0.13,-0.07 -1.26,-0.64 -1.32,-0.64 -0.27,0 -0.23,0.38 -0.23,0.5l0 5.22z"/>
   <path class="fil0" d="M7.35 13.07l0 2.71c0,0.29 0.19,0.32 0.4,0.42 0.2,0.1 0.35,0.19 0.55,0.29 1.53,0.76 1.38,0.87 1.38,-0.68l0 -4.46c0.14,0.09 2.73,2.7 3.03,3.01 0.09,0.08 0.22,0.25 0.35,0.25 0.06,-0.01 0.37,-0.12 0.46,-0.15 0.17,-0.06 0.3,-0.1 0.46,-0.16l0.93 -0.29c0.25,-0.09 0.35,-0.06 0.35,-0.33 0,-0.11 -1.85,-1.89 -1.97,-2 -0.15,-0.16 -1.89,-1.87 -1.97,-2l4.37 0.01c0.42,0 0.38,-0.14 0.7,-0.79l0.33 -0.63c0.09,-0.17 0.32,-0.56 0.32,-0.71 0,-0.08 -0.11,-0.18 -0.18,-0.18l-3.94 0c-0.1,0 -1.33,1.29 -1.42,1.38l-3.86 3.86c-0.13,0.13 -0.29,0.21 -0.29,0.45z"/>
  </g>
  <path class="fil1" d="M15.37 1.73l0.39 0 0 -0.63 0.22 0c0.39,0 0.65,-0.17 0.65,-0.54l0 -0.01c0,-0.36 -0.24,-0.55 -0.66,-0.55l-0.6 0 0 1.73zm0.39 -0.9l0 -0.53 0.2 0c0.18,0 0.29,0.07 0.29,0.25l0 0.01c0,0.17 -0.1,0.27 -0.29,0.27l-0.2 0z"/>
  <path id="_1" class="fil1" d="M16.63 1.73l0.36 0 0.12 -0.39 0.63 0 0.12 0.39 0.41 0 -0.56 -1.73 -0.51 0 -0.57 1.73zm0.8 -1.41l0.22 0.75 -0.45 0 0.23 -0.75z"/>
  <path id="_2" class="fil1" d="M18.5 1.73l0.39 0 0 -0.67 0.17 0 0.41 0.67 0.42 0 -0.46 -0.74c0.21,-0.06 0.36,-0.2 0.36,-0.46l0 -0.01c0,-0.35 -0.26,-0.52 -0.67,-0.52l-0.62 0 0 1.73zm0.39 -0.94l0 -0.49 0.22 0c0.19,0 0.3,0.06 0.3,0.24l0 0.01c0,0.16 -0.1,0.24 -0.3,0.24l-0.22 0z"/>
  <polygon id="_3" class="fil1" points="20.43,1.73 20.82,1.73 20.82,0.3 21.29,0.3 21.29,0 19.96,0 19.96,0.3 20.43,0.3 "/>
  <polygon id="_4" class="fil1" points="21.53,1.73 21.88,1.73 21.88,0.5 22.6,1.73 22.99,1.73 22.99,0 22.64,0 22.64,1.14 21.99,0 21.53,0 "/>
  <polygon id="_5" class="fil1" points="23.36,1.73 24.53,1.73 24.53,1.42 23.75,1.42 23.75,0.99 24.34,0.99 24.34,0.71 23.75,0.71 23.75,0.3 24.49,0.3 24.49,0 23.36,0 "/>
  <path id="_6" class="fil1" d="M24.8 1.73l0.39 0 0 -0.67 0.17 0 0.41 0.67 0.42 0 -0.46 -0.74c0.2,-0.06 0.36,-0.2 0.36,-0.46l0 -0.01c0,-0.35 -0.26,-0.52 -0.67,-0.52l-0.62 0 0 1.73zm0.39 -0.94l0 -0.49 0.22 0c0.19,0 0.29,0.06 0.29,0.24l0 0.01c0,0.16 -0.1,0.24 -0.29,0.24l-0.22 0z"/>
  <polygon id="_7" class="fil1" points="26.42,1.73 27.59,1.73 27.59,1.42 26.81,1.42 26.81,0.99 27.4,0.99 27.4,0.71 26.81,0.71 26.81,0.3 27.55,0.3 27.55,0 26.42,0 "/>
  <path id="_8" class="fil1" d="M28.25 1.42l0 -1.12 0.16 0c0.36,0 0.51,0.2 0.51,0.55l0 0.02c0,0.36 -0.16,0.55 -0.51,0.55l-0.16 0zm-0.39 0.31l0.56 0c0.61,0 0.91,-0.35 0.91,-0.87l0 -0.01c0,-0.52 -0.3,-0.85 -0.9,-0.85l-0.57 0 0 1.73z"/>
  <polygon id="_9" class="fil1" points="30.44,1.73 30.81,1.73 31.13,0.53 31.44,1.73 31.84,1.73 32.26,0 31.9,0 31.62,1.2 31.31,0 30.98,0 30.68,1.19 30.41,0 30.02,0 "/>
  <polygon id="_10" class="fil1" points="32.51,1.73 32.9,1.73 32.9,0 32.51,0 "/>
  <polygon id="_11" class="fil1" points="33.62,1.73 34.01,1.73 34.01,0.3 34.48,0.3 34.48,0 33.15,0 33.15,0.3 33.62,0.3 "/>
  <polygon id="_12" class="fil1" points="34.72,1.73 35.12,1.73 35.12,1.01 35.81,1.01 35.81,1.73 36.2,1.73 36.2,0 35.81,0 35.81,0.71 35.12,0.71 35.12,0 34.72,0 "/>
 </g>
</svg>
