<?xml version="1.0" encoding="UTF-8"?>
<!DOCTYPE svg PUBLIC "-//W3C//DTD SVG 1.1//EN" "http://www.w3.org/Graphics/SVG/1.1/DTD/svg11.dtd">
<!-- Creator: CorelDRAW -->
<svg xmlns="http://www.w3.org/2000/svg" xml:space="preserve" width="305px" height="150px" version="1.1" style="shape-rendering:geometricPrecision; text-rendering:geometricPrecision; image-rendering:optimizeQuality; fill-rule:evenodd; clip-rule:evenodd"
viewBox="0 0 19.08 9.4"
 xmlns:xlink="http://www.w3.org/1999/xlink"
 xmlns:xodm="http://www.corel.com/coreldraw/odm/2003">
 <defs>
  <style type="text/css">
   <![CDATA[
    .fil1 {fill:#2B2A29;fill-rule:nonzero}
    .fil0 {fill:#555555;fill-rule:nonzero}
   ]]>
  </style>
 </defs>
 <g id="Layer_x0020_1">
  <metadata id="CorelCorpID_0Corel-Layer"/>
  <path class="fil0" d="M6.9 6.43c-0.21,-0.3 -0.49,-0.56 -0.8,-0.74 -0.43,-0.25 -1.03,-0.23 -1.03,-0.23 -0.17,0.41 -0.64,0.59 -1.04,0.41 -0.01,0 -0.01,-0.01 -0.02,-0.01 -0.46,0.6 -0.42,1.11 -0.41,1.14 0.02,0.78 0.77,2.39 3.79,2.4 0.01,-0.06 0.26,-1.99 -0.49,-2.97z"/>
  <path class="fil0" d="M4.46 2.35c-0.84,-0.82 -2.39,-1.13 -4.38,-0.24 0.01,0.02 0.6,2.55 3.27,2.95l0.01 0c0.06,0 0.12,0.01 0.2,0.02l0 0c0.03,-0.42 0.37,-0.73 0.79,-0.73 0.08,0 0.18,0.01 0.26,0.04 0.77,-1.16 -0.06,-1.96 -0.15,-2.04z"/>
  <path class="fil0" d="M4.02 5.86l0 0c-0.28,-0.13 -0.46,-0.41 -0.46,-0.71 0,-0.03 0,-0.05 0,-0.07 -0.13,-0.02 -0.27,-0.02 -0.41,-0.02 -0.69,0.01 -1.37,0.24 -1.93,0.66 -1.12,0.88 -1.22,2.31 -1.22,2.31 0.06,0 2.04,0.27 3.25,-0.92 0.12,-0.13 0.23,-0.26 0.32,-0.42 0,0 0.04,-0.05 0.09,-0.13l0 0c0.07,-0.25 0.19,-0.49 0.36,-0.7l0 0z"/>
  <path class="fil0" d="M17.05 3.42c-0.58,0 -1.08,0.24 -1.38,0.64l0 -0.19c0,-0.25 -0.2,-0.45 -0.45,-0.45l0 0c-0.25,0 -0.45,0.2 -0.45,0.45l0 5.07c0,0.25 0.21,0.46 0.46,0.46l0 0c0.25,0 0.45,-0.21 0.45,-0.46l0 -1.79c0.36,0.39 0.86,0.61 1.38,0.59 1.03,0 2.02,-0.76 2.02,-2.17 0.01,-1.43 -1.05,-2.15 -2.03,-2.15zm-0.1 3.5c-0.63,0 -1.27,-0.46 -1.27,-1.36 0,-0.88 0.63,-1.32 1.26,-1.32 0.64,0 1.25,0.43 1.25,1.33 0,0.89 -0.61,1.35 -1.24,1.35z"/>
  <path class="fil0" d="M11.8 7.75c0.59,0 1.08,-0.24 1.38,-0.64l0 0.19c0,0.25 0.2,0.44 0.45,0.44l0 0c0.25,0 0.45,-0.2 0.45,-0.44l0 -5.07c0,-0.25 -0.2,-0.46 -0.45,-0.46l0 0c-0.26,0 -0.46,0.21 -0.46,0.46l0 1.78c-0.36,-0.38 -0.86,-0.6 -1.39,-0.59 -1.02,0 -2.02,0.76 -2.02,2.17 0,1.44 1.07,2.16 2.04,2.16zm0.1 -3.49c0.63,0 1.27,0.45 1.27,1.35 0,0.89 -0.63,1.33 -1.26,1.33 -0.62,0 -1.24,-0.43 -1.24,-1.33 0,-0.9 0.6,-1.35 1.23,-1.35z"/>
  <path class="fil0" d="M8.77 1.58c-0.36,-0.01 -0.65,0.27 -0.66,0.62 0,0.02 0,0.03 0,0.03 0,0.36 0.27,0.64 0.63,0.66 0.01,0 0.02,0 0.03,0 0.35,0.01 0.65,-0.28 0.66,-0.64 0,0 0,-0.01 0,-0.02 0,-0.35 -0.29,-0.65 -0.64,-0.65 -0.01,0 -0.02,0 -0.02,0z"/>
  <path class="fil0" d="M8.77 3.42l0 0c-0.25,0 -0.46,0.21 -0.46,0.46l0 3.43 0 0c0.01,0.24 0.21,0.44 0.46,0.44l0 0c0.24,0 0.44,-0.2 0.45,-0.44l0 0 0 -0.02 0 0 0 -3.41c0,-0.25 -0.2,-0.46 -0.45,-0.46z"/>
  <path class="fil1" d="M0.19 0.6l0.14 0 0 -0.22 0.07 0c0.14,0 0.23,-0.06 0.23,-0.18l0 -0.01c0,-0.13 -0.08,-0.19 -0.23,-0.19l-0.21 0 0 0.6zm0.14 -0.31l0 -0.19 0.07 0c0.06,0 0.1,0.03 0.1,0.09l0 0.01c0,0.06 -0.04,0.09 -0.1,0.09l-0.07 0z"/>
  <path id="_1" class="fil1" d="M0.63 0.6l0.13 0 0.04 -0.13 0.22 0 0.04 0.13 0.14 0 -0.2 -0.6 -0.17 0 -0.2 0.6zm0.28 -0.49l0.08 0.26 -0.16 0 0.08 -0.26z"/>
  <path id="_2" class="fil1" d="M1.28 0.6l0.14 0 0 -0.23 0.06 0 0.14 0.23 0.14 0 -0.15 -0.25c0.07,-0.03 0.12,-0.07 0.12,-0.16l0 -0.01c0,-0.12 -0.09,-0.18 -0.23,-0.18l-0.22 0 0 0.6zm0.14 -0.32l0 -0.18 0.07 0c0.07,0 0.11,0.03 0.11,0.09l0 0c0,0.06 -0.04,0.09 -0.11,0.09l-0.07 0z"/>
  <polygon id="_3" class="fil1" points="1.95,0.6 2.09,0.6 2.09,0.11 2.25,0.11 2.25,0 1.79,0 1.79,0.11 1.95,0.11 "/>
  <polygon id="_4" class="fil1" points="2.34,0.6 2.46,0.6 2.46,0.17 2.71,0.6 2.84,0.6 2.84,0 2.72,0 2.72,0.4 2.49,0 2.34,0 "/>
  <polygon id="_5" class="fil1" points="2.97,0.6 3.38,0.6 3.38,0.5 3.11,0.5 3.11,0.35 3.31,0.35 3.31,0.25 3.11,0.25 3.11,0.11 3.37,0.11 3.37,0 2.97,0 "/>
  <path id="_6" class="fil1" d="M3.47 0.6l0.14 0 0 -0.23 0.06 0 0.14 0.23 0.15 0 -0.16 -0.25c0.07,-0.03 0.12,-0.07 0.12,-0.16l0 -0.01c0,-0.12 -0.09,-0.18 -0.23,-0.18l-0.22 0 0 0.6zm0.14 -0.32l0 -0.18 0.08 0c0.06,0 0.1,0.03 0.1,0.09l0 0c0,0.06 -0.04,0.09 -0.1,0.09l-0.08 0z"/>
  <polygon id="_7" class="fil1" points="4.04,0.6 4.44,0.6 4.44,0.5 4.17,0.5 4.17,0.35 4.38,0.35 4.38,0.25 4.17,0.25 4.17,0.11 4.43,0.11 4.43,0 4.04,0 "/>
  <path id="_8" class="fil1" d="M4.68 0.5l0 -0.39 0.05 0c0.13,0 0.18,0.06 0.18,0.19l0 0c0,0.13 -0.06,0.2 -0.18,0.2l-0.05 0zm-0.14 0.1l0.2 0c0.21,0 0.31,-0.12 0.31,-0.3l0 -0.01c0,-0.18 -0.1,-0.29 -0.31,-0.29l-0.2 0 0 0.6z"/>
  <polygon id="_9" class="fil1" points="5.44,0.6 5.57,0.6 5.68,0.19 5.79,0.6 5.93,0.6 6.07,0 5.95,0 5.85,0.42 5.74,0 5.62,0 5.52,0.42 5.43,0 5.29,0 "/>
  <polygon id="_10" class="fil1" points="6.16,0.6 6.29,0.6 6.29,0 6.16,0 "/>
  <polygon id="_11" class="fil1" points="6.55,0.6 6.68,0.6 6.68,0.11 6.84,0.11 6.84,0 6.38,0 6.38,0.11 6.55,0.11 "/>
  <polygon id="_12" class="fil1" points="6.93,0.6 7.07,0.6 7.07,0.35 7.31,0.35 7.31,0.6 7.44,0.6 7.44,0 7.31,0 7.31,0.25 7.07,0.25 7.07,0 6.93,0 "/>
 </g>
</svg>
