<?xml version="1.0" encoding="UTF-8"?>
<!DOCTYPE svg PUBLIC "-//W3C//DTD SVG 1.1//EN" "http://www.w3.org/Graphics/SVG/1.1/DTD/svg11.dtd">
<!-- Creator: CorelDRAW -->
<svg xmlns="http://www.w3.org/2000/svg" xml:space="preserve" width="369px" height="150px" version="1.1" style="shape-rendering:geometricPrecision; text-rendering:geometricPrecision; image-rendering:optimizeQuality; fill-rule:evenodd; clip-rule:evenodd"
viewBox="0 0 45.16 18.37"
 xmlns:xlink="http://www.w3.org/1999/xlink"
 xmlns:xodm="http://www.corel.com/coreldraw/odm/2003">
 <defs>
  <style type="text/css">
   <![CDATA[
    .fil0 {fill:#555555}
    .fil1 {fill:#2B2A29;fill-rule:nonzero}
    .fil2 {fill:#555555;fill-rule:nonzero}
   ]]>
  </style>
 </defs>
 <g id="Layer_x0020_1">
  <metadata id="CorelCorpID_0Corel-Layer"/>
  <polygon class="fil0" points="22.17,4.9 28.77,4.88 28.77,1.9 19.01,1.9 19.01,18.35 28.77,18.33 28.76,15.35 22.15,15.35 22.17,11.58 27.83,11.57 27.82,8.6 22.15,8.6 "/>
  <path class="fil0" d="M2.96 10.73c0.26,2.77 2.74,5 5.87,4.72 2.74,-0.25 4.96,-2.83 4.66,-5.91 -0.25,-2.72 -2.73,-5.06 -5.87,-4.72 -2.76,0.3 -4.96,2.75 -4.66,5.91z"/>
  <polygon class="fil0" points="30.52,4.9 34.88,4.91 34.88,18.35 38.01,18.32 38.03,4.9 42.38,4.88 42.38,1.9 30.51,1.91 "/>
  <path class="fil0" d="M0 18.35c1.81,0 4.47,0.06 6.19,-0.02 -0.38,-0.17 -0.82,-0.25 -1.21,-0.42 -1.16,-0.49 -1.9,-1.05 -2.75,-1.88 -0.52,-0.52 -0.92,-1 -1.33,-1.75 -0.68,-1.26 -0.59,-1.61 -0.88,-2.21l-0.02 0.54 0 5.74z"/>
  <path class="fil0" d="M10.22 1.94c1.75,0.49 3.11,1.3 4.01,2.27 0.59,0.63 2.13,2.72 2.17,4.07 0.12,-0.61 0.05,-5.35 0.05,-6.38l-6.23 0.04z"/>
  <path class="fil0" d="M0.02 8.18c0.17,-0.37 0.25,-0.83 0.4,-1.23 0.41,-1.01 1.11,-2.08 1.84,-2.79 1.69,-1.63 2.26,-1.49 3.93,-2.26l-6.19 0 0.02 6.28z"/>
  <path class="fil0" d="M16.43 12.06c-0.35,0.79 -0.44,1.48 -0.91,2.27 -1.16,1.96 -2.9,3.38 -5.3,4.02l6.23 0 -0.02 -6.29z"/>
  <path class="fil1" d="M0.72 1.21c0.29,0 0.5,-0.15 0.52,-0.44l-0.26 0c-0.02,0.15 -0.12,0.23 -0.27,0.23 -0.19,0 -0.3,-0.15 -0.3,-0.39l0 -0.01c0,-0.25 0.12,-0.39 0.3,-0.39 0.15,0 0.23,0.08 0.25,0.22l0.27 0c-0.03,-0.29 -0.24,-0.43 -0.52,-0.43 -0.33,0 -0.58,0.24 -0.58,0.6l0 0.01c0,0.36 0.2,0.6 0.59,0.6z"/>
  <polygon id="_1" class="fil1" points="1.42,1.19 2.21,1.19 2.21,0.99 1.68,0.99 1.68,0.69 2.08,0.69 2.08,0.5 1.68,0.5 1.68,0.23 2.18,0.23 2.18,0.02 1.42,0.02 "/>
  <path id="_2" class="fil1" d="M2.39 1.19l0.27 0 0 -0.45 0.11 0 0.29 0.45 0.28 0 -0.31 -0.5c0.14,-0.04 0.24,-0.13 0.24,-0.31l0 -0.01c0,-0.24 -0.18,-0.35 -0.45,-0.35l-0.43 0 0 1.17zm0.27 -0.63l0 -0.34 0.15 0c0.13,0 0.2,0.04 0.2,0.16l0 0.01c0,0.11 -0.07,0.17 -0.2,0.17l-0.15 0z"/>
  <polygon id="_3" class="fil1" points="3.7,1.19 3.97,1.19 3.97,0.23 4.29,0.23 4.29,0.02 3.39,0.02 3.39,0.23 3.7,0.23 "/>
  <polygon id="_4" class="fil1" points="4.46,1.19 4.73,1.19 4.73,0.02 4.46,0.02 "/>
  <polygon id="_5" class="fil1" points="4.99,1.19 5.26,1.19 5.26,0.74 5.64,0.74 5.64,0.54 5.26,0.54 5.26,0.23 5.74,0.23 5.74,0.02 4.99,0.02 "/>
  <polygon id="_6" class="fil1" points="5.93,1.19 6.2,1.19 6.2,0.02 5.93,0.02 "/>
  <polygon id="_7" class="fil1" points="6.46,1.19 7.25,1.19 7.25,0.99 6.72,0.99 6.72,0.69 7.12,0.69 7.12,0.5 6.72,0.5 6.72,0.23 7.22,0.23 7.22,0.02 6.46,0.02 "/>
  <path id="_8" class="fil1" d="M7.7 0.99l0 -0.76 0.1 0c0.25,0 0.36,0.12 0.36,0.37l0 0.01c0,0.24 -0.12,0.38 -0.35,0.38l-0.11 0zm-0.27 0.2l0.39 0c0.41,0 0.61,-0.23 0.61,-0.58l0 -0.02c0,-0.35 -0.2,-0.57 -0.61,-0.57l-0.39 0 0 1.17z"/>
  <path id="_9" class="fil1" d="M8.99 1.19l0.48 0c0.28,0 0.42,-0.11 0.42,-0.33l0 0c0,-0.16 -0.09,-0.25 -0.24,-0.28 0.13,-0.04 0.19,-0.13 0.19,-0.25l0 -0.01c0,-0.2 -0.13,-0.3 -0.39,-0.3l-0.46 0 0 1.17zm0.26 -0.18l0 -0.34 0.17 0c0.14,0 0.2,0.06 0.2,0.17l0 0c0,0.11 -0.06,0.17 -0.19,0.17l-0.18 0zm0 -0.51l0 -0.3 0.16 0c0.12,0 0.18,0.04 0.18,0.14l0 0.01c0,0.11 -0.05,0.15 -0.18,0.15l-0.16 0z"/>
  <polygon id="_10" class="fil1" points="10.32,1.19 10.58,1.19 10.58,0.69 10.95,0.02 10.69,0.02 10.46,0.47 10.22,0.02 9.93,0.02 10.32,0.69 "/>
  <path class="fil2" d="M43.89 3.38l0.22 0c0.12,0 0.17,-0.05 0.17,-0.15 0,-0.09 -0.06,-0.15 -0.17,-0.15l-0.22 0 0 0.3zm0 0.21l0 0.41 -0.25 0 0 -1.12 0.53 0c0.24,0 0.37,0.16 0.37,0.35 0,0.16 -0.1,0.27 -0.22,0.31l0 0.01c0.01,0.02 0.03,0.03 0.06,0.11l0.19 0.34 -0.29 0 -0.19 -0.37c-0.02,-0.03 -0.03,-0.04 -0.07,-0.04l-0.13 0 0 0zm1.03 -0.14c0,-0.46 -0.38,-0.88 -0.85,-0.88 -0.47,0 -0.85,0.41 -0.85,0.88 0,0.46 0.38,0.87 0.85,0.87 0.47,0 0.85,-0.4 0.85,-0.87zm-1.94 0c0,-0.62 0.48,-1.1 1.09,-1.1 0.6,0 1.09,0.46 1.09,1.1 0,0.63 -0.5,1.09 -1.09,1.09 -0.6,0 -1.09,-0.49 -1.09,-1.09zm0 0z"/>
 </g>
</svg>
