<?xml version="1.0" encoding="UTF-8"?>
<!DOCTYPE svg PUBLIC "-//W3C//DTD SVG 1.1//EN" "http://www.w3.org/Graphics/SVG/1.1/DTD/svg11.dtd">
<!-- Creator: CorelDRAW -->
<svg xmlns="http://www.w3.org/2000/svg" xml:space="preserve" width="499px" height="150px" version="1.1" style="shape-rendering:geometricPrecision; text-rendering:geometricPrecision; image-rendering:optimizeQuality; fill-rule:evenodd; clip-rule:evenodd"
viewBox="0 0 43.71 13.14"
 xmlns:xlink="http://www.w3.org/1999/xlink"
 xmlns:xodm="http://www.corel.com/coreldraw/odm/2003">
 <defs>
  <style type="text/css">
   <![CDATA[
    .fil2 {fill:#2B2A29;fill-rule:nonzero}
    .fil0 {fill:#555555;fill-rule:nonzero}
    .fil1 {fill:white;fill-rule:nonzero}
   ]]>
  </style>
 </defs>
 <g id="Layer_x0020_1">
  <metadata id="CorelCorpID_0Corel-Layer"/>
  <g id="_1526471218608">
   <path class="fil0" d="M25.97 8.6c-0.11,0.14 -0.44,0.57 -0.87,0.57 -0.57,0 -0.68,-0.4 -0.68,-0.73 0,-0.55 0.42,-0.81 1.55,-1.09l0 1.25zm1.4 0.68c-0.01,-0.05 -0.06,-0.07 -0.1,-0.06l-0.01 0c-0.13,0.03 -0.23,0.02 -0.3,-0.02 -0.1,-0.07 -0.15,-0.22 -0.15,-0.47l0 -2.21c0,-0.86 -0.52,-1.3 -1.53,-1.3 -0.91,0 -1.62,0.43 -1.62,0.98 0,0.28 0.17,0.49 0.42,0.52 0.17,0.02 0.33,-0.06 0.44,-0.18 0.23,-0.23 0.2,-0.51 -0.07,-0.82 0.16,-0.16 0.44,-0.26 0.76,-0.26 0.53,0 0.76,0.31 0.76,1.04l0 0.56c-0.13,0.04 -0.24,0.08 -0.45,0.13 -0.43,0.1 -1.02,0.23 -1.46,0.48 -0.37,0.2 -0.55,0.51 -0.55,0.93 0,0.46 0.3,1 1.15,1 0.48,0 0.91,-0.22 1.35,-0.71 0.03,0.51 0.23,0.69 0.69,0.69 0.22,0 0.4,-0.05 0.61,-0.15 0.06,-0.03 0.09,-0.1 0.06,-0.15z"/>
   <path class="fil0" d="M36.84 5.43c-0.53,0 -1.12,0.22 -1.12,1.97 0,1.34 0.39,1.98 1.2,1.98 0.77,0 1.12,-0.61 1.12,-1.98 0,-1.32 -0.39,-1.97 -1.2,-1.97zm0.04 4.19c-1.2,0 -2.11,-0.94 -2.11,-2.2 0,-1.23 0.94,-2.23 2.11,-2.23 1.18,0 2.11,0.97 2.11,2.19 0,1.39 -1.09,2.24 -2.11,2.24z"/>
   <g>
    <path class="fil0" d="M16.01 8.73l0 -1.6 0.62 0c0.92,0 1.62,-0.19 2.08,-0.57 0.48,-0.4 0.58,-0.91 0.58,-1.27 0,-1.46 -1.41,-1.77 -2.6,-1.77l0.01 0 -2.4 0c-0.06,0 -0.1,0.05 -0.1,0.1l0 0.01 0 0c0,0.05 0.03,0.09 0.08,0.11 0.21,0.08 0.79,-0.03 0.79,0.59l0 4.4c0,0.32 -0.14,0.55 -0.79,0.61 -0.05,0 -0.09,0.05 -0.09,0.1l0 0.01c0,0.06 0.05,0.1 0.1,0.1l2.56 0c0.06,0 0.1,-0.04 0.1,-0.1l0 -0.01c0,-0.05 -0.04,-0.1 -0.09,-0.1 -0.7,-0.06 -0.85,-0.27 -0.85,-0.61l0 -1.59 0 1.59zm2.22 -3.46c0,1.02 -0.25,1.58 -1.54,1.58l-0.68 0 0 -3.07 0.71 0c1.33,0 1.51,0.75 1.51,1.49z"/>
   </g>
   <path class="fil0" d="M20.15 6.85c0.1,-0.91 0.45,-1.41 1.01,-1.41 0.29,0 0.49,0.07 0.64,0.23 0.2,0.22 0.29,0.62 0.26,1.18l-1.91 0zm1.08 -1.66c-1.12,0 -2.03,1.01 -2.03,2.25 0,1.26 0.86,2.17 2.03,2.17 0.98,0 1.46,-0.58 1.74,-1.03 0.03,-0.04 0.01,-0.1 -0.03,-0.13l-0.01 -0.01c-0.04,-0.03 -0.1,-0.02 -0.14,0.02 -0.36,0.46 -0.68,0.72 -1.22,0.72 -0.7,0 -1.44,-0.48 -1.44,-1.82l0 -0.01c0,-0.06 0,-0.14 0.01,-0.21l2.83 0c0.01,0 0.01,-0.01 0.02,-0.02l0 -0.02c0.04,-0.55 -0.12,-1.04 -0.44,-1.39 -0.32,-0.34 -0.77,-0.52 -1.32,-0.52z"/>
   <path class="fil0" d="M32.98 6.9c0,0 0,0 0,0 -0.78,-0.21 -1.08,-0.43 -1.08,-0.78 0,-0.4 0.31,-0.68 0.75,-0.68 0.5,0 0.72,0.24 1.26,1.14l0.01 0.01c0,0 0.01,0.01 0.01,0.01l0.07 0c0.06,0 0.1,-0.05 0.1,-0.1l0 -1.29c0,-0.01 0,-0.02 -0.01,-0.02l-0.1 0c-0.03,0 -0.06,0.02 -0.08,0.04l-0.17 0.21c-0.21,-0.12 -0.57,-0.25 -0.92,-0.25 -0.89,0 -1.51,0.55 -1.51,1.34 0,0.74 0.49,1.02 1.33,1.25 0.83,0.22 1.12,0.45 1.12,0.89 0,0.48 -0.47,0.7 -0.8,0.7 -0.62,0 -0.88,-0.23 -1.48,-1.29l0 -0.02c-0.01,0 -0.01,-0.01 -0.02,-0.01l-0.07 0c-0.06,0 -0.1,0.05 -0.1,0.1l0 1.45c0,0.01 0.01,0.01 0.01,0.01l0.1 0c0.03,0 0.06,-0.01 0.07,-0.02l0.28 -0.28c0.31,0.2 0.79,0.3 1.1,0.3 0.46,0 0.84,-0.14 1.1,-0.42 0.23,-0.25 0.35,-0.6 0.35,-0.99 0,-0.67 -0.36,-1.02 -1.32,-1.3z"/>
   <path class="fil0" d="M28.29 9.03c0,0.22 -0.06,0.3 -0.42,0.32 -0.05,0 -0.09,0.05 -0.09,0.1 0,0.05 0.05,0.1 0.1,0.1l1.75 0c0.06,0 0.1,-0.05 0.1,-0.1 0,-0.05 -0.04,-0.1 -0.09,-0.1 -0.41,-0.02 -0.51,-0.08 -0.51,-0.32l0 -2.57c0.29,-0.48 0.49,-0.73 0.84,-0.81 -0.01,0.06 -0.02,0.14 -0.02,0.19 0,0.32 0.21,0.53 0.53,0.53 0.3,0 0.52,-0.21 0.52,-0.53 0,-0.29 -0.19,-0.64 -0.71,-0.64 -0.42,0 -0.83,0.25 -1.18,0.83l0 -0.66c0,-0.07 -0.06,-0.12 -0.12,-0.12l-1.11 0.03c-0.05,0 -0.09,0.05 -0.09,0.1l0 0.01c0,0.05 0.03,0.09 0.08,0.1 0.37,0.05 0.42,0.23 0.42,0.41l0 3.13z"/>
   <path class="fil0" d="M40.42 5.25c0.02,0 0.05,0.01 0.07,0.03 0.01,0.01 0.03,0.04 0.03,0.07l0 0.73c0,0 0.36,-0.86 1.53,-0.86l0.01 0c0.73,0 1.14,0.46 1.14,1.27l0 2.54c0,0.22 0.06,0.29 0.42,0.32 0.05,0 0.09,0.04 0.09,0.09 0,0.06 -0.05,0.1 -0.1,0.1l-1.58 0c-0.05,0 -0.1,-0.04 -0.1,-0.1 0,-0.05 0.04,-0.09 0.09,-0.1 0.29,-0.02 0.34,-0.09 0.34,-0.31l0 -2.29c0,-0.75 -0.22,-1.05 -0.77,-1.05 -0.37,0 -0.68,0.33 -0.87,0.6 0,0 -0.09,0.12 -0.2,0.35l0.01 2.39c0,0.22 0.05,0.29 0.33,0.31 0.05,0.01 0.09,0.05 0.09,0.1 0,0.06 -0.05,0.1 -0.1,0.1l-1.57 0c-0.05,0 -0.1,-0.04 -0.1,-0.1 0,-0.05 0.04,-0.09 0.09,-0.09 0.36,-0.03 0.42,-0.1 0.42,-0.32l0 -3.13c0,-0.18 -0.05,-0.36 -0.43,-0.41 -0.04,-0.01 -0.08,-0.05 -0.08,-0.1l0 -0.01c0,-0.06 0.04,-0.1 0.1,-0.1l1.14 -0.03z"/>
  </g>
  <path class="fil0" d="M9.39 0.85c2.78,1.58 3.42,5.13 1.49,8.72 -1.7,3.15 -5.41,4.5 -8.17,2.89 -2.76,-1.6 -3.3,-6.09 -2.12,-8.67 1.73,-3.74 5.73,-4.69 8.8,-2.94z"/>
  <path class="fil1" d="M5.81 10.2c-0.08,-0.07 -0.18,-0.11 -0.27,-0.13 -0.04,-0.01 -0.07,-0.01 -0.1,-0.01 -0.18,0 -0.36,0.1 -0.48,0.26 -0.09,0.14 -0.13,0.31 -0.11,0.47 0.02,0.1 0.06,0.19 0.12,0.26 0.06,0.07 0.16,0.13 0.28,0.16 0.07,0.02 0.14,0.03 0.21,0.03l0 0c0.16,0 0.3,-0.04 0.4,-0.13 0.13,-0.11 0.2,-0.25 0.2,-0.42 0,-0.19 -0.09,-0.37 -0.25,-0.49zm3.51 -6.63c0.55,0.58 0.72,1.46 0.62,2.18 -0.11,0.83 -0.61,1.59 -1.44,2.09 -0.65,0.4 -1.52,0.56 -2.37,0.57 -0.01,0.14 -0.03,0.6 -0.05,0.68 -0.02,0.1 -0.06,0.16 -0.1,0.22 -0.09,0.12 -0.25,0.2 -0.41,0.24 -0.13,0.04 -0.25,0.06 -0.34,0.06 -0.01,0 -0.03,-0.01 -0.04,-0.01 -0.09,-0.01 -0.2,-0.05 -0.26,-0.12 -0.06,-0.07 -0.1,-0.16 -0.11,-0.26l0 -0.1c-0.02,-0.08 -0.12,-4.08 -0.1,-4.01 0.01,-0.48 0.79,-0.56 1.21,-0.48 0.42,0.09 0.31,0.6 0.3,1.23 0,0 -0.02,0.83 -0.06,1.7 0.54,-0.02 0.96,-0.17 1.36,-0.37 0.81,-0.4 1.23,-1.01 1.23,-1.91 0,-0.91 -0.88,-1.91 -2.49,-1.91 -1.62,0 -2.32,0.4 -3.1,1.05 -0.18,0.15 -0.31,0.3 -0.44,0.39 -0.13,0.1 -0.47,0.11 -0.57,-0.11 -0.11,-0.28 0.1,-0.58 0.22,-0.73 0.19,-0.23 0.66,-0.7 1.18,-0.97 0.6,-0.31 1.33,-0.64 2.34,-0.67 0.92,-0.02 2.37,0.05 3.42,1.23l0 0.01z"/>
  <path class="fil2" d="M14.61 2.51l0.2 0 0 -0.32 0.11 0c0.19,0 0.32,-0.08 0.32,-0.26l0 -0.01c0,-0.18 -0.12,-0.27 -0.33,-0.27l-0.3 0 0 0.86zm0.2 -0.45l0 -0.26 0.1 0c0.09,0 0.14,0.03 0.14,0.12l0 0.01c0,0.08 -0.05,0.13 -0.14,0.13l-0.1 0z"/>
  <path id="_1" class="fil2" d="M15.24 2.51l0.18 0 0.06 -0.19 0.31 0 0.06 0.19 0.2 0 -0.28 -0.86 -0.25 0 -0.28 0.86zm0.39 -0.7l0.12 0.37 -0.23 0 0.11 -0.37z"/>
  <path id="_2" class="fil2" d="M16.17 2.51l0.19 0 0 -0.33 0.09 0 0.2 0.33 0.21 0 -0.23 -0.37c0.1,-0.03 0.18,-0.1 0.18,-0.23l0 0c0,-0.18 -0.13,-0.26 -0.33,-0.26l-0.31 0 0 0.86zm0.19 -0.47l0 -0.24 0.11 0c0.09,0 0.15,0.03 0.15,0.11l0 0.01c0,0.08 -0.05,0.12 -0.15,0.12l-0.11 0z"/>
  <polygon id="_3" class="fil2" points="17.13,2.51 17.32,2.51 17.32,1.8 17.55,1.8 17.55,1.65 16.89,1.65 16.89,1.8 17.13,1.8 "/>
  <polygon id="_4" class="fil2" points="17.67,2.51 17.85,2.51 17.85,1.9 18.2,2.51 18.4,2.51 18.4,1.65 18.23,1.65 18.23,2.21 17.9,1.65 17.67,1.65 "/>
  <polygon id="_5" class="fil2" points="18.58,2.51 19.16,2.51 19.16,2.36 18.78,2.36 18.78,2.14 19.07,2.14 19.07,2 18.78,2 18.78,1.8 19.14,1.8 19.14,1.65 18.58,1.65 "/>
  <path id="_6" class="fil2" d="M19.3 2.51l0.19 0 0 -0.33 0.08 0 0.21 0.33 0.21 0 -0.23 -0.37c0.1,-0.03 0.18,-0.1 0.18,-0.23l0 0c0,-0.18 -0.13,-0.26 -0.34,-0.26l-0.3 0 0 0.86zm0.19 -0.47l0 -0.24 0.11 0c0.09,0 0.15,0.03 0.15,0.11l0 0.01c0,0.08 -0.05,0.12 -0.15,0.12l-0.11 0z"/>
  <polygon id="_7" class="fil2" points="20.1,2.51 20.68,2.51 20.68,2.36 20.3,2.36 20.3,2.14 20.59,2.14 20.59,2 20.3,2 20.3,1.8 20.66,1.8 20.66,1.65 20.1,1.65 "/>
  <path id="_8" class="fil2" d="M21.01 2.36l0 -0.56 0.08 0c0.18,0 0.26,0.09 0.26,0.27l0 0.01c0,0.18 -0.09,0.28 -0.26,0.28l-0.08 0zm-0.19 0.15l0.28 0c0.3,0 0.45,-0.18 0.45,-0.43l0 -0.01c0,-0.26 -0.15,-0.42 -0.45,-0.42l-0.28 0 0 0.86z"/>
  <polygon id="_9" class="fil2" points="22.1,2.51 22.28,2.51 22.44,1.91 22.6,2.51 22.79,2.51 23,1.65 22.82,1.65 22.68,2.24 22.53,1.65 22.37,1.65 22.22,2.24 22.08,1.65 21.89,1.65 "/>
  <polygon id="_10" class="fil2" points="23.12,2.51 23.32,2.51 23.32,1.65 23.12,1.65 "/>
  <polygon id="_11" class="fil2" points="23.68,2.51 23.87,2.51 23.87,1.8 24.1,1.8 24.1,1.65 23.45,1.65 23.45,1.8 23.68,1.8 "/>
  <polygon id="_12" class="fil2" points="24.23,2.51 24.42,2.51 24.42,2.15 24.76,2.15 24.76,2.51 24.96,2.51 24.96,1.65 24.76,1.65 24.76,2 24.42,2 24.42,1.65 24.23,1.65 "/>
 </g>
</svg>
