<?xml version="1.0" encoding="UTF-8"?>
<!DOCTYPE svg PUBLIC "-//W3C//DTD SVG 1.1//EN" "http://www.w3.org/Graphics/SVG/1.1/DTD/svg11.dtd">
<!-- Creator: CorelDRAW -->
<svg xmlns="http://www.w3.org/2000/svg" xml:space="preserve" width="462px" height="150px" version="1.1" style="shape-rendering:geometricPrecision; text-rendering:geometricPrecision; image-rendering:optimizeQuality; fill-rule:evenodd; clip-rule:evenodd"
viewBox="0 0 191.2 62.09"
 xmlns:xlink="http://www.w3.org/1999/xlink"
 xmlns:xodm="http://www.corel.com/coreldraw/odm/2003">
 <defs>
  <style type="text/css">
   <![CDATA[
    .fil0 {fill:#555555}
    .fil1 {fill:#2B2A29;fill-rule:nonzero}
   ]]>
  </style>
 </defs>
 <g id="Layer_x0020_1">
  <metadata id="CorelCorpID_0Corel-Layer"/>
  <g id="_1526520592064">
   <path class="fil0" d="M58.63 34.56c-5.2,0.37 -12.13,-0.02 -17.73,0.07 -1.82,0.03 -1.43,-0.15 -0.96,-1.69 3.77,-12.26 17.99,-8.9 18.69,1.62zm-11.81 27.02c2,-0.05 5.96,-0.11 7.87,0.03 3.36,0.19 9.93,-2.24 13,-4.5 0.99,-0.74 2.5,-2.45 3.14,-2.77l1.03 0.71c6.45,4.6 14.72,7.44 22.85,6.47 4.44,-0.53 8.38,-2.46 10.54,-5.07 2.34,-2.84 3.94,-7.81 2.74,-12.58 -2.94,-11.7 -23.5,-10.13 -22.38,-16.41 0.33,-1.86 2.88,-2.74 5.2,-2.59 5.37,0.35 10.49,3.99 11.79,4.15l4.72 -8.74c-1.46,-1.74 -7.61,-4 -10.5,-4.66 -7.99,-1.82 -17.41,-0.46 -21.47,7.16 -1.8,3.4 -1.91,9.08 -0.14,12.49 4.61,8.89 20.51,7.77 21.4,12.51 0.73,3.9 -4.36,4.31 -7.25,3.84 -2.82,-0.46 -5.71,-1.85 -7.9,-3.39 -0.56,-0.4 -1.75,-1.29 -2.31,-1.47l-8.32 7.05c-0.7,-0.19 -0.87,-0.44 -1.29,-0.79 -0.48,-0.41 -0.59,-0.45 -1.14,-0.85l-4.44 -3.48c-0.69,-0.52 -1.59,-1.46 -2.44,-1.78 -1.8,1.17 -1.64,1.85 -5.12,3.47 -3.7,1.72 -10.18,1.63 -13.56,-1.76 -0.95,-0.95 -3,-3.65 -2.96,-5.79l31.13 -0.01c1.37,-5.19 -1.04,-15.63 -5.02,-20.51 -0.74,-0.91 -1.34,-1.44 -2.13,-2.23 -4.25,-4.23 -9.79,-5.5 -16.6,-5.25 -6.02,0.22 -11.27,3.53 -14.55,7.3 -8.23,9.43 -8.05,25.47 1.97,34.26 2.09,1.83 8.19,5.44 12.14,5.19z"/>
   <path class="fil0" d="M145.59 35.95c0.56,0.63 0.52,2.25 0.49,3.11 -0.03,0.97 -0.13,2.17 -0.61,2.82 -0.75,5.55 -7.24,10 -13.44,8.64 -13.42,-2.93 -12.29,-23.74 1.18,-24.59 7.47,-0.47 12.55,6.04 12.38,10.02zm-15.14 25.6c2.14,-0.06 5.14,-0.01 7.33,0.02 2.63,0.09 6.9,-1.74 8.83,-2.78 13.76,-7.42 16.32,-27.11 4.62,-37.75 -3.96,-3.6 -9.38,-6.21 -16.83,-6.21 -5.81,0 -10.96,1.43 -15.41,4.85 -13.29,10.25 -12.02,31.07 2.76,39.15 1.75,0.96 6.34,2.93 8.7,2.72z"/>
   <path class="fil0" d="M0.34 49.64c-0.44,2.76 2.06,6.89 3.29,8.29 6.62,7.51 23.89,2.81 26.08,-1.05 -0.21,-0.67 -1.06,-1.61 -1.5,-2.14l-4.72 -6.01c-2.54,0.52 -3.33,2.22 -7.3,1.6 -3.05,-0.49 -3.14,-2.66 -3.14,-5.73l0 -15.65c-0.01,-1.28 -0.17,-1.6 0.23,-1.94 0.84,-0.49 10.03,0.01 12.04,-0.22l-0.04 -10.93 -12.11 0.02c-0.74,-1.17 -0.08,-12.94 -0.31,-15.45l-12.5 0 -0.02 49.21z"/>
   <path class="fil0" d="M161.75 48.63c-0.25,2.8 2,6.88 3.27,8.33 6.28,7.14 22.4,3.65 26.18,-0.87 -0.13,-0.72 -3.74,-5.04 -4.61,-6.24 -0.53,-0.73 -1.01,-1.44 -1.69,-2.07 -1.77,0.5 -2.94,1.73 -5.54,1.79 -2.32,0.05 -4.5,-0.82 -4.67,-2.89 -0.73,-0.6 -0.33,-9.22 -0.33,-10.79 0,-3.66 0.18,-31.77 -0.08,-32.8l-12.51 0.04 -0.02 45.5z"/>
   <path class="fil0" d="M161.75 48.63l0.02 -45.5 12.51 -0.04c0.26,1.03 0.08,29.14 0.08,32.8 0,1.57 -0.4,10.19 0.33,10.79 -0.24,-2.15 -0.06,-28.24 -0.06,-32.78 0,-2.16 0.28,-9.42 -0.11,-11 -0.93,-0.24 -11.88,-0.22 -12.9,0 -0.34,1.3 -0.12,35.06 -0.11,40.12 0,0.92 -0.01,1.85 -0.01,2.77 0,0.46 -0.01,0.93 -0.01,1.39l0.19 1.3c0.01,0.04 0.04,0.1 0.07,0.15z"/>
   <path class="fil0" d="M0.34 49.64l0.02 -49.21 12.5 0c0.23,2.51 -0.43,14.28 0.31,15.45 -0.22,-2.43 0.32,-14.61 -0.2,-15.57l-0.27 -0.15c-0.03,-0.01 -0.1,-0.05 -0.15,-0.06l-0.93 -0.07c-2.39,0 -10.2,-0.11 -11.42,0.09 -0.37,1.36 -0.11,39.95 -0.13,46.46l0.27 3.06z"/>
   <path class="fil0" d="M54.69 61.61c-1.91,-0.14 -5.87,-0.08 -7.87,-0.03 1.05,0.74 6.44,0.55 7.54,0.19 0.05,-0.01 0.14,0 0.17,-0.08 0.03,-0.07 0.1,-0.05 0.16,-0.08z"/>
   <path class="fil0" d="M137.78 61.57c-2.19,-0.03 -5.19,-0.08 -7.33,-0.02 0.8,0.65 2.8,0.48 3.75,0.49 0.97,0 2.77,0.16 3.58,-0.47z"/>
   <path class="fil0" d="M145.47 41.88c0.48,-0.65 0.58,-1.85 0.61,-2.82 0.03,-0.86 0.07,-2.48 -0.49,-3.11 0.03,2.32 0.12,3.51 -0.12,5.93z"/>
  </g>
  <path class="fil1" d="M18.22 4.09c0.98,0 1.68,-0.5 1.78,-1.49l-0.88 0c-0.07,0.52 -0.42,0.77 -0.91,0.77 -0.65,0 -1.03,-0.48 -1.03,-1.3l0 -0.05c0,-0.82 0.4,-1.31 1.03,-1.31 0.49,0 0.76,0.26 0.83,0.73l0.92 0c-0.09,-0.97 -0.81,-1.44 -1.76,-1.44 -1.13,0 -1.97,0.82 -1.97,2.03l0 0.04c0,1.22 0.69,2.02 1.99,2.02z"/>
  <polygon id="_1" class="fil1" points="20.59,4.03 23.26,4.03 23.26,3.33 21.48,3.33 21.48,2.34 22.84,2.34 22.84,1.69 21.48,1.69 21.48,0.76 23.17,0.76 23.17,0.06 20.59,0.06 "/>
  <path id="_2" class="fil1" d="M23.89 4.03l0.9 0 0 -1.53 0.38 0 0.95 1.53 0.96 0 -1.05 -1.69c0.47,-0.14 0.82,-0.45 0.82,-1.05l0 -0.02c0,-0.83 -0.6,-1.21 -1.54,-1.21l-1.42 0 0 3.97zm0.9 -2.14l0 -1.14 0.5 0c0.43,0 0.68,0.14 0.68,0.54l0 0.03c0,0.38 -0.23,0.57 -0.68,0.57l-0.5 0z"/>
  <polygon id="_3" class="fil1" points="28.32,4.03 29.22,4.03 29.22,0.76 30.29,0.76 30.29,0.06 27.25,0.06 27.25,0.76 28.32,0.76 "/>
  <polygon id="_4" class="fil1" points="30.88,4.03 31.78,4.03 31.78,0.06 30.88,0.06 "/>
  <polygon id="_5" class="fil1" points="32.66,4.03 33.56,4.03 33.56,2.49 34.86,2.49 34.86,1.82 33.56,1.82 33.56,0.77 35.21,0.77 35.21,0.06 32.66,0.06 "/>
  <polygon id="_6" class="fil1" points="35.83,4.03 36.73,4.03 36.73,0.06 35.83,0.06 "/>
  <polygon id="_7" class="fil1" points="37.61,4.03 40.29,4.03 40.29,3.33 38.51,3.33 38.51,2.34 39.86,2.34 39.86,1.69 38.51,1.69 38.51,0.76 40.2,0.76 40.2,0.06 37.61,0.06 "/>
  <path id="_8" class="fil1" d="M41.82 3.33l0 -2.57 0.35 0c0.84,0 1.19,0.44 1.19,1.26l0 0.04c0,0.82 -0.38,1.27 -1.18,1.27l-0.36 0zm-0.9 0.7l1.29 0c1.39,0 2.09,-0.79 2.09,-1.98l0 -0.05c0,-1.18 -0.69,-1.94 -2.08,-1.94l-1.3 0 0 3.97z"/>
  <path id="_9" class="fil1" d="M46.18 4.03l1.63 0c0.92,0 1.4,-0.38 1.4,-1.11l0 -0.02c0,-0.53 -0.28,-0.83 -0.8,-0.93 0.45,-0.13 0.65,-0.44 0.65,-0.85l0 -0.03c0,-0.67 -0.45,-1.03 -1.32,-1.03l-1.56 0 0 3.97zm0.88 -0.62l0 -1.14 0.57 0c0.49,0 0.69,0.19 0.69,0.56l0 0.02c0,0.36 -0.2,0.56 -0.65,0.56l-0.61 0zm0 -1.72l0 -1.01 0.53 0c0.42,0 0.61,0.15 0.61,0.48l0 0.02c0,0.36 -0.17,0.51 -0.6,0.51l-0.54 0z"/>
  <polygon id="_10" class="fil1" points="50.66,4.03 51.56,4.03 51.56,2.32 52.8,0.06 51.93,0.06 51.14,1.58 50.33,0.06 49.35,0.06 50.66,2.32 "/>
 </g>
</svg>
