<?xml version="1.0" encoding="UTF-8"?>
<!DOCTYPE svg PUBLIC "-//W3C//DTD SVG 1.1//EN" "http://www.w3.org/Graphics/SVG/1.1/DTD/svg11.dtd">
<!-- Creator: CorelDRAW -->
<svg xmlns="http://www.w3.org/2000/svg" xml:space="preserve" width="317px" height="150px" version="1.1" style="shape-rendering:geometricPrecision; text-rendering:geometricPrecision; image-rendering:optimizeQuality; fill-rule:evenodd; clip-rule:evenodd"
viewBox="0 0 1310.98 620.81"
 xmlns:xlink="http://www.w3.org/1999/xlink"
 xmlns:xodm="http://www.corel.com/coreldraw/odm/2003">
 <defs>
  <style type="text/css">
   <![CDATA[
    .fil1 {fill:#2B2A29;fill-rule:nonzero}
    .fil0 {fill:#555555;fill-rule:nonzero}
   ]]>
  </style>
 </defs>
 <g id="Layer_x0020_1">
  <metadata id="CorelCorpID_0Corel-Layer"/>
  <path class="fil0" d="M1167.83 290.84c-40.45,0 -68.74,32.34 -78.46,83.29l142.36 -1.61c0,-42.87 -26.7,-81.68 -63.9,-81.68zm-239.32 -235.96l-0.89 0 -147.19 37 0 16.17c55.8,4.86 59.85,16.17 59.85,43.67l0 418.94c-6.48,13.76 -16.98,21.85 -53.38,24.27l0 18.6 179.54 0 0 -18.6c-33.16,-2.42 -48.52,-8.08 -56.61,-24.27l0 -473.12 23.45 -29.11 -4.77 -13.55zm232.03 565.13c-84.91,0 -150.43,-67.13 -150.43,-160.95 0,-114.85 70.37,-193.3 169.85,-193.3 80.06,0 124.55,45.3 124.55,117.28l0 14.55 -218.37 -1.61c-1.62,8.89 -2.43,23.45 -2.43,41.24 0,82.5 51.76,136.68 120.52,136.68 41.24,0 62.27,-14.55 94.62,-42.05l12.13 18.59c-46.1,42.07 -84.12,69.57 -150.44,69.57zm-620.31 -131.02c-3.24,12.93 -5.66,24.25 -5.66,42.05 0,24.26 13.74,48.52 40.43,48.52 24.26,0 38.01,-8.08 59.85,-25.07l0.81 -109.19c-21.03,9.71 -72.79,32.36 -95.43,43.69zm161.75 131.82c-43.67,0 -64.7,-29.93 -66.32,-50.95 -27.5,29.12 -63.08,50.95 -97.05,50.95 -43.67,0 -80.88,-26.69 -80.88,-72.78 0,-22.65 5.66,-46.11 16.99,-64.71l160.94 -58.23 0 -59.85c0,-36.39 -16.99,-71.17 -53.38,-71.17 -21.84,0 -42.86,26.68 -44.48,67.94l-72.79 12.12 0 -8.08c24.26,-72.79 104.33,-101.09 143.15,-101.09 73.6,0 100.29,38.81 99.48,98.66l-2.42 169.84c-0.81,33.17 16.98,41.25 33.16,41.25 12.93,0 25.87,-8.08 41.24,-23.45l0 23.45c-17.79,21.03 -49.33,46.1 -77.64,46.1zm-265.28 -447.25l-133.44 224.84 0 151.24c15.36,36.4 54.19,41.24 91.39,42.87l0 21.02 -261.23 0 0 -21.02c37.2,-1.63 82.49,-7.28 94.62,-31.54l0 -156.1 -135.87 -229.69c-23.45,-38.83 -46.1,-51.76 -91.39,-55l0 -21.02 227.26 0 0 21.02c-42.87,2.43 -56.61,10.52 -68.74,20.23l126.16 218.36 123.74 -217.56c-12.93,-9.7 -29.92,-18.6 -72.78,-21.03l0 -21.02 194.1 0 0 21.02c-43.67,1.63 -71.17,16.17 -93.82,53.38z"/>
  <path class="fil1" d="M19.88 40.82c9.75,0 16.78,-5.04 17.78,-14.85l-8.81 0c-0.72,5.1 -4.15,7.59 -9.08,7.59 -6.53,0 -10.3,-4.76 -10.3,-12.96l0 -0.44c0,-8.2 3.99,-13.07 10.25,-13.07 4.98,0 7.64,2.55 8.3,7.31l9.2 0c-0.94,-9.75 -8.03,-14.4 -17.56,-14.4 -11.24,0 -19.66,8.2 -19.66,20.21l0 0.45c0,12.18 6.92,20.16 19.88,20.16z"/>
  <polygon id="_1" class="fil1" points="43.48,40.21 70.17,40.21 70.17,33.23 52.39,33.23 52.39,23.37 65.91,23.37 65.91,16.84 52.39,16.84 52.39,7.59 69.28,7.59 69.28,0.61 43.48,0.61 "/>
  <path id="_2" class="fil1" d="M76.43 40.21l8.91 0 0 -15.29 3.88 0 9.47 15.29 9.53 0 -10.47 -16.84c4.65,-1.38 8.14,-4.54 8.14,-10.52l0 -0.22c0,-8.2 -5.92,-12.02 -15.28,-12.02l-14.18 0 0 39.6zm8.91 -21.38l0 -11.35 5.04 0c4.32,0 6.76,1.38 6.76,5.42l0 0.23c0,3.82 -2.27,5.7 -6.76,5.7l-5.04 0z"/>
  <polygon id="_3" class="fil1" points="120.57,40.21 129.6,40.21 129.6,7.59 140.28,7.59 140.28,0.61 109.88,0.61 109.88,7.59 120.57,7.59 "/>
  <polygon id="_4" class="fil1" points="146.1,40.21 155.13,40.21 155.13,0.61 146.1,0.61 "/>
  <polygon id="_5" class="fil1" points="163.88,40.21 172.85,40.21 172.85,24.87 185.86,24.87 185.86,18.11 172.85,18.11 172.85,7.64 189.3,7.64 189.3,0.61 163.88,0.61 "/>
  <polygon id="_6" class="fil1" points="195.5,40.21 204.53,40.21 204.53,0.61 195.5,0.61 "/>
  <polygon id="_7" class="fil1" points="213.28,40.21 239.97,40.21 239.97,33.23 222.19,33.23 222.19,23.37 235.71,23.37 235.71,16.84 222.19,16.84 222.19,7.59 239.09,7.59 239.09,0.61 213.28,0.61 "/>
  <path id="_8" class="fil1" d="M255.2 33.23l0 -25.64 3.55 0c8.36,0 11.85,4.37 11.85,12.51l0 0.45c0,8.19 -3.77,12.68 -11.74,12.68l-3.66 0zm-8.97 6.98l12.9 0c13.91,0 20.83,-7.92 20.83,-19.77l0 -0.45c0,-11.85 -6.87,-19.38 -20.77,-19.38l-12.96 0 0 39.6z"/>
  <path id="_9" class="fil1" d="M298.73 40.21l16.29 0c9.13,0 13.9,-3.82 13.9,-11.08l0 -0.22c0,-5.32 -2.77,-8.25 -7.92,-9.31 4.43,-1.27 6.42,-4.31 6.42,-8.47l0 -0.22c0,-6.76 -4.48,-10.3 -13.12,-10.3l-15.57 0 0 39.6zm8.75 -6.21l0 -11.35 5.71 0c4.87,0 6.87,1.88 6.87,5.54l0 0.22c0,3.6 -2,5.59 -6.43,5.59l-6.15 0zm0 -17.11l0 -10.13 5.32 0c4.21,0 6.09,1.49 6.09,4.81l0 0.23c0,3.54 -1.71,5.09 -6.03,5.09l-5.38 0z"/>
  <polygon id="_10" class="fil1" points="343.37,40.21 352.4,40.21 352.4,23.15 364.75,0.61 356.05,0.61 348.19,15.78 340.16,0.61 330.3,0.61 343.37,23.15 "/>
 </g>
</svg>
