<?xml version="1.0" encoding="UTF-8"?>
<!DOCTYPE svg PUBLIC "-//W3C//DTD SVG 1.1//EN" "http://www.w3.org/Graphics/SVG/1.1/DTD/svg11.dtd">
<!-- Creator: CorelDRAW -->
<svg xmlns="http://www.w3.org/2000/svg" xml:space="preserve" width="315px" height="140px" version="1.1" style="shape-rendering:geometricPrecision; text-rendering:geometricPrecision; image-rendering:optimizeQuality; fill-rule:evenodd; clip-rule:evenodd"
viewBox="0 0 56.65 25.17"
 xmlns:xlink="http://www.w3.org/1999/xlink"
 xmlns:xodm="http://www.corel.com/coreldraw/odm/2003">
 <defs>
  <style type="text/css">
   <![CDATA[
    .fil0 {fill:#555555}
    .fil1 {fill:#2B2A29;fill-rule:nonzero}
   ]]>
  </style>
 </defs>
 <g id="Layer_x0020_1">
  <metadata id="CorelCorpID_0Corel-Layer"/>
  <g id="_1490965389696">
   <path class="fil0" d="M23.76 11.69c0.97,0 1.6,0.14 2.36,0.6 0.35,0.21 0.74,0.57 0.97,0.88l0.36 0.57c0.39,0.88 0.25,0.86 0.39,1.46l-8.02 0c0,-0.24 0.09,-0.58 0.15,-0.78 0.15,-0.44 0.33,-0.85 0.63,-1.21 0.15,-0.18 0.29,-0.34 0.46,-0.49 0.33,-0.29 0.74,-0.54 1.14,-0.71 0.4,-0.17 1,-0.32 1.56,-0.32zm-7.91 4.78c0,1.04 0,1.41 0.21,2.43 0.19,0.87 0.68,2.1 1.23,2.84 0.08,0.1 0.13,0.19 0.21,0.29l0.72 0.83c2.21,2.2 5.63,2.76 8.65,1.89 1.06,-0.3 1.86,-0.72 2.66,-1.33l0.45 -0.37c0.11,-0.11 0.3,-0.29 0.39,-0.4 0.56,-0.7 0.86,-1.02 1.2,-2.01 0.06,-0.17 0.2,-0.5 -0.12,-0.5l-3.45 0c-0.18,0 -0.27,0.26 -0.46,0.52 -0.62,0.87 -1.98,1.36 -3.07,1.36l-0.52 0c-1.21,0 -2.52,-0.79 -3.06,-1.48 -0.4,-0.51 -0.72,-1.01 -0.89,-1.67 -0.06,-0.22 -0.15,-0.59 -0.15,-0.87l11.82 0c0.29,0 0.22,-0.38 0.22,-0.74 0,-2.12 -0.4,-3.82 -1.58,-5.57 -0.21,-0.29 -0.27,-0.33 -0.46,-0.57 -0.6,-0.74 -1.5,-1.32 -2.35,-1.73 -0.83,-0.4 -2.12,-0.77 -3.33,-0.77 -0.88,0 -1.36,0.02 -2.22,0.23 -0.54,0.14 -0.99,0.29 -1.46,0.49 -0.62,0.27 -1.56,0.86 -2.07,1.36 -0.24,0.25 -0.49,0.49 -0.71,0.75l-0.43 0.56c-0.84,1.25 -1.43,2.76 -1.43,4.46z"/>
   <path class="fil0" d="M43.03 13.48c0,0.79 0.08,1.35 0.41,1.99 0.23,0.45 0.54,0.81 0.92,1.12 0.46,0.39 0.7,0.53 1.24,0.8 0.43,0.21 0.98,0.41 1.5,0.54 1.44,0.36 3.29,0.49 4.58,1.01 0.32,0.13 0.73,0.34 0.92,0.61 0.25,0.33 0.27,0.52 0.27,0.95 0,1.27 -1.74,1.71 -2.71,1.71 -1.1,0 -1.91,-0.14 -2.71,-0.7 -0.49,-0.34 -0.73,-0.77 -0.92,-1.33 -0.08,-0.23 -0.03,-0.42 -0.34,-0.42l-3.16 0c-0.19,0 -0.27,0.08 -0.27,0.22 0,0.39 0.18,0.93 0.28,1.24 0.19,0.56 0.47,1.05 0.82,1.5 0.06,0.07 0.11,0.14 0.17,0.2 0.32,0.33 0.37,0.43 0.8,0.76 1.29,0.99 3.04,1.46 4.77,1.49l0.45 0c0.85,-0.02 1.68,-0.14 2.44,-0.35 0.39,-0.11 0.74,-0.23 1.08,-0.39 0.09,-0.04 0.16,-0.06 0.25,-0.11l0.69 -0.42c0.15,-0.11 0.28,-0.19 0.42,-0.31 0.14,-0.12 0.26,-0.23 0.38,-0.35 0.24,-0.24 0.63,-0.74 0.79,-1.04 0.05,-0.1 0.09,-0.14 0.14,-0.24 0.25,-0.54 0.39,-1.18 0.41,-1.82l0 -0.32c-0.02,-0.83 -0.26,-1.64 -0.75,-2.24 -0.85,-1.02 -1.96,-1.49 -3.2,-1.91 -1.51,-0.51 -3.85,-0.64 -5,-1.12 -0.45,-0.19 -0.94,-0.53 -0.94,-1.09 0,-0.39 0,-0.74 0.32,-1.07 0.2,-0.21 0.33,-0.32 0.59,-0.46 1.12,-0.63 3.13,-0.49 4.06,0.26 0.06,0.05 0.11,0.09 0.17,0.14 0.24,0.23 0.42,0.48 0.56,0.78 0.06,0.13 0.11,0.43 0.25,0.43l3.32 0c0.13,0 0.19,-0.07 0.19,-0.19 0,-0.59 -0.44,-1.52 -0.77,-2.01 -0.22,-0.33 -0.51,-0.67 -0.79,-0.95 -0.36,-0.36 -0.99,-0.79 -1.43,-1.01 -0.15,-0.08 -0.3,-0.14 -0.47,-0.21 -0.17,-0.07 -0.34,-0.13 -0.52,-0.19 -1.28,-0.36 -1.75,-0.39 -3.09,-0.39 -0.41,0 -0.87,0.06 -1.23,0.12 -0.21,0.04 -0.38,0.08 -0.56,0.13 -0.2,0.05 -0.38,0.1 -0.55,0.15 -0.78,0.23 -1.62,0.68 -2.22,1.21 -0.07,0.06 -0.1,0.08 -0.18,0.15 -0.06,0.06 -0.11,0.11 -0.17,0.18 -0.72,0.77 -1.21,1.84 -1.21,2.95z"/>
   <path class="fil0" d="M34.44 5.3l0 3.67 -2.39 0c-0.16,0 -0.27,0.06 -0.27,0.22l0 2.58c0,0.13 0.09,0.22 0.22,0.22l2.44 0 0 8.92c0,0.44 0.07,0.93 0.16,1.31 0.04,0.21 0.09,0.38 0.16,0.57 0.13,0.33 0.3,0.67 0.55,0.92 0.61,0.64 1.72,0.99 2.62,1.08 0.2,0.02 1.2,0.07 1.39,0.04 0.35,-0.05 1.07,-0.01 1.46,-0.01l0.7 -0.03c0.27,0 0.52,0.02 0.52,-0.24l0 -2.58c0,-0.26 -0.22,-0.25 -0.46,-0.25 -0.54,0 -1.72,0.03 -2.12,-0.05 -0.94,-0.19 -1.09,-0.8 -1.09,-1.82l0 -7.86 3.45 0c0.17,0 0.22,-0.11 0.22,-0.27l0 -2.5c0,-0.14 -0.11,-0.25 -0.24,-0.25l-3.43 0 0 -3.61c0,-0.14 -0.09,-0.22 -0.22,-0.22l-3.5 0c-0.07,0 -0.17,0.1 -0.17,0.16z"/>
   <path class="fil0" d="M6.85 5.33c-0.12,-0.08 -2.41,-2.4 -2.7,-2.69 -0.48,-0.48 -0.24,-0.44 -1.5,-0.02 -0.19,0.06 -0.36,0.12 -0.53,0.18 -0.38,0.12 -0.68,0.18 -0.28,0.58l0.69 0.69c0.32,0.32 0.62,0.62 0.94,0.94 0.15,0.15 1.78,1.75 1.86,1.87l-4.08 0c-0.19,0 -0.28,-0.02 -0.35,0.11l-0.76 1.52c-0.07,0.13 -0.12,0.24 -0.14,0.31l0 0.08c0.03,0.09 0.16,0.13 0.49,0.13l4.84 0 -2.67 2.68c-0.56,0.56 -0.48,0.16 0.14,2.12 0.02,0.07 0.07,0.22 0.1,0.29 0.04,0.08 0.13,0.15 0.23,0.11 0.1,-0.04 6.88,-6.85 7.49,-7.47l2.61 -2.61c0.5,-0.49 0.46,-0.2 0.03,-1.5 -0.08,-0.24 -0.26,-0.99 -0.43,-0.99 -0.19,0 -0.34,0.22 -0.54,0.41l-1.4 1.4c-0.14,0.15 -1.75,1.78 -1.86,1.86 0,-1.22 0,-2.43 0,-3.64 0,-0.94 0.06,-0.63 -0.74,-1.09 -0.11,-0.07 -1.17,-0.6 -1.22,-0.6 -0.26,0 -0.22,0.36 -0.22,0.46l0 4.87z"/>
   <path class="fil0" d="M6.85 12.18l0 2.53c0,0.26 0.18,0.29 0.37,0.39 0.19,0.09 0.33,0.17 0.52,0.27 1.42,0.71 1.29,0.81 1.29,-0.64l0 -4.15c0.12,0.08 2.53,2.52 2.82,2.8 0.08,0.08 0.2,0.24 0.32,0.23 0.05,0 0.35,-0.11 0.43,-0.14 0.16,-0.05 0.28,-0.09 0.43,-0.14l0.87 -0.28c0.23,-0.07 0.32,-0.05 0.32,-0.3 0,-0.1 -1.73,-1.76 -1.83,-1.87 -0.15,-0.15 -1.76,-1.74 -1.84,-1.85l4.08 0c0.38,0 0.34,-0.13 0.65,-0.74l0.31 -0.59c0.08,-0.15 0.29,-0.51 0.29,-0.66 0,-0.06 -0.1,-0.16 -0.17,-0.16l-3.67 0c-0.09,0 -1.24,1.2 -1.32,1.28l-3.6 3.6c-0.12,0.12 -0.27,0.2 -0.27,0.42z"/>
  </g>
  <path class="fil1" d="M14.33 1.61l0.36 0 0 -0.59 0.2 0c0.37,0 0.61,-0.16 0.61,-0.5l0 -0.01c0,-0.34 -0.23,-0.51 -0.62,-0.51l-0.55 0 0 1.61zm0.36 -0.84l0 -0.49 0.18 0c0.18,0 0.28,0.06 0.28,0.24l0 0c0,0.16 -0.1,0.25 -0.28,0.25l-0.18 0z"/>
  <path id="_1" class="fil1" d="M15.5 1.61l0.34 0 0.11 -0.36 0.58 0 0.11 0.36 0.38 0 -0.52 -1.61 -0.47 0 -0.53 1.61zm0.74 -1.31l0.21 0.69 -0.42 0 0.21 -0.69z"/>
  <path id="_2" class="fil1" d="M17.24 1.61l0.37 0 0 -0.62 0.15 0 0.39 0.62 0.39 0 -0.43 -0.68c0.19,-0.06 0.33,-0.19 0.33,-0.43l0 -0.01c0,-0.33 -0.24,-0.49 -0.62,-0.49l-0.58 0 0 1.61zm0.37 -0.87l0 -0.46 0.2 0c0.18,0 0.28,0.06 0.28,0.22l0 0.01c0,0.15 -0.1,0.23 -0.28,0.23l-0.2 0z"/>
  <polygon id="_3" class="fil1" points="19.04,1.61 19.4,1.61 19.4,0.28 19.84,0.28 19.84,0 18.6,0 18.6,0.28 19.04,0.28 "/>
  <polygon id="_4" class="fil1" points="20.07,1.61 20.39,1.61 20.39,0.46 21.06,1.61 21.43,1.61 21.43,0 21.1,0 21.1,1.06 20.49,0 20.07,0 "/>
  <polygon id="_5" class="fil1" points="21.77,1.61 22.86,1.61 22.86,1.33 22.14,1.33 22.14,0.93 22.68,0.93 22.68,0.66 22.14,0.66 22.14,0.28 22.82,0.28 22.82,0 21.77,0 "/>
  <path id="_6" class="fil1" d="M23.11 1.61l0.37 0 0 -0.62 0.15 0 0.39 0.62 0.38 0 -0.42 -0.68c0.19,-0.06 0.33,-0.19 0.33,-0.43l0 -0.01c0,-0.33 -0.24,-0.49 -0.62,-0.49l-0.58 0 0 1.61zm0.37 -0.87l0 -0.46 0.2 0c0.18,0 0.27,0.06 0.27,0.22l0 0.01c0,0.15 -0.09,0.23 -0.27,0.23l-0.2 0z"/>
  <polygon id="_7" class="fil1" points="24.63,1.61 25.71,1.61 25.71,1.33 24.99,1.33 24.99,0.93 25.54,0.93 25.54,0.66 24.99,0.66 24.99,0.28 25.67,0.28 25.67,0 24.63,0 "/>
  <path id="_8" class="fil1" d="M26.33 1.33l0 -1.05 0.14 0c0.34,0 0.49,0.18 0.49,0.51l0 0.02c0,0.33 -0.16,0.52 -0.48,0.52l-0.15 0zm-0.36 0.28l0.52 0c0.56,0 0.85,-0.32 0.85,-0.8l0 -0.02c0,-0.48 -0.28,-0.79 -0.85,-0.79l-0.52 0 0 1.61z"/>
  <polygon id="_9" class="fil1" points="28.37,1.61 28.72,1.61 29.01,0.5 29.3,1.61 29.67,1.61 30.06,0 29.73,0 29.47,1.12 29.18,0 28.87,0 28.59,1.11 28.34,0 27.97,0 "/>
  <polygon id="_10" class="fil1" points="30.29,1.61 30.66,1.61 30.66,0 30.29,0 "/>
  <polygon id="_11" class="fil1" points="31.33,1.61 31.7,1.61 31.7,0.28 32.13,0.28 32.13,0 30.9,0 30.9,0.28 31.33,0.28 "/>
  <polygon id="_12" class="fil1" points="32.36,1.61 32.73,1.61 32.73,0.95 33.37,0.95 33.37,1.61 33.74,1.61 33.74,0 33.37,0 33.37,0.66 32.73,0.66 32.73,0 32.36,0 "/>
 </g>
</svg>
