<svg width="360" height="293" viewBox="0 0 360 293" fill="none" xmlns="http://www.w3.org/2000/svg">
<path d="M347.088 163.339L233.709 159.099C231.805 159.007 230.142 158.95 228.685 158.995C217.179 145.301 200.122 133.601 185.623 127.745C184.946 128.341 184.235 128.914 183.501 129.452C181.895 130.633 180.163 131.676 178.316 132.581C177.708 132.879 177.1 133.154 176.469 133.417C175.483 147.318 158.357 152.12 140.921 148.705C125.504 145.748 108.389 134.391 104.248 118.394C106.944 115.047 110.466 111.461 113.953 108.435C113.723 107.92 113.505 107.404 113.287 106.877C109.33 110.177 105.327 114.234 102.493 118.165C49.4173 130.896 21.6003 165.676 8.00727 198.554C1.84738 213.406 -4.09455 222.104 3.76303 225.92L4.1301 226.126C0.998535 236.99 0.413519 245.906 2.28328 251.796C4.62335 259.428 9.07406 266.224 19.4782 269.616C32.8533 274.074 55.7836 274.922 85.7227 266.43C86.996 269.192 89.3361 270.888 93.1559 272.16C97.4001 273.65 101.644 272.802 104.191 270.246C106.955 270.888 109.502 271.518 112.255 271.942C120.113 273.214 127.328 271.942 133.063 269.398C134.336 271.942 139.854 274.704 143.674 274.28C143.869 274.257 144.064 274.234 144.247 274.211L190.165 287.642C191.014 287.848 191.863 287.848 192.93 287.848L327.541 283.608C330.937 283.391 332.428 282.336 332.428 279.15C332.428 277.661 332.003 276.606 331.361 275.758L357.905 175.853C360.887 165.035 357.067 163.763 347.088 163.339ZM205.686 198.761C207.131 201.167 208.324 203.677 209.196 206.232L208.381 209.464C207.487 205.877 206.133 202.565 204.194 199.391L205.686 198.761ZM186.747 198.669H189.213V193.741H194.146V198.669H196.612V201.133H194.146V213.44H196.612V215.904H191.68V213.44H189.213V201.133H186.747V198.669ZM199.721 243.935L194.708 263.875H171.204C171.743 262.683 171.858 261.296 171.284 259.841L170.435 257.721C174.68 257.939 177.226 254.959 176.171 250.937L174.141 243.935H199.721ZM171.961 198.669H176.894V201.133H179.36V198.669H184.292V203.597H176.905V215.904H171.973V198.669H171.961ZM164.574 193.753H169.506V196.217H164.574V193.753ZM164.574 198.669H169.506V215.904H164.574V198.669ZM147.322 193.753H152.254V198.68H159.641V201.144H162.108V215.916H157.175V201.144H152.243V215.916H147.31V193.753H147.322ZM142.423 201.156L144.867 201.144V203.585L142.423 203.597V201.156ZM132.547 201.144L135.013 201.121V198.68L142.401 198.692V201.133H137.468V203.597H139.934V206.06L142.378 206.072V208.536H144.867V213.44H142.401L142.378 215.904H135.002V213.44H139.934V210.977H137.468V208.513L135.002 208.501V206.038H132.536V201.144H132.547ZM132.547 211H134.99V213.44H132.547V211ZM120.227 198.669H122.694V193.741H127.626V198.669H130.092V201.133H127.626V213.44H130.092V215.904H125.16V213.44H122.694V201.133H120.227V198.669ZM67.0481 216.363L68.7458 216.787L68.0346 224.9L76.5919 215.297L77.8652 216.569L68.9867 226.424C68.9064 226.39 68.8146 226.356 68.7343 226.321C68.459 226.218 68.1952 226.103 67.9313 226C67.7134 225.909 67.4955 225.828 67.266 225.737C66.9219 225.599 66.5892 225.462 66.2451 225.336L67.0481 216.363ZM20.545 267.691C10.5653 264.505 6.95194 258.363 4.4054 251.361C2.0768 244.874 3.1436 234.332 7.81226 221.382C13.9607 216.523 22.9424 215.847 29.8823 217.211C41.032 218.024 50.8282 221.542 66.096 227.204C66.8187 227.479 67.5643 227.754 68.3099 228.029C72.3476 229.518 81.9029 231.421 89.967 233.759C88.4299 234.916 87.409 236.589 86.5945 239.122L85.7227 239.064C83.3827 238.847 82.7518 240.336 82.5338 242.032L80.6182 258.58C80.4002 260.7 81.685 261.766 83.5891 261.972L84.7018 262.041C84.7707 262.797 84.9313 263.542 85.0804 264.299C57.0684 272.79 33.4956 271.725 20.545 267.691ZM92.7315 259.417C92.7315 260.059 92.5135 260.907 91.0338 260.689L83.8186 260.047C83.1762 260.047 82.3273 259.623 82.5453 258.557L84.4609 242.01C84.4609 241.368 84.8854 240.944 85.7342 240.944L94.0162 241.586C95.2895 241.586 95.5074 242.227 95.2895 243.075L92.7315 259.417ZM143.685 272.573C140.496 272.79 135.197 270.029 134.772 268.332C135.839 267.691 136.895 267.06 137.743 266.419L140.932 268.115L141.781 266.419L137.319 264.299C131.801 269.811 120.548 270.877 112.691 269.811C106.955 268.963 102.287 267.691 96.5513 265.995C95.301 265.284 94.5095 264.276 94.1539 262.591C95.8745 262.373 96.3678 261.044 96.5513 259.417L99.0978 243.087C99.2928 241.333 98.2375 240.119 96.4136 239.763C97.5148 237.185 99.2928 236.371 101.426 237.139L104.822 238.411L141.127 226.745C144.947 225.473 149.409 226.321 153.229 228.017L165.973 233.323C170.435 235.237 171.066 239.477 172.133 243.293L174.473 251.349C175.54 254.741 173.2 256.437 169.805 255.807L164.918 244.347C163.645 241.162 163.002 239.889 160.249 238.617L148.147 232.888L147.299 234.801L159.4 240.531C161.316 241.379 162.165 242.021 163.22 244.771L169.587 260.253C171.284 264.493 164.7 267.886 163.002 264.493L158.965 256.861C159.813 254.317 159.183 251.131 156.624 249.229L144.305 241.803L143.456 243.717L155.776 251.143C160.02 254.329 156.624 260.047 152.805 262.167C151.956 260.677 150.683 258.981 148.56 257.709L138.581 251.555L137.732 253.469L147.712 259.623C150.281 261.583 151.669 263.015 151.486 265.204C151.417 266.086 151.084 267.095 150.476 268.321C150.315 268.642 150.143 268.94 149.948 269.226C148.618 271.232 146.473 272.389 143.685 272.573ZM160.972 263.875H153.298C153.286 263.806 153.264 263.737 153.252 263.668C155.799 262.603 157.072 260.7 158.345 258.787L160.972 263.875ZM188.066 283.391V284.663L148.274 272.985C149.604 272.252 150.637 271.243 151.508 269.937L189.133 280.205C188.491 280.846 188.066 281.901 188.066 283.391ZM152.403 268.401C152.896 267.462 153.206 266.602 153.332 265.788H161.981C163.782 268.539 167.556 267.943 169.828 265.788H194.226L193.423 268.974H180.415C174.473 268.974 175.747 271.518 180.633 272.584L191.875 275.185L191.037 278.52L152.403 268.401ZM327.553 281.477L192.941 285.717C190.601 285.717 190.177 285.293 190.177 283.379C190.177 281.465 190.601 281.041 192.941 281.041L327.553 276.801C329.893 276.801 330.317 277.225 330.317 279.139C330.317 281.053 329.893 281.477 327.553 281.477ZM355.794 175.429L329.468 274.693H327.553L193.366 278.933L194.238 275.437L202.049 244.084L220.747 169.057C222.663 161.207 224.991 160.783 233.698 161.207L347.076 165.447C356.218 165.883 358.134 166.937 355.794 175.429Z" fill="black"/>
<path d="M347.087 165.46L233.709 161.22C225.002 160.796 222.674 161.22 220.758 169.07L202.06 244.096L194.249 275.45L193.377 278.945L327.564 274.705H329.479L355.794 175.43C358.134 166.938 356.218 165.884 347.087 165.46ZM295.342 221.314L294.344 226.07L293.69 229.199L293.105 232.006L292.933 232.831L292.853 233.198L291.855 237.954L291.201 241.082L288.069 240.429L285.19 239.822L284.605 242.629L283.951 245.758L280.82 245.105L277.941 244.497L274.809 243.844L270.049 242.847L266.917 242.194L267.571 239.065L268.156 236.258L265.277 235.65L262.145 234.997L262.799 231.869L263.384 229.061L260.505 228.454L257.373 227.801L258.027 224.672L258.612 221.864L255.733 221.257L252.601 220.604L253.255 217.475L254.253 212.72L254.907 209.591L258.039 210.244L262.799 211.241L265.931 211.895L265.277 215.023L264.692 217.831L265.701 218.037L266.286 215.229L266.94 212.101L267.123 211.23L267.491 209.488L267.536 209.293L267.548 209.213L267.777 208.101L268.775 203.346L269.429 200.217L270.014 197.409L270.668 194.281L273.8 194.934L278.56 195.931L281.692 196.584L281.038 199.713L280.453 202.52L279.799 205.649L279.214 208.457L282.093 209.064L282.139 209.075L283.343 209.328L288.104 210.325L291.235 210.978L290.581 214.106L289.996 216.914L292.876 217.521L296.007 218.174L295.342 221.314Z" fill="#E9E4E2"/>
<path d="M327.553 276.814L192.942 281.054C190.602 281.054 190.178 281.478 190.178 283.392C190.178 285.305 190.602 285.729 192.942 285.729L327.553 281.489C329.894 281.489 330.318 281.065 330.318 279.151C330.318 277.238 329.894 276.814 327.553 276.814Z" fill="#E9E4E2"/>
<path d="M209.196 206.232C208.324 203.676 207.131 201.155 205.686 198.76L204.194 199.402C206.133 202.576 207.486 205.888 208.381 209.475L209.196 206.232Z" fill="#2B2B2B"/>
<path d="M191.875 275.172L180.633 272.571C175.747 271.505 174.473 268.961 180.415 268.961H193.423L194.226 265.775H169.828C167.556 267.929 163.782 268.525 161.982 265.775H153.332C153.206 266.6 152.897 267.448 152.403 268.388L191.037 278.495L191.875 275.172Z" fill="#E9E4E2"/>
<path d="M158.551 136.395C165.078 136.681 171.181 135.616 176.469 133.404C177.1 133.14 177.719 132.865 178.315 132.567C180.162 131.673 181.894 130.619 183.5 129.439C184.234 128.9 184.946 128.327 185.622 127.731C188.043 125.588 190.119 123.079 191.702 120.26C196.83 111.012 197.552 99.2883 191.874 90.8081C190.371 95.4607 184.017 98.1996 178.086 98.1996C172.993 98.1996 168.106 96.2858 166.409 92.0457C165.055 95.0023 162.119 96.8932 158.689 97.9818C160.444 101.935 166.523 102.612 170.446 99.6779L171.72 102.016C165.984 105.969 157.668 104.399 156.039 98.6694C154.341 99.0132 152.598 99.1966 150.911 99.2539C144.017 99.5404 137.399 97.9475 133.717 94.4408C123.175 90.6247 118.173 85.1241 115.03 74.6499C114.686 73.6758 114.377 72.7017 114.09 71.7506C113.929 71.212 113.769 70.6734 113.631 70.1348L109.295 71.2464L110.362 73.1601L108.664 74.0081L109.513 76.7699C109.169 80.5631 109.1 84.1844 109.261 87.6337C109.295 88.3328 109.341 89.0204 109.387 89.7079C109.88 96.0452 111.234 101.764 113.298 106.852C113.516 107.379 113.734 107.894 113.964 108.41C121.833 126.012 138.615 135.547 158.551 136.395Z" fill="#FF5E07"/>
<path d="M178.292 96.5171C173.199 96.5171 168.53 94.3971 167.464 89.733H166.684H166.488H165.766C164.802 93.9272 160.765 96.0358 155.717 96.987C154.123 97.2849 152.425 97.4797 150.693 97.5829C144.992 97.9152 137.284 96.4827 134.014 92.1624C133.028 90.856 132.443 89.2746 132.443 87.4067C132.443 86.043 132.879 84.7824 133.601 83.7854C133.877 83.3958 134.209 83.0405 134.565 82.7426L134.186 82.4331L133.51 81.8945C131.812 82.7425 130.745 85.0803 130.745 87.6244C130.745 90.4091 131.858 92.6896 133.728 94.4773C137.41 97.9954 144.028 99.5769 150.922 99.2904C152.609 99.2331 154.352 99.0497 156.05 98.7059C156.956 98.5226 157.839 98.3048 158.7 98.0183C162.13 96.9182 165.066 95.0388 166.42 92.0822C168.117 96.3223 173.004 98.2361 178.097 98.2361C184.028 98.2361 190.382 95.4858 191.885 90.8446C191.885 90.8331 191.897 90.8217 191.897 90.8102L191.53 89.9965L191.048 88.8964C189.969 93.7668 184.028 96.5171 178.292 96.5171Z" fill="#CC5A27"/>
<path d="M148.273 272.99L188.066 284.667V283.395C188.066 281.906 188.49 280.851 189.133 280.21L151.508 269.942C150.636 271.248 149.604 272.257 148.273 272.99ZM177.868 278.514L181.906 279.579V281.275L177.868 280.21V278.514ZM170.871 276.611L174.909 277.677V279.373L170.871 278.307V276.611Z" fill="#E9E4E2"/>
<path d="M105.256 67.248L106.322 67.8897L112.7 66.1937C108.617 45.0276 119.984 31.9979 142.203 33.3158C149.843 33.7398 155.797 35.4358 163.012 40.3177C166.625 37.1319 171.5 36.5016 175.331 37.3496C178.096 37.9914 179.794 39.4697 181.067 43.9275L182.765 43.5035C187.651 42.2314 188.925 36.0776 188.925 31.1957C188.925 25.0419 186.378 17.4097 181.709 11.2559C179.163 7.86378 177.247 6.37402 175.343 6.37402C174.07 6.37402 172.154 7.22204 170.25 8.7118C166.43 11.6799 163.035 13.1696 159.215 13.1696L140.529 13.3874C129.7 13.5936 123.965 15.9314 122.485 20.5955L120.569 20.1715C117.598 18.4755 113.354 21.8675 108.674 19.7475C108.25 23.9876 110.796 25.2596 112.494 25.4774C109.305 26.3254 106.334 24.8356 103.363 24.8356C103.787 28.2277 105.91 31.4135 108.674 32.0438L109.741 32.8918C100.587 39.4697 102.078 58.5501 105.256 67.248Z" fill="#FF5E07"/>
<path d="M185.635 82.477C180.897 84.597 169.61 81.4342 166.696 89.731H167.476C168.543 94.3951 173.212 96.5151 178.305 96.5151C184.04 96.5151 189.982 93.7534 191.049 88.883C191.898 84.8606 190.2 80.8268 187.654 80.1851C187.654 80.1851 187.654 80.1851 187.642 80.1851C187.378 81.3081 186.656 82.0186 185.635 82.477Z" fill="#FF5E07"/>
<path d="M133.498 81.8836L134.175 82.4222C139.406 86.2154 146.254 82.5483 156.429 83.1557C159.778 83.3619 163.541 84.611 166.5 89.7335H166.695C169.609 81.4367 180.896 84.5996 185.634 82.4795C186.104 79.798 186.081 77.0133 185.519 74.8818C183.603 76.1538 181.057 76.7955 178.086 76.7955H177.237C176.595 80.8293 173.199 84.0037 166.626 82.3076L167.475 79.9699C172.362 81.6659 176.182 77.8498 174.06 73.816C172.362 70.4239 166.202 73.1743 163.231 68.0862L165.353 67.2381C165.778 67.8799 166.202 68.3039 166.844 68.5102C166.626 67.6621 166.42 66.8141 166.42 65.7484C165.996 64.9004 165.353 64.6826 164.504 64.6826C163.438 64.6826 161.958 65.3244 160.467 66.3787C159.618 72.1085 154.307 75.2828 145.818 75.5006C137.754 75.7069 132.443 72.5325 131.594 65.5306L124.964 67.2381L113.631 70.1489C113.78 70.676 113.929 71.2146 114.09 71.7647C114.376 72.7159 114.686 73.6785 115.03 74.664C118.173 85.1267 123.175 90.6388 133.716 94.4549C131.847 92.6787 130.734 90.3982 130.734 87.602C130.734 85.0694 131.801 82.7317 133.498 81.8836Z" fill="#FFE5D9"/>
<path d="M178.292 57.4979C175.183 57.3833 173.027 58.0365 171.65 59.469C170.4 60.7754 169.792 62.7121 169.792 65.3364C169.792 66.4594 169.884 67.3418 170.067 68.1096C170.205 68.6482 170.377 69.141 170.641 69.565C172.006 69.565 173.359 70.0005 174.438 70.6995C175.367 71.2954 176.078 72.0861 176.376 72.9685L176.548 73.1404L176.594 73.1863C177.019 73.3925 177.443 73.3925 178.074 73.3925C184.016 73.3925 186.562 71.0548 186.562 65.5426C186.562 62.8382 185.943 60.9129 184.635 59.6065C183.305 58.2772 181.217 57.6125 178.292 57.4979ZM179.99 71.7882C177.868 71.7882 177.019 70.2984 177.019 68.8201C177.019 65.2103 180.838 63.9383 182.754 65.004L180.208 67.7658L183.179 68.1898C183.179 70.5162 181.699 71.7882 179.99 71.7882Z" fill="white"/>
<path d="M180.209 67.7546L182.756 64.9928C180.84 63.9271 177.021 65.1991 177.021 68.8089C177.021 70.2986 177.869 71.7769 179.991 71.7769C181.689 71.7769 183.18 70.5049 183.18 68.1671L180.209 67.7546Z" fill="black"/>
<path d="M181.906 279.579L177.868 278.513V280.209L181.906 281.275V279.579Z" fill="black"/>
<path d="M175.323 37.3405C171.503 36.4925 166.616 37.1228 163.003 40.3086C155.788 35.4268 149.834 33.7307 142.195 33.3067C119.976 31.9889 108.608 45.0186 112.691 66.1846L131.791 61.0965C132.639 55.3667 137.308 52.3986 145.384 52.1923C149.915 52.1007 153.425 52.8685 155.948 54.3697C158.977 56.1688 160.56 58.9994 160.674 62.5863C161.948 61.7383 163.221 61.3143 164.494 61.3143C165.343 61.3143 165.985 61.5205 166.616 61.7383C167.465 57.0742 171.709 54.1061 178.294 54.1061C179.785 54.1061 181.265 54.3124 182.538 54.7478C182.756 51.138 182.32 47.746 181.047 43.9299C179.785 39.4721 178.087 37.9823 175.323 37.3405ZM154.514 50.9203C152.599 48.3762 146.45 47.9522 143.904 49.4305L142.631 46.6688C147.093 44.1247 153.666 45.179 156.648 48.7888L154.514 50.9203ZM179.143 50.2786C177.445 49.4305 173.407 49.0065 171.709 51.5506L168.738 49.8545C169.117 49.3503 169.553 48.9034 170.023 48.5023C171.56 47.1959 173.476 46.4281 175.323 46.302C176.975 46.1874 178.58 46.5656 179.785 47.5168L179.143 50.2786Z" fill="#FFE5D9"/>
<path d="M170.02 48.5099C169.55 48.911 169.125 49.3579 168.735 49.8622L171.706 51.5582C173.404 49.0141 177.442 49.4381 179.139 50.2862L179.782 47.5244C178.577 46.5732 176.971 46.1836 175.32 46.3096C173.473 46.4357 171.557 47.192 170.02 48.5099Z" fill="black"/>
<path d="M174.898 277.662L170.872 276.607V278.303L174.898 279.358V277.662Z" fill="black"/>
<path d="M149.96 269.239C150.155 268.952 150.327 268.654 150.487 268.333C151.095 267.107 151.428 266.099 151.497 265.216C151.68 263.027 150.292 261.606 147.723 259.635L137.743 253.482L138.592 251.568L148.572 257.722C150.694 258.994 151.967 260.69 152.816 262.179C156.636 260.059 160.031 254.33 155.787 251.155L143.467 243.729L144.316 241.816L156.636 249.241C159.182 251.155 159.825 254.33 158.976 256.874L163.013 264.506C164.711 267.898 171.295 264.506 169.598 260.266L163.231 244.784C162.165 242.022 161.316 241.392 159.412 240.544L147.31 234.814L148.159 232.9L160.26 238.63C163.025 239.902 163.656 241.174 164.929 244.36L169.816 255.819C173.211 256.461 175.551 254.754 174.484 251.361L172.144 243.305C171.078 239.489 170.447 235.249 165.984 233.335L153.24 228.03C149.42 226.333 144.958 225.485 141.138 226.757L104.833 238.423L101.438 237.151C99.304 236.372 97.526 237.197 96.4248 239.776C98.2372 240.131 99.304 241.346 99.109 243.099L96.5625 259.429C96.3789 261.056 95.8971 262.374 94.165 262.603C94.5206 264.288 95.3121 265.296 96.5625 266.007C102.298 267.703 106.967 268.975 112.702 269.823C120.56 270.889 131.813 269.823 137.33 264.311L141.792 266.431L140.943 268.127L137.755 266.431C136.906 267.073 135.839 267.703 134.784 268.345C135.208 270.041 140.519 272.803 143.696 272.585C146.472 272.39 148.617 271.233 149.96 269.239Z" fill="#FFE5D9"/>
<path d="M171.721 102.04L170.448 99.7026C166.524 102.636 160.445 101.96 158.69 98.0066C157.829 98.2816 156.946 98.5108 156.04 98.6942C157.657 104.413 165.974 105.994 171.721 102.04Z" fill="white"/>
<path d="M156.431 83.1538C146.256 82.5465 139.408 86.2136 134.177 82.4204L134.556 82.7298C134.2 83.0278 133.867 83.383 133.592 83.7727C132.869 84.7696 132.434 86.0302 132.434 87.3939C132.434 89.2619 133.019 90.8433 134.005 92.1497C137.274 96.4815 144.983 97.9025 150.684 97.5701C152.416 97.467 154.114 97.2836 155.708 96.9742C160.755 96.0231 164.793 93.9145 165.757 89.7202H166.479C163.543 84.6092 159.78 83.3716 156.431 83.1538Z" fill="#FF5E07"/>
<path d="M158.551 136.396C138.614 135.548 121.832 126.002 113.963 108.434C110.476 111.471 106.954 115.058 104.259 118.392C108.4 134.39 125.503 145.747 140.931 148.703C158.367 152.118 175.493 147.317 176.48 133.416C171.18 135.616 165.078 136.682 158.551 136.396Z" fill="#FFE5D9"/>
<path d="M145.382 55.5828C144.017 55.6172 142.789 55.7318 141.711 55.9151C137.02 56.7173 134.978 58.9634 134.943 63.1004C134.943 63.4442 134.955 63.8109 134.978 64.1891C134.978 64.2234 134.978 64.2578 134.978 64.2807C134.978 64.2922 134.978 64.2922 134.978 64.3036C135.414 70.2283 139.233 72.3369 145.806 72.1306C149.569 72.0275 152.448 71.4087 154.387 70.1481C156.383 68.8417 157.38 66.8592 157.277 64.063C157.277 63.9026 157.254 63.7536 157.243 63.6046C156.99 59.5823 155.373 57.1757 151.645 56.1558C150.693 55.8922 149.58 55.7318 148.341 55.6516C147.435 55.5828 146.46 55.5599 145.382 55.5828ZM150.486 70.9388C148.995 70.9388 146.873 69.4491 146.873 66.905L150.269 66.2633L147.298 63.2952C149.638 62.0232 154.088 63.7192 154.088 67.753C154.088 69.2428 153.033 70.9388 150.486 70.9388Z" fill="white"/>
<path d="M142.629 46.6767L143.902 49.4385C146.449 47.9488 152.609 48.3728 154.513 50.9283L156.635 48.8082C153.664 45.187 147.091 44.1327 142.629 46.6767Z" fill="black"/>
<path d="M147.298 63.294L150.269 66.262L146.874 66.9038C146.874 69.4478 148.996 70.9376 150.487 70.9376C153.034 70.9376 154.101 69.2415 154.101 67.7518C154.089 63.718 149.639 62.0219 147.298 63.294Z" fill="black"/>
<path d="M104.625 89.5266C98.4656 89.5266 93.3725 83.1665 93.3725 75.5229C93.3725 69.1627 95.919 67.249 99.9568 67.249C103.352 67.249 106.748 69.793 108.663 74.0331L110.361 73.1851L109.294 71.2713L113.63 70.1597L124.963 67.249L131.594 65.5415C132.442 72.5434 137.753 75.7177 145.818 75.5114C154.306 75.2937 159.617 72.1193 160.466 66.3895C161.957 65.3237 163.437 64.6935 164.504 64.6935C165.353 64.6935 165.995 64.9112 166.419 65.7592C166.419 66.825 166.637 67.673 166.844 68.521C166.201 68.3147 165.777 67.8792 165.353 67.249L163.23 68.097C166.201 73.1851 172.361 70.4348 174.059 73.8268C176.181 77.8607 172.361 81.6767 167.475 79.9807L166.626 82.3185C173.21 84.0145 176.605 80.8287 177.236 76.8064H178.085C181.056 76.8064 183.603 76.1646 185.518 74.8926C186.08 77.0241 186.103 79.8088 185.633 82.4904C186.654 82.032 187.377 81.3215 187.641 80.1984C187.641 80.1984 187.641 80.1984 187.652 80.1984C187.801 77.9409 187.618 75.6145 187.01 73.6206C188.925 71.9245 189.981 69.1627 189.981 65.5644C189.981 60.6826 188.065 57.0842 184.463 55.3882C184.681 51.9961 184.245 48.604 183.19 45.2119C187.858 43.5159 190.623 38.0038 190.623 31.2082C190.623 24.8481 188.076 16.7804 182.983 10.4203C180.012 6.6042 178.097 4.69043 175.344 4.69043C173.646 4.69043 171.524 5.53845 169.402 7.45222C166.006 10.4203 162.611 11.486 159.216 11.486L140.529 11.6923C128.852 11.91 122.486 14.4541 120.57 20.1725L122.486 20.5965C123.977 15.9324 129.701 13.5946 140.529 13.3883L159.216 13.1706C163.035 13.1706 166.431 11.6809 170.251 8.71279C172.166 7.22302 174.07 6.37501 175.344 6.37501C177.259 6.37501 179.163 7.86477 181.71 11.2568C186.379 17.4107 188.925 25.0429 188.925 31.1967C188.925 36.0786 187.652 42.221 182.765 43.5045L181.068 43.9285C182.341 47.7445 182.765 51.1366 182.559 54.7464C181.286 54.3224 179.794 54.1047 178.315 54.1047C171.73 54.1047 167.486 57.0727 166.637 61.7368C165.995 61.5191 165.364 61.3128 164.515 61.3128C163.242 61.3128 161.969 61.7368 160.695 62.5849C160.581 58.9865 159.009 56.156 155.969 54.3683C153.446 52.8785 149.936 52.0992 145.405 52.1909C137.341 52.3972 132.66 55.3767 131.812 61.0951L112.712 66.1832L106.335 67.8792L105.268 67.2375C102.079 58.5396 100.599 39.4477 109.73 32.8813L108.663 32.0333C99.5324 37.7631 99.9568 55.1475 103.352 66.1832C102.285 65.7592 101.012 65.5415 99.9568 65.5415C94.8637 65.5415 91.6748 68.3033 91.6748 75.5114C91.6748 83.9916 97.4103 91.2112 104.625 91.2112C105.784 91.2112 108.124 90.9476 109.386 89.7214C109.329 89.0339 109.283 88.3463 109.26 87.6472C108.09 89.5266 105.807 89.5266 104.625 89.5266ZM178.292 57.4968C181.217 57.5999 183.293 58.276 184.647 59.6283C185.943 60.9232 186.574 62.8599 186.574 65.5644C186.574 71.0765 184.027 73.4143 178.085 73.4143C177.454 73.4143 177.03 73.4143 176.605 73.208L176.56 73.1622L176.388 72.9903C176.089 72.1079 175.378 71.3172 174.449 70.7213C173.382 70.0337 172.017 69.5982 170.652 69.5982C170.388 69.1627 170.216 68.67 170.079 68.1314C169.884 67.3636 169.803 66.4812 169.803 65.3581C169.803 62.7224 170.4 60.7857 171.662 59.4907C173.027 58.0468 175.183 57.3822 178.292 57.4968ZM148.341 55.6517C149.58 55.732 150.693 55.9039 151.645 56.156C155.373 57.1759 156.99 59.5824 157.243 63.6048C157.254 63.7652 157.277 63.9142 157.277 64.0746C157.38 66.8823 156.394 68.8533 154.386 70.1597C152.448 71.4203 149.569 72.0391 145.806 72.1423C139.233 72.3485 135.413 70.24 134.978 64.3153C134.978 64.3038 134.978 64.3038 134.978 64.2924C134.978 64.258 134.978 64.2351 134.978 64.2007C134.955 63.8225 134.943 63.4673 134.943 63.112C134.978 58.9636 137.019 56.729 141.711 55.9268C142.789 55.7434 144.017 55.6288 145.382 55.5944C146.46 55.5601 147.435 55.583 148.341 55.6517Z" fill="black"/>
<path d="M99.9476 67.2466C95.9098 67.2466 93.3633 69.1604 93.3633 75.5205C93.3633 83.1526 98.4564 89.5242 104.616 89.5242C105.798 89.5242 108.08 89.5243 109.251 87.6563C109.09 84.2069 109.159 80.5857 109.503 76.7925L108.654 74.0307C106.75 69.7906 103.354 67.2466 99.9476 67.2466ZM104.41 74.4547C102.919 73.6067 101.439 73.389 100.372 73.813C98.6743 74.4547 98.4564 76.1508 99.0987 77.8468C99.3167 78.4886 99.7411 79.5428 100.372 79.9668L99.5232 81.4566C98.6743 80.8149 97.8255 79.5428 97.4011 78.2708C96.7587 76.1508 96.9766 73.1827 99.7411 72.3347C101.232 71.9107 103.137 72.117 104.834 72.9764L104.41 74.4547Z" fill="#FFE5D9"/>
<path d="M99.7412 72.3403C96.9767 73.1884 96.7702 76.1564 97.4011 78.2765C97.8255 79.5485 98.6744 80.8205 99.5232 81.4623L100.372 79.9725C99.7297 79.5485 99.3053 78.4827 99.0988 77.8525C98.4564 76.1564 98.6744 74.4604 100.372 73.8186C101.439 73.3946 102.919 73.6124 104.41 74.4604L104.834 72.9706C103.137 72.1341 101.232 71.9163 99.7412 72.3403Z" fill="black"/>
<path d="M94.0045 241.605L85.7225 240.964C84.8736 240.964 84.4492 241.388 84.4492 242.029L82.5336 258.577C82.3156 259.643 83.1759 260.067 83.8068 260.067L91.022 260.709C92.5133 260.926 92.7197 260.067 92.7197 259.437L95.2663 243.107C95.4957 242.236 95.2778 241.605 94.0045 241.605ZM88.0625 254.326H85.9404L84.0248 249.444L86.5713 248.172L87.6381 250.716L91.4579 246.476L93.5801 248.172L88.0625 254.326Z" fill="#313C52"/>
<path d="M87.6397 250.728L86.5729 248.172L84.0264 249.456L85.942 254.326H88.0641L93.5816 248.172L91.4595 246.476L87.6397 250.728Z" fill="#3BD302"/>
<path d="M83.6008 261.969C81.6852 261.762 80.4119 260.696 80.6299 258.576L82.5455 242.029C82.7635 240.333 83.3944 238.843 85.7344 239.061L86.6062 239.118C87.4206 236.597 88.4301 234.912 89.9787 233.755C81.9146 231.417 72.3593 229.515 68.3216 228.025C67.576 227.75 66.8303 227.475 66.1077 227.2C50.8284 221.527 41.0437 218.021 29.894 217.207C22.9426 215.855 13.9724 216.531 7.82394 221.378C3.15527 234.328 2.08848 244.859 4.41707 251.357C6.96362 258.359 10.577 264.513 20.5567 267.687C33.5073 271.721 57.0801 272.775 85.1035 264.295C84.9544 263.538 84.8053 262.794 84.725 262.037L83.6008 261.969Z" fill="#FFE5D9"/>
<path d="M67.9429 226.011C68.2067 226.114 68.4706 226.229 68.7459 226.332C68.8262 226.366 68.9065 226.401 68.9982 226.435L77.8767 216.58L76.6034 215.308L68.0461 224.911L67.2891 225.759C67.4955 225.839 67.7135 225.919 67.9429 226.011Z" fill="#2B2B2B"/>
<path d="M68.0351 224.901L68.7463 216.788L67.0486 216.364L66.2686 225.348C66.6012 225.474 66.9453 225.612 67.2895 225.749L68.0351 224.901Z" fill="white"/>
<path d="M276.667 211.205L275.672 215.961L280.432 216.956L281.428 212.2L276.667 211.205Z" fill="#FA8501"/>
<path d="M275.418 217.149L274.423 221.905L279.183 222.899L280.179 218.143L275.418 217.149Z" fill="#FA8501"/>
<path d="M281.437 218.393L280.441 223.148L285.202 224.143L286.198 219.387L281.437 218.393Z" fill="#FA8501"/>
<path d="M282.686 212.462L281.69 217.218L286.451 218.213L287.447 213.457L282.686 212.462Z" fill="#FA8501"/>
<path d="M269.415 215.891L268.419 220.647L273.18 221.642L274.175 216.886L269.415 215.891Z" fill="#FA8501"/>
<path d="M274.185 223.079L273.188 227.835L277.949 228.83L278.945 224.074L274.185 223.079Z" fill="#FA8501"/>
<path d="M273.147 198.071L272.151 202.827L276.912 203.822L277.908 199.066L273.147 198.071Z" fill="#FA8501"/>
<path d="M278.949 230.274L277.953 235.03L282.714 236.024L283.709 231.268L278.949 230.274Z" fill="#FA8501"/>
<path d="M268.17 221.821L267.175 226.577L271.935 227.572L272.931 222.816L268.17 221.821Z" fill="#FA8501"/>
<path d="M270.639 209.943L269.644 214.698L274.404 215.693L275.4 210.937L270.639 209.943Z" fill="#FA8501"/>
<path d="M271.885 204L270.89 208.756L275.65 209.75L276.646 204.995L271.885 204Z" fill="#FA8501"/>
<path d="M286.231 225.604L285.235 230.36L289.996 231.355L290.992 226.599L286.231 225.604Z" fill="#FA8501"/>
<path d="M284.966 231.537L283.971 236.293L288.731 237.288L289.727 232.532L284.966 231.537Z" fill="#FA8501"/>
<path d="M266.915 227.76L265.919 232.516L270.68 233.511L271.675 228.755L266.915 227.76Z" fill="#FA8501"/>
<path d="M287.451 219.65L286.455 224.406L291.216 225.401L292.211 220.645L287.451 219.65Z" fill="#FA8501"/>
<path d="M280.18 224.331L279.185 229.087L283.945 230.082L284.941 225.326L280.18 224.331Z" fill="#FA8501"/>
<path d="M277.73 236.234L276.734 240.99L281.495 241.985L282.491 237.229L277.73 236.234Z" fill="#FA8501"/>
<path d="M271.714 234.975L270.718 239.731L275.478 240.726L276.474 235.97L271.714 234.975Z" fill="#FA8501"/>
<path d="M262.145 220.568L261.149 225.323L265.91 226.318L266.906 221.562L262.145 220.568Z" fill="#FA8501"/>
<path d="M257.391 213.386L256.395 218.142L261.155 219.137L262.151 214.381L257.391 213.386Z" fill="#FA8501"/>
<path d="M272.96 229.028L271.964 233.783L276.724 234.779L277.72 230.023L272.96 229.028Z" fill="#FA8501"/>
<path d="M289.987 216.922L290.572 214.115L291.226 210.986L288.094 210.333L283.334 209.336L282.129 209.084L282.083 209.073L279.204 208.465L279.789 205.658L280.443 202.529L281.028 199.721L281.682 196.593L278.55 195.94L273.79 194.943L270.658 194.29L270.005 197.418L269.42 200.226L268.766 203.354L267.768 208.11L267.538 209.222L267.527 209.302L267.481 209.497L267.114 211.238L266.93 212.109L266.277 215.238L265.692 218.046L264.682 217.839L265.267 215.032L265.921 211.903L262.789 211.25L258.029 210.253L254.897 209.6L254.244 212.728L253.246 217.484L252.592 220.612L255.723 221.266L258.603 221.873L258.018 224.681L257.364 227.809L260.495 228.462L263.374 229.07L262.789 231.877L262.136 235.006L265.267 235.659L268.146 236.266L267.561 239.074L266.907 242.203L270.039 242.856L274.799 243.853L277.931 244.506L280.81 245.113L283.942 245.767L284.596 242.638L285.181 239.83L288.06 240.438L291.191 241.091L291.845 237.962L292.843 233.207L292.924 232.84L293.096 232.015L293.681 229.207L294.334 226.079L295.332 221.323L295.986 218.195L292.855 217.541L289.987 216.922ZM282.691 212.465L287.452 213.462L286.454 218.217L281.693 217.22L282.691 212.465ZM286.202 219.398L285.204 224.154L280.443 223.157L281.441 218.401L286.202 219.398ZM281.43 212.201L280.432 216.957L275.671 215.96L276.669 211.204L281.43 212.201ZM274.432 221.896L275.43 217.14L280.191 218.137L279.193 222.893L274.432 221.896ZM278.94 224.073L277.942 228.829L273.182 227.832L274.18 223.076L278.94 224.073ZM273.148 198.071L277.908 199.068L276.91 203.824L272.15 202.827L273.148 198.071ZM271.909 204.007L276.669 205.004L275.671 209.76L270.911 208.763L271.909 204.007ZM270.658 209.955L275.419 210.952L274.421 215.708L269.661 214.711L270.658 209.955ZM269.42 215.891L274.18 216.888L273.182 221.644L268.422 220.647L269.42 215.891ZM268.169 221.827L272.93 222.824L271.932 227.58L267.171 226.583L268.169 221.827ZM256.4 218.126L257.398 213.37L262.159 214.367L261.161 219.123L256.4 218.126ZM261.161 225.322L262.159 220.567L266.919 221.564L265.921 226.319L261.161 225.322ZM265.932 232.519L266.93 227.763L271.691 228.76L270.693 233.516L265.932 232.519ZM275.465 240.701L270.704 239.704L271.702 234.949L276.463 235.946L275.465 240.701ZM271.955 233.768L272.953 229.012L277.713 230.009L276.715 234.765L271.955 233.768ZM281.476 241.962L276.715 240.965L277.713 236.209L282.474 237.206L281.476 241.962ZM282.726 236.026L277.965 235.029L278.963 230.273L283.724 231.27L282.726 236.026ZM279.204 229.093L280.202 224.337L284.963 225.334L283.965 230.09L279.204 229.093ZM288.737 237.275L283.976 236.278L284.974 231.522L289.735 232.519L288.737 237.275ZM289.975 231.339L285.215 230.342L286.213 225.586L290.973 226.583L289.975 231.339ZM291.226 225.403L286.465 224.406L287.463 219.65L292.224 220.647L291.226 225.403Z" fill="white"/>
<path d="M144.865 201.142L142.422 201.154V203.594L144.865 203.583V201.142Z" fill="white"/>
<path d="M176.893 203.598H184.281V198.67H179.36V201.134H176.893V198.67H171.961V215.906H176.893V203.598Z" fill="white"/>
<path d="M169.506 193.753H164.573V196.217H169.506V193.753Z" fill="white"/>
<path d="M134.992 211H132.549V213.44H134.992V211Z" fill="white"/>
<path d="M189.212 213.441H191.679V215.905H196.6V213.441H194.145V201.133H196.6V198.669H194.145V193.753H189.212V198.669H186.746V201.133H189.212V213.441Z" fill="white"/>
<path d="M152.255 201.133H157.187V215.905H162.108V201.133H159.642V198.669H152.255V193.753H147.322V215.905H152.255V201.133Z" fill="white"/>
<path d="M135.004 208.512L137.47 208.524V210.976H139.936V213.44H135.004V215.904H142.379L142.402 213.44H144.869V208.535H142.379V206.071L139.936 206.06V203.596H137.47V201.132H142.402V198.691L135.004 198.68V201.121L132.549 201.144V206.049H135.004V208.512Z" fill="white"/>
<path d="M169.506 198.67H164.573V215.906H169.506V198.67Z" fill="white"/>
<path d="M122.681 213.441H125.148V215.905H130.08V213.441H127.614V201.133H130.08V198.669H127.614V193.753H122.681V198.669H120.227V201.133H122.681V213.441Z" fill="#F58A1F"/>
</svg>
