<?xml version="1.0" encoding="UTF-8"?>
<!DOCTYPE svg PUBLIC "-//W3C//DTD SVG 1.1//EN" "http://www.w3.org/Graphics/SVG/1.1/DTD/svg11.dtd">
<!-- Creator: CorelDRAW -->
<svg xmlns="http://www.w3.org/2000/svg" xml:space="preserve" width="404.75mm" height="266.419mm" version="1.1" style="shape-rendering:geometricPrecision; text-rendering:geometricPrecision; image-rendering:optimizeQuality; fill-rule:evenodd; clip-rule:evenodd"
viewBox="0 0 11921.55 7847.14"
 xmlns:xlink="http://www.w3.org/1999/xlink"
 xmlns:xodm="http://www.corel.com/coreldraw/odm/2003">
 <defs>
  <style type="text/css">
   <![CDATA[
    .fil2 {fill:#555555}
    .fil0 {fill:#FFFAE6}
    .fil1 {fill:#F7F0EA;fill-rule:nonzero}
   ]]>
  </style>
 </defs>
 <g id="Layer_x0020_1">
  <metadata id="CorelCorpID_0Corel-Layer"/>
  <g>
   <path class="fil0" d="M262.07 1.4l11397.42 0c142.56,0 259.19,116.64 259.19,259.19l0 7325.96c0,142.56 -116.64,259.19 -259.19,259.19l-11397.42 0c-142.56,0 -259.19,-116.64 -259.19,-259.19l0 -7325.96c0,-142.56 116.64,-259.19 259.19,-259.19z"/>
   <path id="_1" class="fil1" d="M11658.28 2.79l-11397.42 0 2.41 -2.79 11397.42 0 0 0 -2.41 2.79zm263.27 257.21l-5.74 1.17 0 0 -0.34 -13.26 -1.01 -13.09 -1.65 -12.91 -2.29 -12.7 -2.9 -12.49 -3.5 -12.26 -4.09 -12 -4.65 -11.73 -5.2 -11.45 -5.73 -11.15 -6.25 -10.83 -6.74 -10.49 -7.23 -10.14 -7.69 -9.78 -8.14 -9.39 -8.57 -8.99 -8.99 -8.57 -9.39 -8.14 -9.76 -7.68 -10.13 -7.21 -10.47 -6.73 -10.8 -6.23 -11.12 -5.71 -11.4 -5.18 -11.68 -4.63 -11.93 -4.06 -12.18 -3.48 -12.39 -2.88 -12.59 -2.26 -12.76 -1.63 -12.91 -0.99 -13.06 -0.33 2.41 -2.79 13.52 0.34 13.32 1.02 13.1 1.68 12.87 2.32 12.64 2.94 12.38 3.53 12.12 4.12 11.83 4.69 11.54 5.24 11.23 5.77 10.9 6.29 10.56 6.79 10.21 7.27 9.83 7.74 9.45 8.19 9.04 8.62 8.62 9.04 8.19 9.44 7.73 9.82 7.26 10.19 6.78 10.54 6.27 10.88 5.76 11.2 5.22 11.5 4.67 11.78 4.1 12.05 3.51 12.3 2.91 12.54 2.29 12.76 1.66 12.96 1.01 13.14 0.34 13.31 0 0zm-5.74 7327.14l0 -7325.96 5.74 -1.17 0 7325.96 0 0 -5.74 1.17zm-257.53 260l2.41 -2.79 0 0 13.02 -0.33 12.82 -0.98 12.62 -1.61 12.39 -2.23 12.17 -2.83 11.95 -3.41 11.71 -3.99 11.47 -4.55 11.22 -5.09 10.95 -5.63 10.67 -6.16 10.36 -6.66 10.04 -7.15 9.69 -7.63 9.33 -8.09 8.94 -8.52 8.53 -8.95 8.11 -9.35 7.66 -9.74 7.2 -10.11 6.73 -10.47 6.24 -10.81 5.72 -11.13 5.19 -11.43 4.64 -11.72 4.08 -11.99 3.5 -12.24 2.9 -12.48 2.28 -12.7 1.65 -12.9 1 -13.09 0.34 -13.26 5.74 -1.17 -0.34 13.32 -1.01 13.15 -1.66 12.97 -2.29 12.76 -2.92 12.54 -3.51 12.31 -4.1 12.06 -4.67 11.8 -5.23 11.51 -5.76 11.22 -6.29 10.9 -6.79 10.57 -7.28 10.22 -7.76 9.86 -8.22 9.48 -8.66 9.08 -9.09 8.67 -9.51 8.24 -9.91 7.8 -10.3 7.34 -10.67 6.86 -11.04 6.37 -11.39 5.85 -11.72 5.32 -12.04 4.77 -12.34 4.2 -12.61 3.6 -12.85 2.99 -13.07 2.35 -13.25 1.7 -13.41 1.03 -13.55 0.34 0 0zm-11395.01 -2.79l11397.42 0 -2.41 2.79 -11397.42 0 0 0 2.41 -2.79zm-263.27 -257.21l5.74 -1.17 0 0 0.34 13.26 1.01 13.09 1.65 12.91 2.29 12.7 2.9 12.49 3.5 12.26 4.09 12 4.65 11.73 5.2 11.45 5.73 11.15 6.25 10.83 6.74 10.49 7.23 10.14 7.69 9.78 8.14 9.39 8.57 8.99 8.99 8.57 9.39 8.14 9.76 7.68 10.13 7.21 10.47 6.73 10.8 6.23 11.12 5.71 11.4 5.18 11.68 4.63 11.93 4.06 12.18 3.48 12.39 2.88 12.59 2.26 12.76 1.63 12.91 0.99 13.06 0.33 -2.41 2.79 -13.52 -0.34 -13.32 -1.02 -13.1 -1.68 -12.87 -2.32 -12.64 -2.94 -12.38 -3.53 -12.12 -4.12 -11.83 -4.69 -11.54 -5.24 -11.23 -5.77 -10.9 -6.29 -10.56 -6.79 -10.21 -7.27 -9.83 -7.74 -9.45 -8.19 -9.04 -8.62 -8.62 -9.04 -8.19 -9.44 -7.73 -9.82 -7.26 -10.19 -6.78 -10.54 -6.27 -10.88 -5.76 -11.2 -5.22 -11.5 -4.67 -11.78 -4.1 -12.05 -3.51 -12.3 -2.91 -12.54 -2.29 -12.76 -1.66 -12.96 -1.01 -13.14 -0.34 -13.31 0 0zm5.74 -7327.14l0 7325.96 -5.74 1.17 0 -7325.96 0 0 5.74 -1.17zm257.53 -260l-2.41 2.79 0 0 -13.02 0.33 -12.82 0.98 -12.62 1.61 -12.39 2.23 -12.17 2.83 -11.95 3.41 -11.71 3.99 -11.47 4.55 -11.22 5.09 -10.95 5.63 -10.67 6.16 -10.36 6.66 -10.04 7.15 -9.69 7.63 -9.33 8.09 -8.94 8.52 -8.53 8.95 -8.11 9.35 -7.66 9.74 -7.2 10.11 -6.73 10.47 -6.24 10.81 -5.72 11.13 -5.19 11.43 -4.64 11.72 -4.08 11.99 -3.5 12.24 -2.9 12.48 -2.28 12.7 -1.65 12.9 -1 13.09 -0.34 13.26 -5.74 1.17 0.34 -13.32 1.01 -13.15 1.66 -12.97 2.29 -12.76 2.92 -12.54 3.51 -12.31 4.1 -12.06 4.67 -11.8 5.23 -11.51 5.76 -11.22 6.29 -10.9 6.79 -10.57 7.28 -10.22 7.76 -9.86 8.22 -9.48 8.66 -9.08 9.09 -8.67 9.51 -8.24 9.91 -7.8 10.3 -7.34 10.67 -6.86 11.04 -6.37 11.39 -5.85 11.72 -5.32 12.04 -4.77 12.34 -4.2 12.61 -3.6 12.85 -2.99 13.07 -2.35 13.25 -1.7 13.41 -1.03 13.55 -0.34 0 0z"/>
  </g>
  <g id="_3163199267008">
   <path class="fil2" d="M9005.02 4350.64c428.12,-90.52 540.93,404.31 180.71,488.88 -412.25,96.79 -551.29,-410.52 -180.71,-488.88zm31.19 -771.89c328.07,-78.64 407.49,360.72 130.31,443.78 -297.19,89.06 -477.57,-360.54 -130.31,-443.78zm657.65 16.74c221.16,-67.7 307.34,-486.23 10.59,-351.92 -332.66,150.56 -961.41,-184.49 -1196.14,315.5 -113.61,241.97 -17.32,477.07 141.29,576.39 -32.07,51.89 -1.99,7.43 -35.08,43.92 -6.58,7.25 -25.2,24.96 -35.07,34.23 -27.6,25.91 -40.89,34.6 -66.33,61.9 -137.41,147.45 -158.05,390.74 -73.26,568.75 217.79,457.28 1099.31,432.9 1307.55,-2.77 58.86,-123.14 60.04,-294.72 8.41,-428.18 -57.1,-147.6 -105.25,-176.85 -218.78,-258.79 142.18,-123.94 222.46,-287.34 156.83,-559.03z"/>
   <path class="fil2" d="M1158.13 3623.6c395.35,-181.03 588.08,470.46 221.33,597.35 -374.97,129.74 -627.97,-411.16 -221.33,-597.35zm419.61 -282.47c-125.54,-27.11 -385.79,-205.06 -729.8,3.02 -605.12,366.02 -248.77,1414.65 502.75,1236.96 166.32,-39.32 210.59,-94.37 320.85,-155.21 82.89,85.08 144.81,160.7 283.44,131.69 36.07,-126.91 35.95,-1718.75 2.21,-1862.7 -159.35,-25.27 -254.53,75.62 -315.81,190.39 -72.09,135.03 -63.65,289.46 -63.65,455.85z"/>
   <path class="fil2" d="M10546.78 3624.73c393.2,-198.08 589.65,448.35 256.68,588.96 -394.3,166.51 -624.15,-403.84 -256.68,-588.96zm812.3 456.2c208.9,-937.6 -1217.03,-1144.65 -1388.97,-312.74 -192.68,932.23 1208.34,1123.5 1388.97,312.74z"/>
   <path class="fil2" d="M4372.61 3623.27c388.89,-188.32 598.3,439.69 257.32,589.24 -396.98,174.12 -626.36,-410.54 -257.32,-589.24zm-576.14 414.5c54.51,346.71 383.22,601.69 800.36,551.56 363.33,-43.67 656.03,-345.8 602.28,-755.73 -115.78,-882.91 -1550.57,-736.69 -1402.64,204.17z"/>
   <path class="fil2" d="M6899.36 4508.88c61.8,57.88 271.31,58.9 327.42,-9.27 112.01,-136.09 -140.82,-859.1 293.1,-881.02 296.33,-14.98 285.02,250.59 284.47,505.5 -0.65,307.01 -59.36,522.27 356.6,402.77 77.73,-114.86 46.08,-427.62 42.99,-597.27 -14.96,-822.93 -752.87,-777.3 -1023.25,-497.47 -93.73,-65.81 -142.3,-185.61 -302.04,-143.7 -50.76,115.65 -23.4,470.21 -23.42,619.84 -0.03,150.07 -55.76,513.79 44.13,600.6z"/>
   <path class="fil2" d="M2269.68 3318.31c-33.93,119.95 -24.35,459.27 -19.55,612.2 11.45,364.64 184.99,658.08 587.62,659.5 271.63,0.96 330.65,-116.54 430.81,-172.91l134.07 115.01c137.58,83.91 176.44,2.8 178.99,-125.68 4.39,-221.86 9.68,-970.18 -25.46,-1088.47 -103.73,-36.76 -256.65,-35.85 -361.24,-1.2 -92.84,290.55 131.41,898.78 -293.25,902.26 -393.16,3.23 -196.39,-605.98 -274.18,-901.45 -101.15,-36.59 -256.65,-35.91 -357.81,0.75z"/>
   <path class="fil2" d="M5818.23 2697.36c-197.26,-38.94 -304.08,113.66 -353.89,277.99 -46.3,152.77 -28.46,454.91 -28.46,630.8 0,223.14 0.65,446.39 -0.29,669.53 -0.43,100.95 -16.69,223.47 59.48,256.78 79.9,34.94 243.51,21.19 297.62,-19.1 58.12,-59.12 45.81,-84.43 45.33,-194.16 -1.38,-318.23 18.29,-1485.06 -19.79,-1621.84z"/>
   <path class="fil2" d="M6500.98 3309.92c-156.95,-40.85 -349.89,-58.73 -358.75,122.64l1.48 992.69c16.22,155.39 221.61,140.42 355.48,101.62 72.51,-52 72.73,-1105.86 1.79,-1216.95z"/>
   <path class="fil2" d="M6550.36 2958.7c104.46,-276.97 -320.85,-406.47 -416.03,-154.45 -106.74,282.61 321.36,405.45 416.03,154.45z"/>
  </g>
 </g>
</svg>
