<?xml version="1.0" encoding="UTF-8"?>
<!DOCTYPE svg PUBLIC "-//W3C//DTD SVG 1.1//EN" "http://www.w3.org/Graphics/SVG/1.1/DTD/svg11.dtd">
<!-- Creator: CorelDRAW -->
<svg xmlns="http://www.w3.org/2000/svg" xml:space="preserve" width="404.75mm" height="266.419mm" version="1.1" style="shape-rendering:geometricPrecision; text-rendering:geometricPrecision; image-rendering:optimizeQuality; fill-rule:evenodd; clip-rule:evenodd"
viewBox="0 0 12408.59 8167.72"
 xmlns:xlink="http://www.w3.org/1999/xlink"
 xmlns:xodm="http://www.corel.com/coreldraw/odm/2003">
 <defs>
  <style type="text/css">
   <![CDATA[
    .fil0 {fill:#EFE7EE}
    .fil1 {fill:#F7F0EA;fill-rule:nonzero}
    .fil2 {fill:#555555;fill-rule:nonzero}
   ]]>
  </style>
 </defs>
 <g id="Layer_x0020_1">
  <metadata id="CorelCorpID_0Corel-Layer"/>
  <g>
   <path class="fil0" d="M272.77 1.45l11863.05 0c148.38,0 269.78,121.4 269.78,269.78l0 7625.25c0,148.38 -121.4,269.78 -269.78,269.78l-11863.05 0c-148.38,0 -269.78,-121.4 -269.78,-269.78l0 -7625.25c0,-148.38 121.4,-269.78 269.78,-269.78z"/>
   <path id="_1" class="fil1" d="M12134.56 2.91l-11863.05 0 2.51 -2.91 11863.05 0 0 0 -2.51 2.91zm274.03 267.72l-5.98 1.22 0 0 -0.35 -13.8 -1.05 -13.62 -1.72 -13.43 -2.38 -13.22 -3.02 -13 -3.64 -12.76 -4.25 -12.49 -4.84 -12.21 -5.41 -11.92 -5.96 -11.6 -6.51 -11.27 -7.02 -10.92 -7.52 -10.56 -8 -10.18 -8.48 -9.78 -8.92 -9.36 -9.35 -8.92 -9.77 -8.47 -10.16 -8 -10.54 -7.51 -10.9 -7.01 -11.25 -6.49 -11.57 -5.94 -11.87 -5.39 -12.16 -4.82 -12.42 -4.22 -12.67 -3.62 -12.89 -3 -13.1 -2.35 -13.28 -1.7 -13.44 -1.03 -13.59 -0.35 2.51 -2.91 14.07 0.36 13.86 1.06 13.64 1.74 13.4 2.41 13.16 3.06 12.89 3.68 12.61 4.29 12.32 4.88 12.01 5.45 11.69 6.01 11.35 6.55 10.99 7.06 10.62 7.57 10.24 8.05 9.83 8.53 9.41 8.97 8.97 9.41 8.52 9.83 8.05 10.22 7.55 10.61 7.05 10.97 6.53 11.32 5.99 11.65 5.43 11.97 4.86 12.26 4.26 12.55 3.66 12.81 3.03 13.05 2.39 13.28 1.73 13.49 1.05 13.68 0.35 13.86 0 0zm-5.98 7626.47l0 -7625.25 5.98 -1.22 0 7625.25 0 0 -5.98 1.22zm-268.05 270.63l2.51 -2.91 0 0 13.55 -0.35 13.34 -1.02 13.13 -1.68 12.9 -2.32 12.67 -2.94 12.43 -3.55 12.19 -4.15 11.94 -4.73 11.68 -5.3 11.4 -5.86 11.1 -6.41 10.79 -6.93 10.44 -7.44 10.08 -7.94 9.71 -8.42 9.3 -8.87 8.88 -9.31 8.44 -9.74 7.98 -10.14 7.5 -10.53 7 -10.9 6.49 -11.25 5.95 -11.58 5.4 -11.9 4.83 -12.2 4.25 -12.48 3.64 -12.74 3.02 -12.99 2.38 -13.22 1.72 -13.43 1.05 -13.62 0.35 -13.8 5.98 -1.22 -0.35 13.86 -1.05 13.68 -1.73 13.5 -2.39 13.28 -3.04 13.06 -3.66 12.82 -4.27 12.56 -4.87 12.28 -5.44 11.98 -6 11.67 -6.55 11.34 -7.07 11 -7.58 10.64 -8.08 10.26 -8.55 9.87 -9.02 9.45 -9.46 9.03 -9.9 8.58 -10.32 8.12 -10.72 7.64 -11.11 7.14 -11.49 6.63 -11.86 6.09 -12.2 5.54 -12.54 4.97 -12.84 4.37 -13.13 3.75 -13.38 3.11 -13.6 2.44 -13.79 1.77 -13.96 1.07 -14.11 0.36 0 0zm-11860.54 -2.91l11863.05 0 -2.51 2.91 -11863.05 0 0 0 2.51 -2.91zm-274.03 -267.72l5.98 -1.22 0 0 0.35 13.8 1.05 13.62 1.72 13.43 2.38 13.22 3.02 13 3.64 12.76 4.25 12.49 4.84 12.21 5.41 11.92 5.96 11.6 6.51 11.27 7.02 10.92 7.52 10.56 8 10.18 8.48 9.78 8.92 9.35 9.36 8.92 9.77 8.47 10.16 8 10.54 7.51 10.9 7.01 11.25 6.49 11.57 5.94 11.87 5.39 12.16 4.82 12.42 4.22 12.67 3.62 12.89 3 13.1 2.35 13.28 1.7 13.44 1.03 13.59 0.35 -2.51 2.91 -14.07 -0.36 -13.86 -1.06 -13.64 -1.74 -13.4 -2.41 -13.16 -3.06 -12.89 -3.68 -12.61 -4.29 -12.32 -4.88 -12.01 -5.45 -11.69 -6.01 -11.35 -6.55 -10.99 -7.06 -10.62 -7.57 -10.24 -8.05 -9.83 -8.53 -9.41 -8.97 -8.97 -9.41 -8.52 -9.83 -8.05 -10.22 -7.55 -10.61 -7.05 -10.97 -6.53 -11.32 -5.99 -11.65 -5.43 -11.97 -4.86 -12.26 -4.26 -12.55 -3.66 -12.81 -3.03 -13.05 -2.39 -13.28 -1.73 -13.49 -1.05 -13.68 -0.35 -13.86 0 0zm5.98 -7626.47l0 7625.25 -5.98 1.22 0 -7625.25 0 0 5.98 -1.22zm268.05 -270.63l-2.51 2.91 0 0 -13.55 0.35 -13.34 1.02 -13.13 1.68 -12.9 2.32 -12.67 2.94 -12.43 3.55 -12.19 4.15 -11.94 4.73 -11.68 5.3 -11.4 5.86 -11.1 6.41 -10.79 6.93 -10.44 7.44 -10.08 7.94 -9.71 8.42 -9.3 8.87 -8.88 9.31 -8.44 9.74 -7.98 10.14 -7.5 10.53 -7 10.9 -6.49 11.25 -5.95 11.58 -5.4 11.9 -4.83 12.2 -4.25 12.48 -3.64 12.74 -3.02 12.99 -2.38 13.22 -1.72 13.43 -1.05 13.62 -0.35 13.8 -5.98 1.22 0.35 -13.86 1.05 -13.68 1.73 -13.5 2.39 -13.28 3.04 -13.06 3.66 -12.82 4.27 -12.56 4.87 -12.28 5.44 -11.98 6 -11.67 6.55 -11.34 7.07 -11 7.58 -10.64 8.08 -10.26 8.55 -9.87 9.01 -9.45 9.46 -9.02 9.9 -8.58 10.32 -8.12 10.72 -7.64 11.11 -7.14 11.49 -6.63 11.86 -6.09 12.2 -5.54 12.54 -4.97 12.84 -4.37 13.13 -3.75 13.38 -3.11 13.6 -2.44 13.79 -1.77 13.96 -1.07 14.11 -0.36 0 0z"/>
  </g>
  <g id="_3163028086768">
   <path class="fil2" d="M8377.1 4930.86c-708.46,0 -1296.31,-487.39 -1296.31,-1317.44 0,-791.58 607.19,-1288.53 1272.19,-1288.53 674.56,0 1252.86,458.49 1252.86,1346.34l0 96.48c0,19.34 -19.34,38.67 -43.26,38.67l-1860.25 0c48.24,395.69 337.28,641.87 693.9,641.87 226.65,0 453.1,-77.35 568.72,-284.86 4.79,-9.57 14.36,-14.36 28.9,-14.36l549.38 0.01c19.34,0 33.69,19.34 28.9,38.67 -168.65,521.07 -689.12,743.14 -1195.05,743.14l0.01 -0.01zm-33.89 -2123.37c-327.51,0 -602.21,207.51 -645.66,559.75l1272.19 0c-28.9,-337.88 -279.47,-559.75 -626.52,-559.75l-0.01 0zm0 0z"/>
   <path class="fil2" d="M6146.08 4882.61l-558.95 0c-14.55,0 -24.12,-9.77 -24.12,-24.32l0 -2441.72c0,-14.55 9.57,-29.11 24.12,-29.11l544.4 0c19.34,0 28.9,14.55 28.9,29.11l0 352.23c53.02,-86.91 115.82,-168.84 197.74,-236.41 149.31,-115.82 289.04,-164.06 505.93,-164.06 57.81,0 101.26,0 139.74,9.57 9.57,0 33.69,9.57 33.69,33.89l0 521.07c0,19.34 -14.35,33.89 -33.69,28.9 -96.48,-4.79 -149.31,-4.79 -212.1,-4.79 -269.91,0 -616.75,96.48 -616.75,583.87l0 1312.66c0,19.34 -9.57,29.1 -28.9,29.1l-0.01 0zm0 0z"/>
   <path class="fil2" d="M4084.51 5842.84c-684.14,0 -1113.11,-318.54 -1209.6,-810.72 -4.79,-19.34 9.77,-33.69 28.9,-33.69l549.38 0.01c14.55,0 24.12,4.79 28.9,19.13 72.36,226.85 274.7,352.44 607.19,352.44 347.05,0 573.51,-178.61 573.51,-554.97l0 -376.55c-139.74,226.85 -399.88,371.57 -751.71,371.57 -607.19,0 -1108.34,-448.72 -1108.34,-1249.86 0,-781.82 525.26,-1235.31 1117.9,-1235.31 347.05,0 602.41,149.5 746.93,390.91l0 -303.99c0,-14.55 14.55,-29.11 28.9,-29.11l549.38 0c14.55,0 28.9,14.55 28.9,29.11l0 2379.12c0,709.25 -525.26,1051.92 -1190.26,1051.92zm-28.9 -1534.52c342.26,0 611.98,-284.86 611.98,-748.12 0,-463.26 -274.7,-728.59 -611.98,-728.59 -351.64,0 -621.54,279.88 -621.54,728.59 0,463.26 269.91,748.12 621.54,748.12zm0 0z"/>
  </g>
  <path class="fil2" d="M10038.61 4505.14l63.18 0c32.69,0 48.24,-15.35 48.24,-41.86 0,-26.52 -17.14,-43.66 -48.24,-43.66l-63.18 0 0 85.52zm0 59l0 116.42 -69.77 0 0 -318.15 150.3 0c68.17,0 103.85,46.45 103.85,99.47 0,46.45 -27.91,76.15 -62,88.71l0 1.79c4.59,5.98 7.77,10.57 16.95,31.1l54.22 97.48 -80.73 0 -55.81 -104.05c-4.59,-10.57 -7.77,-12.36 -20.14,-12.36l-37.28 0 0.4 -0.4zm292.63 -40.47c0,-130.36 -108.25,-248.38 -241.8,-248.38 -133.36,0 -241.6,116.21 -241.6,248.38 0,132.36 108.25,246.99 241.6,246.99 133.56,0 241.8,-113.62 241.8,-246.99zm-551.77 0c0,-174.02 137.94,-312.16 309.98,-312.16 172.23,0 311.57,131.96 311.57,312.16 0,180.2 -142.53,310.37 -311.57,310.37 -168.84,0 -309.98,-137.94 -309.98,-310.37zm0 0z"/>
 </g>
</svg>
