<?xml version="1.0" encoding="UTF-8"?>
<!DOCTYPE svg PUBLIC "-//W3C//DTD SVG 1.1//EN" "http://www.w3.org/Graphics/SVG/1.1/DTD/svg11.dtd">
<!-- Creator: CorelDRAW -->
<svg xmlns="http://www.w3.org/2000/svg" xml:space="preserve" width="404.75mm" height="266.419mm" version="1.1" style="shape-rendering:geometricPrecision; text-rendering:geometricPrecision; image-rendering:optimizeQuality; fill-rule:evenodd; clip-rule:evenodd"
viewBox="0 0 33177.35 21838.38"
 xmlns:xlink="http://www.w3.org/1999/xlink"
 xmlns:xodm="http://www.corel.com/coreldraw/odm/2003">
 <defs>
  <style type="text/css">
   <![CDATA[
    .fil2 {fill:#555555}
    .fil0 {fill:#F9E6EA}
    .fil1 {fill:#F7F0EA;fill-rule:nonzero}
   ]]>
  </style>
 </defs>
 <g id="Layer_x0020_1">
  <metadata id="CorelCorpID_0Corel-Layer"/>
  <g>
   <path class="fil0" d="M729.32 3.89l31718.71 0c396.73,0 721.33,324.59 721.33,721.33l0 20387.95c0,396.73 -324.59,721.33 -721.33,721.33l-31718.71 0c-396.73,0 -721.33,-324.59 -721.33,-721.33l0 -20387.95c0,-396.73 324.59,-721.33 721.33,-721.33z"/>
   <path id="_1" class="fil1" d="M32444.68 7.77l-31718.71 0 6.71 -7.77 31718.71 0 0 0 -6.71 7.77zm732.67 715.81l-15.98 3.26 0 0 -0.94 -36.9 -2.8 -36.43 -4.59 -35.92 -6.36 -35.35 -8.07 -34.75 -9.73 -34.11 -11.37 -33.39 -12.93 -32.66 -14.47 -31.86 -15.93 -31.03 -17.39 -30.14 -18.76 -29.21 -20.12 -28.22 -21.4 -27.21 -22.66 -26.14 -23.85 -25.02 -25.02 -23.85 -26.12 -22.65 -27.17 -21.39 -28.19 -20.07 -29.15 -18.74 -30.07 -17.34 -30.94 -15.89 -31.74 -14.41 -32.51 -12.89 -33.21 -11.3 -33.89 -9.67 -34.47 -8.01 -35.03 -6.3 -35.52 -4.55 -35.94 -2.76 -36.34 -0.93 6.71 -7.77 37.62 0.96 37.07 2.84 36.47 4.66 35.83 6.44 35.17 8.17 34.46 9.84 33.72 11.48 32.94 13.05 32.12 14.57 31.25 16.06 30.35 17.51 29.39 18.89 28.4 20.24 27.37 21.53 26.29 22.8 25.16 23.98 23.98 25.16 22.78 26.27 21.52 27.34 20.2 28.37 18.86 29.34 17.46 30.27 16.02 31.16 14.52 31.99 13 32.79 11.4 33.54 9.78 34.24 8.11 34.89 6.38 35.5 4.62 36.07 2.8 36.58 0.94 37.05 0 0zm-15.98 20391.21l0 -20387.95 15.98 -3.26 0 20387.95 0 0 -15.98 3.26zm-716.69 723.58l6.71 -7.77 0 0 36.24 -0.93 35.67 -2.74 35.11 -4.49 34.48 -6.21 33.87 -7.87 33.25 -9.48 32.6 -11.09 31.93 -12.66 31.23 -14.17 30.48 -15.66 29.69 -17.13 28.84 -18.53 27.93 -19.89 26.96 -21.22 25.95 -22.5 24.88 -23.72 23.74 -24.89 22.57 -26.03 21.33 -27.11 20.05 -28.15 18.72 -29.13 17.35 -30.08 15.92 -30.97 14.43 -31.81 12.93 -32.62 11.35 -33.36 9.73 -34.07 8.07 -34.73 6.35 -35.34 4.6 -35.9 2.8 -36.42 0.94 -36.89 15.98 -3.26 -0.94 37.06 -2.81 36.58 -4.61 36.08 -6.39 35.52 -8.12 34.91 -9.78 34.27 -11.42 33.57 -13.01 32.83 -14.55 32.04 -16.03 31.21 -17.5 30.33 -18.9 29.41 -20.26 28.44 -21.59 27.44 -22.87 26.38 -24.1 25.27 -25.3 24.13 -26.46 22.94 -27.58 21.7 -28.66 20.42 -29.71 19.1 -30.72 17.72 -31.71 16.29 -32.62 14.81 -33.52 13.28 -34.34 11.68 -35.1 10.02 -35.77 8.31 -36.37 6.53 -36.88 4.72 -37.33 2.87 -37.71 0.96 0 0zm-31712 -7.77l31718.71 0 -6.71 7.77 -31718.71 0 0 0 6.71 -7.77zm-732.67 -715.81l15.98 -3.26 0 0 0.94 36.9 2.8 36.43 4.59 35.92 6.36 35.35 8.07 34.75 9.73 34.11 11.37 33.39 12.93 32.66 14.47 31.86 15.93 31.03 17.39 30.14 18.76 29.21 20.12 28.22 21.4 27.21 22.66 26.14 23.86 25.01 25.01 23.86 26.12 22.65 27.17 21.39 28.19 20.07 29.15 18.74 30.07 17.34 30.94 15.89 31.74 14.41 32.51 12.89 33.21 11.3 33.89 9.67 34.47 8.01 35.03 6.3 35.52 4.55 35.94 2.76 36.34 0.93 -6.71 7.77 -37.62 -0.96 -37.07 -2.84 -36.47 -4.66 -35.83 -6.44 -35.17 -8.17 -34.46 -9.84 -33.72 -11.48 -32.94 -13.05 -32.12 -14.57 -31.25 -16.06 -30.35 -17.51 -29.39 -18.89 -28.4 -20.24 -27.37 -21.53 -26.29 -22.8 -25.16 -23.99 -23.99 -25.16 -22.78 -26.27 -21.52 -27.34 -20.2 -28.37 -18.86 -29.34 -17.46 -30.27 -16.02 -31.16 -14.52 -31.99 -13 -32.79 -11.4 -33.54 -9.78 -34.24 -8.11 -34.89 -6.38 -35.5 -4.62 -36.07 -2.8 -36.58 -0.94 -37.05 0 0zm15.98 -20391.21l0 20387.95 -15.98 3.26 0 -20387.95 0 0 15.98 -3.26zm716.69 -723.58l-6.71 7.77 0 0 -36.24 0.93 -35.67 2.74 -35.11 4.49 -34.48 6.21 -33.87 7.87 -33.25 9.48 -32.6 11.09 -31.93 12.66 -31.23 14.17 -30.48 15.66 -29.69 17.13 -28.84 18.53 -27.93 19.89 -26.96 21.22 -25.95 22.5 -24.87 23.71 -23.75 24.9 -22.57 26.03 -21.33 27.11 -20.05 28.15 -18.72 29.13 -17.35 30.08 -15.92 30.97 -14.43 31.81 -12.93 32.62 -11.35 33.36 -9.73 34.07 -8.07 34.73 -6.35 35.34 -4.6 35.9 -2.8 36.42 -0.94 36.89 -15.98 3.26 0.94 -37.06 2.81 -36.58 4.61 -36.08 6.39 -35.52 8.12 -34.91 9.78 -34.27 11.42 -33.57 13.01 -32.83 14.55 -32.04 16.03 -31.21 17.5 -30.33 18.9 -29.41 20.26 -28.44 21.59 -27.44 22.87 -26.38 24.11 -25.28 25.3 -24.12 26.46 -22.94 27.58 -21.7 28.66 -20.42 29.71 -19.1 30.72 -17.72 31.71 -16.29 32.62 -14.81 33.52 -13.28 34.34 -11.68 35.1 -10.02 35.77 -8.31 36.37 -6.53 36.88 -4.72 37.33 -2.87 37.71 -0.96 0 0z"/>
  </g>
  <g id="_3162806018304">
   <polygon class="fil2" points="24444.86,7479.3 24204.53,7479.3 24204.53,7509.32 24054.33,7509.32 24054.33,7539.37 23934.15,7539.37 23934.15,7569.43 23783.94,7569.43 23783.94,7599.44 23693.82,7599.44 23693.82,7629.5 23633.7,7629.5 23633.7,7659.55 23483.5,7659.55 23483.5,7689.57 23453.45,7689.57 23453.45,7719.63 23393.37,7719.63 23393.37,7749.68 23303.25,7749.68 23303.25,7779.7 23273.19,7779.7 23273.19,7809.75 23213.12,7809.75 23213.12,7839.81 23153.04,7839.81 23153.04,7869.83 23122.99,7869.83 23122.99,7899.88 23062.91,7899.88 23062.91,7929.94 23032.86,7929.94 23032.86,7959.95 22972.78,7959.95 22972.78,7990.01 22942.73,7990.01 22942.73,8020.06 22912.68,8020.06 22912.68,8050.09 22882.66,8050.09 22882.66,8080.14 22822.55,8080.14 22822.55,8110.2 22792.53,8110.2 22792.53,8140.22 22762.47,8140.22 22762.47,8170.27 22732.42,8170.27 22732.42,8200.32 22702.4,8200.32 22702.4,8230.34 22672.35,8230.34 22672.35,8260.4 22642.29,8260.4 22642.29,8320.47 22612.27,8320.47 22612.27,8350.53 22582.21,8350.53 22582.21,8380.58 22552.16,8380.58 22552.16,8440.65 22522.15,8440.65 22522.15,8470.71 22492.09,8470.71 22492.09,8530.79 22462.04,8530.79 22462.04,8560.84 22432.01,8560.84 22432.01,8620.91 22401.96,8620.91 22401.96,8680.99 22371.9,8680.99 22371.9,8771.11 22341.89,8771.11 22341.89,8831.22 22311.84,8831.22 22311.84,8921.35 22281.78,8921.35 22281.78,9041.5 22251.76,9041.5 22251.76,9101.61 22221.7,9101.61 22221.7,9281.87 22191.65,9281.87 22191.65,9822.63 22221.7,9822.63 22221.7,9942.79 22251.76,9942.79 22251.76,10002.89 22281.78,10002.89 22281.78,10123.04 22311.84,10123.04 22311.84,10213.17 22341.89,10213.17 22341.89,10303.3 22401.96,10303.3 22401.96,10393.42 22432.01,10393.42 22432.01,10453.53 22462.04,10453.53 22462.04,10483.56 22492.09,10483.56 22492.09,10543.67 22522.15,10543.67 22522.15,10573.68 22552.16,10573.68 22552.16,10603.73 22582.21,10603.73 22582.21,10633.79 22612.27,10633.79 22612.27,10693.87 22642.29,10693.87 22642.29,10723.92 22672.35,10723.92 22672.35,10753.94 22702.4,10753.94 22702.4,10783.99 22732.42,10783.99 22732.42,10814.05 22762.47,10814.05 22762.47,10844.07 22792.53,10844.07 22792.53,10874.12 22822.55,10874.12 22822.55,10904.18 22882.66,10904.18 22882.66,10934.2 22912.68,10934.2 22912.68,10964.26 22942.73,10964.26 22942.73,10994.31 22972.78,10994.31 22972.78,11024.32 23032.86,11024.32 23032.86,11054.38 23092.94,11054.38 23092.94,11084.43 23122.99,11084.43 23122.99,11114.46 23183.06,11114.46 23183.06,11144.51 23213.12,11144.51 23213.12,11174.57 23303.25,11174.57 23303.25,11204.58 23333.3,11204.58 23333.3,11234.64 23363.32,11234.64 23363.32,11264.69 23483.5,11264.69 23483.5,11294.71 23513.56,11294.71 23513.56,11324.77 23603.68,11324.77 23603.68,11354.82 23693.82,11354.82 23693.82,11384.84 23753.88,11384.84 23753.88,11414.89 23874.07,11414.89 23874.07,11444.95 23934.15,11444.95 23934.15,11474.97 23994.22,11474.97 23994.22,11505.02 24114.41,11505.02 24114.41,11535.08 24144.46,11535.08 24144.46,11565.1 24294.66,11565.1 24294.66,11595.15 24354.73,11595.15 24354.73,11625.2 24474.92,11625.2 24474.92,11655.23 24534.99,11655.23 24534.99,11685.28 24655.17,11685.28 24655.17,11715.34 24775.35,11715.34 24775.35,11745.36 24895.51,11745.36 24895.51,11775.41 25015.68,11775.41 25015.68,11805.46 25135.87,11805.46 25135.87,11835.48 25165.89,11835.48 25165.89,11865.54 25346.14,11865.54 25346.14,11895.59 25406.25,11895.59 25406.25,11925.61 25526.41,11925.61 25526.41,11955.67 25586.51,11955.67 25586.51,11985.72 25646.59,11985.72 25646.59,12015.74 25706.66,12015.74 25706.66,12045.79 25766.77,12045.79 25766.77,12075.85 25796.79,12075.85 25796.79,12105.87 25856.9,12105.87 25856.9,12165.98 25886.92,12165.98 25886.92,12195.99 25916.97,12195.99 25916.97,12226.05 25947.03,12226.05 25947.03,12316.18 25977.04,12316.18 25977.04,12706.75 25947.03,12706.75 25947.03,12796.88 25916.97,12796.88 25916.97,12826.89 25886.92,12826.89 25886.92,12887 25856.9,12887 25856.9,12917.03 25826.84,12917.03 25826.84,12947.08 25796.79,12947.08 25796.79,12977.14 25736.72,12977.14 25736.72,13007.15 25706.66,13007.15 25706.66,13037.21 25646.59,13037.21 25646.59,13067.26 25526.41,13067.26 25526.41,13097.28 25496.39,13097.28 25496.39,13127.34 25256.02,13127.34 25256.02,13157.39 24655.17,13157.39 24655.17,13127.34 24474.92,13127.34 24474.92,13097.28 24354.73,13097.28 24354.73,13067.26 24294.66,13067.26 24294.66,13037.21 24204.53,13037.21 24204.53,13007.15 24144.46,13007.15 24144.46,12977.14 24114.41,12977.14 24114.41,12947.08 24054.33,12947.08 24054.33,12917.03 24024.27,12917.03 24024.27,12887 23994.22,12887 23994.22,12856.95 23964.2,12856.95 23964.2,12826.89 23934.15,12826.89 23934.15,12796.88 23904.09,12796.88 23904.09,12766.83 23874.07,12766.83 23874.07,12706.75 23844.02,12706.75 23844.02,12676.69 23813.96,12676.69 23813.96,12616.62 23783.94,12616.62 23783.94,12526.49 23753.88,12526.49 23753.88,12496.44 23723.83,12496.44 23723.83,12346.24 23693.82,12346.24 23693.82,12286.13 23663.76,12286.13 23663.76,12045.79 22071.5,12045.79 22071.5,12346.24 22101.52,12346.24 22101.52,12466.38 22131.57,12466.38 22131.57,12706.75 22161.63,12706.75 22161.63,12766.83 22191.65,12766.83 22191.65,12826.89 22221.7,12826.89 22221.7,12947.08 22251.76,12947.08 22251.76,13067.26 22281.78,13067.26 22281.78,13127.34 22311.84,13127.34 22311.84,13187.41 22341.89,13187.41 22341.89,13247.52 22371.9,13247.52 22371.9,13307.59 22401.96,13307.59 22401.96,13367.67 22432.01,13367.67 22432.01,13397.72 22462.04,13397.72 22462.04,13457.79 22492.09,13457.79 22492.09,13487.85 22522.15,13487.85 22522.15,13547.93 22552.16,13547.93 22552.16,13577.98 22582.21,13577.98 22582.21,13608.03 22612.27,13608.03 22612.27,13638.05 22642.29,13638.05 22642.29,13668.11 22672.35,13668.11 22672.35,13698.16 22702.4,13698.16 22702.4,13728.18 22732.42,13728.18 22732.42,13758.24 22762.47,13758.24 22762.47,13788.29 22792.53,13788.29 22792.53,13818.31 22822.55,13818.31 22822.55,13848.36 22882.66,13848.36 22882.66,13878.42 22912.68,13878.42 22912.68,13908.44 22942.73,13908.44 22942.73,13938.5 23002.8,13938.5 23002.8,13968.55 23032.86,13968.55 23032.86,13998.56 23092.94,13998.56 23092.94,14028.62 23122.99,14028.62 23122.99,14058.67 23183.06,14058.67 23183.06,14088.7 23243.17,14088.7 23243.17,14118.75 23273.19,14118.75 23273.19,14148.81 23333.3,14148.81 23333.3,14178.83 23453.45,14178.83 23453.45,14208.88 23513.56,14208.88 23513.56,14238.93 23573.63,14238.93 23573.63,14268.95 23693.82,14268.95 23693.82,14299.01 23813.96,14299.01 23813.96,14329.06 23934.15,14329.06 23934.15,14359.08 24354.73,14359.08 24354.73,14389.14 25256.02,14389.14 25256.02,14359.08 25496.39,14359.08 25496.39,14329.06 25736.72,14329.06 25736.72,14299.01 25856.9,14299.01 25856.9,14268.95 25977.04,14268.95 25977.04,14238.93 26067.18,14238.93 26067.18,14208.88 26217.41,14208.88 26217.41,14178.83 26247.43,14178.83 26247.43,14148.81 26367.61,14148.81 26367.61,14118.75 26397.67,14118.75 26397.67,14088.7 26487.8,14088.7 26487.8,14058.67 26547.87,14058.67 26547.87,14028.62 26607.94,14028.62 26607.94,13998.56 26668.05,13998.56 26668.05,13968.55 26728.13,13968.55 26728.13,13938.5 26758.19,13938.5 26758.19,13908.44 26818.25,13908.44 26818.25,13878.42 26848.31,13878.42 26848.31,13848.36 26908.39,13848.36 26908.39,13818.31 26938.44,13818.31 26938.44,13788.29 26968.46,13788.29 26968.46,13758.24 26998.51,13758.24 26998.51,13728.18 27028.57,13728.18 27028.57,13698.16 27058.59,13698.16 27058.59,13668.11 27088.64,13668.11 27088.64,13638.05 27118.7,13638.05 27118.7,13608.03 27148.72,13608.03 27148.72,13577.98 27178.77,13577.98 27178.77,13547.93 27208.82,13547.93 27208.82,13517.91 27238.84,13517.91 27238.84,13457.79 27268.9,13457.79 27268.9,13427.77 27298.96,13427.77 27298.96,13397.72 27328.98,13397.72 27328.98,13337.65 27359.03,13337.65 27359.03,13277.54 27389.08,13277.54 27389.08,13247.52 27419.1,13247.52 27419.1,13157.39 27449.16,13157.39 27449.16,13127.34 27479.21,13127.34 27479.21,13007.15 27509.23,13007.15 27509.23,12887 27539.29,12887 27539.29,12826.89 27569.34,12826.89 27569.34,12526.49 27599.36,12526.49 27599.36,12045.79 27569.34,12045.79 27569.34,11865.54 27539.29,11865.54 27539.29,11745.36 27509.23,11745.36 27509.23,11685.28 27479.21,11685.28 27479.21,11625.2 27449.16,11625.2 27449.16,11505.02 27419.1,11505.02 27419.1,11474.97 27389.08,11474.97 27389.08,11414.89 27359.03,11414.89 27359.03,11354.82 27328.98,11354.82 27328.98,11324.77 27298.96,11324.77 27298.96,11264.69 27268.9,11264.69 27268.9,11234.64 27238.84,11234.64 27238.84,11204.58 27208.82,11204.58 27208.82,11174.57 27178.77,11174.57 27178.77,11144.51 27148.72,11144.51 27148.72,11114.46 27118.7,11114.46 27118.7,11084.43 27088.64,11084.43 27088.64,11054.38 27058.59,11054.38 27058.59,11024.32 27028.57,11024.32 27028.57,10994.31 26998.51,10994.31 26998.51,10964.26 26968.46,10964.26 26968.46,10934.2 26908.39,10934.2 26908.39,10904.18 26878.33,10904.18 26878.33,10874.12 26848.31,10874.12 26848.31,10844.07 26788.2,10844.07 26788.2,10814.05 26728.13,10814.05 26728.13,10783.99 26698.08,10783.99 26698.08,10753.94 26607.94,10753.94 26607.94,10723.92 26577.93,10723.92 26577.93,10693.87 26517.82,10693.87 26517.82,10663.81 26457.74,10663.81 26457.74,10633.79 26397.67,10633.79 26397.67,10603.73 26337.56,10603.73 26337.56,10573.68 26217.41,10573.68 26217.41,10543.67 26157.3,10543.67 26157.3,10513.61 26097.23,10513.61 26097.23,10483.56 25977.04,10483.56 25977.04,10453.53 25916.97,10453.53 25916.97,10423.48 25766.77,10423.48 25766.77,10393.42 25676.64,10393.42 25676.64,10363.41 25556.46,10363.41 25556.46,10333.36 25526.41,10333.36 25526.41,10303.3 25376.2,10303.3 25376.2,10273.28 25286.07,10273.28 25286.07,10243.22 25195.94,10243.22 25195.94,10213.17 25075.76,10213.17 25075.76,10183.15 25015.68,10183.15 25015.68,10153.1 24895.51,10153.1 24895.51,10123.04 24835.43,10123.04 24835.43,10093.02 24775.35,10093.02 24775.35,10062.97 24595.1,10062.97 24595.1,10032.91 24534.99,10032.91 24534.99,10002.89 24474.92,10002.89 24474.92,9972.84 24354.73,9972.84 24354.73,9942.79 24294.66,9942.79 24294.66,9912.77 24264.61,9912.77 24264.61,9882.71 24174.47,9882.71 24174.47,9852.66 24144.46,9852.66 24144.46,9822.63 24084.35,9822.63 24084.35,9792.58 24054.33,9792.58 24054.33,9762.53 23994.22,9762.53 23994.22,9732.51 23964.2,9732.51 23964.2,9702.45 23934.15,9702.45 23934.15,9672.4 23904.09,9672.4 23904.09,9612.32 23874.07,9612.32 23874.07,9582.27 23844.02,9582.27 23844.02,9552.25 23813.96,9552.25 23813.96,9131.63 23844.02,9131.63 23844.02,9101.61 23874.07,9101.61 23874.07,9041.5 23904.09,9041.5 23904.09,9011.48 23934.15,9011.48 23934.15,8981.42 23964.2,8981.42 23964.2,8951.37 23994.22,8951.37 23994.22,8921.35 24054.33,8921.35 24054.33,8891.3 24084.35,8891.3 24084.35,8861.24 24144.46,8861.24 24144.46,8831.22 24234.58,8831.22 24234.58,8801.16 24354.73,8801.16 24354.73,8771.11 24414.84,8771.11 24414.84,8741.1 24955.61,8741.1 24955.61,8771.11 25135.87,8771.11 25135.87,8801.16 25195.94,8801.16 25195.94,8831.22 25316.13,8831.22 25316.13,8861.24 25376.2,8861.24 25376.2,8891.3 25406.25,8891.3 25406.25,8921.35 25466.33,8921.35 25466.33,8951.37 25496.39,8951.37 25496.39,8981.42 25556.46,8981.42 25556.46,9011.48 25586.51,9011.48 25586.51,9041.5 25616.53,9041.5 25616.53,9101.61 25646.59,9101.61 25646.59,9131.63 25676.64,9131.63 25676.64,9161.68 25706.66,9161.68 25706.66,9191.74 25736.72,9191.74 25736.72,9281.87 25766.77,9281.87 25766.77,9341.94 25796.79,9341.94 25796.79,9582.27 25826.84,9582.27 25826.84,9612.32 27359.03,9612.32 27359.03,9372 27328.98,9372 27328.98,9101.61 27298.96,9101.61 27298.96,8981.42 27268.9,8981.42 27268.9,8921.35 27238.84,8921.35 27238.84,8831.22 27208.82,8831.22 27208.82,8741.1 27178.77,8741.1 27178.77,8650.96 27148.72,8650.96 27148.72,8620.91 27118.7,8620.91 27118.7,8530.79 27088.64,8530.79 27088.64,8500.73 27058.59,8500.73 27058.59,8440.65 27028.57,8440.65 27028.57,8410.6 26998.51,8410.6 26998.51,8380.58 26968.46,8380.58 26968.46,8320.47 26938.44,8320.47 26938.44,8290.45 26908.39,8290.45 26908.39,8260.4 26878.33,8260.4 26878.33,8230.34 26848.31,8230.34 26848.31,8170.27 26818.25,8170.27 26818.25,8140.22 26788.2,8140.22 26788.2,8110.2 26728.13,8110.2 26728.13,8050.09 26668.05,8050.09 26668.05,8020.06 26638,8020.06 26638,7990.01 26607.94,7990.01 26607.94,7959.95 26547.87,7959.95 26547.87,7929.94 26517.82,7929.94 26517.82,7899.88 26457.74,7899.88 26457.74,7869.83 26427.69,7869.83 26427.69,7839.81 26367.61,7839.81 26367.61,7809.75 26337.56,7809.75 26337.56,7779.7 26277.49,7779.7 26277.49,7749.68 26217.41,7749.68 26217.41,7719.63 26127.29,7719.63 26127.29,7689.57 26097.23,7689.57 26097.23,7659.55 26007.1,7659.55 26007.1,7629.5 25916.97,7629.5 25916.97,7599.44 25796.79,7599.44 25796.79,7569.43 25676.64,7569.43 25676.64,7539.37 25616.53,7539.37 25616.53,7509.32 25376.2,7509.32 25376.2,7479.3 25195.94,7479.3 25195.94,7449.24 24444.86,7449.24 "/>
   <polygon class="fil2" points="7290.42,7809.75 7260.37,7809.75 7260.37,14238.93 12187.39,14238.93 12187.39,12977.14 8852.63,12977.14 8852.63,11595.15 12247.5,11595.15 12247.5,10303.3 8852.63,10303.3 8852.63,9011.48 12187.39,9011.48 12187.39,7779.7 7290.42,7779.7 "/>
   <polygon class="fil2" points="16423.43,9071.55 18316.12,9071.55 18316.12,14299.01 19968.49,14299.01 19968.49,9071.55 21861.19,9071.55 21861.19,7719.63 16423.43,7719.63 "/>
   <polygon class="fil2" points="14560.78,12887 14530.72,12887 14530.72,7779.7 12938.46,7779.7 12938.46,14238.93 17595.09,14238.93 17595.09,12947.08 17565.07,12947.08 17565.07,12917.03 14560.78,12917.03 "/>
   <polygon class="fil2" points="4796.85,14299.01 6479.26,14299.01 6479.26,7749.68 4796.85,7749.68 "/>
   <polygon class="fil2" points="8852.63,12947.08 8852.63,12977.14 12187.39,12977.14 12187.39,14238.93 7260.37,14238.93 7260.37,7809.75 7290.42,7809.75 7290.42,7779.7 12187.39,7779.7 12187.39,9011.48 8852.63,9011.48 8852.63,9071.55 12247.5,9071.55 12247.5,7719.63 7200.3,7719.63 7200.3,14299.01 12247.5,14299.01 12247.5,12947.08 "/>
   <path class="fil2" d="M14560.78 7749.68l0 5137.32 3064.37 0 0 1381.95 -4716.74 0 0 -6519.27 1652.37 0zm0 0l0 -30.05 -1682.39 0 0 6579.38 4776.81 0 0 -1442.06 -3064.38 0 0 -5107.27 -30.05 0z"/>
   <path class="fil2" d="M14560.78 12887l0 30.03 3004.29 0 0 30.05 30.02 0 0 1291.86 -4656.63 0 0 -6459.23 1592.26 0 0 5107.3 30.06 0zm0 0l0 -5137.32 -1652.37 0 0 6519.27 4716.74 0 0 -1381.95 -3064.37 0z"/>
   <polygon class="fil2" points="27659.47,8500.73 27809.67,8500.73 27809.67,7929.94 27839.72,7929.94 27839.72,8080.14 27869.75,8080.14 27869.75,8200.32 27899.8,8200.32 27899.8,8320.47 27929.86,8320.47 27929.86,8440.65 27959.87,8440.65 27959.87,8500.73 28110.11,8500.73 28110.11,8380.58 28140.13,8380.58 28140.13,8260.4 28170.18,8260.4 28170.18,8140.22 28200.24,8140.22 28200.24,7990.01 28230.26,7990.01 28230.26,7929.94 28260.31,7929.94 28260.31,8500.73 28380.5,8500.73 28380.5,7719.63 28140.13,7719.63 28140.13,7839.81 28110.11,7839.81 28110.11,7959.95 28080.06,7959.95 28080.06,8140.22 28050,8140.22 28050,8200.32 28019.98,8200.32 28019.98,8140.22 27989.92,8140.22 27989.92,8020.06 27959.87,8020.06 27959.87,7899.88 27929.86,7899.88 27929.86,7779.7 27899.8,7779.7 27899.8,7719.63 27659.47,7719.63 "/>
   <polygon class="fil2" points="26998.51,7839.81 27178.77,7839.81 27178.77,7869.83 27208.82,7869.83 27208.82,8500.73 27359.03,8500.73 27359.03,7839.81 27569.34,7839.81 27569.34,7719.63 26998.51,7719.63 "/>
  </g>
 </g>
</svg>
