<?xml version="1.0" encoding="UTF-8"?>
<!DOCTYPE svg PUBLIC "-//W3C//DTD SVG 1.1//EN" "http://www.w3.org/Graphics/SVG/1.1/DTD/svg11.dtd">
<!-- Creator: CorelDRAW -->
<svg xmlns="http://www.w3.org/2000/svg" xml:space="preserve" width="404.75mm" height="266.419mm" version="1.1" style="shape-rendering:geometricPrecision; text-rendering:geometricPrecision; image-rendering:optimizeQuality; fill-rule:evenodd; clip-rule:evenodd"
viewBox="0 0 33177.35 21838.38"
 xmlns:xlink="http://www.w3.org/1999/xlink"
 xmlns:xodm="http://www.corel.com/coreldraw/odm/2003">
 <defs>
  <style type="text/css">
   <![CDATA[
    .fil0 {fill:#F9E6EA}
    .fil1 {fill:#F7F0EA;fill-rule:nonzero}
    .fil2 {fill:#555555;fill-rule:nonzero}
   ]]>
  </style>
 </defs>
 <g id="Layer_x0020_1">
  <metadata id="CorelCorpID_0Corel-Layer"/>
  <g>
   <path class="fil0" d="M729.32 3.89l31718.71 0c396.73,0 721.33,324.59 721.33,721.33l0 20387.95c0,396.73 -324.59,721.33 -721.33,721.33l-31718.71 0c-396.73,0 -721.33,-324.59 -721.33,-721.33l0 -20387.95c0,-396.73 324.59,-721.33 721.33,-721.33z"/>
   <path id="_1" class="fil1" d="M32444.68 7.77l-31718.71 0 6.71 -7.77 31718.71 0 0 0 -6.71 7.77zm732.67 715.81l-15.98 3.26 0 0 -0.94 -36.9 -2.8 -36.43 -4.59 -35.92 -6.36 -35.35 -8.07 -34.75 -9.73 -34.11 -11.37 -33.39 -12.93 -32.66 -14.47 -31.86 -15.93 -31.03 -17.39 -30.14 -18.76 -29.21 -20.12 -28.22 -21.4 -27.21 -22.66 -26.14 -23.85 -25.02 -25.02 -23.85 -26.12 -22.65 -27.17 -21.39 -28.19 -20.07 -29.15 -18.74 -30.07 -17.34 -30.94 -15.89 -31.74 -14.41 -32.51 -12.89 -33.21 -11.3 -33.89 -9.67 -34.47 -8.01 -35.03 -6.3 -35.52 -4.55 -35.94 -2.76 -36.34 -0.93 6.71 -7.77 37.62 0.96 37.07 2.84 36.47 4.66 35.83 6.44 35.17 8.17 34.46 9.84 33.72 11.48 32.94 13.05 32.12 14.57 31.25 16.06 30.35 17.51 29.39 18.89 28.4 20.24 27.37 21.53 26.29 22.8 25.16 23.98 23.98 25.16 22.78 26.27 21.52 27.34 20.2 28.37 18.86 29.34 17.46 30.27 16.02 31.16 14.52 31.99 13 32.79 11.4 33.54 9.78 34.24 8.11 34.89 6.38 35.5 4.62 36.07 2.8 36.58 0.94 37.05 0 0zm-15.98 20391.21l0 -20387.95 15.98 -3.26 0 20387.95 0 0 -15.98 3.26zm-716.69 723.58l6.71 -7.77 0 0 36.24 -0.93 35.67 -2.74 35.11 -4.49 34.48 -6.21 33.87 -7.87 33.25 -9.48 32.6 -11.09 31.93 -12.66 31.23 -14.17 30.48 -15.66 29.69 -17.13 28.84 -18.53 27.93 -19.89 26.96 -21.22 25.95 -22.5 24.88 -23.72 23.74 -24.89 22.57 -26.03 21.33 -27.11 20.05 -28.15 18.72 -29.13 17.35 -30.08 15.92 -30.97 14.43 -31.81 12.93 -32.62 11.35 -33.36 9.73 -34.07 8.07 -34.73 6.35 -35.34 4.6 -35.9 2.8 -36.42 0.94 -36.89 15.98 -3.26 -0.94 37.06 -2.81 36.58 -4.61 36.08 -6.39 35.52 -8.12 34.91 -9.78 34.27 -11.42 33.57 -13.01 32.83 -14.55 32.04 -16.03 31.21 -17.5 30.33 -18.9 29.41 -20.26 28.44 -21.59 27.44 -22.87 26.38 -24.1 25.27 -25.3 24.13 -26.46 22.94 -27.58 21.7 -28.66 20.42 -29.71 19.1 -30.72 17.72 -31.71 16.29 -32.62 14.81 -33.52 13.28 -34.34 11.68 -35.1 10.02 -35.77 8.31 -36.37 6.53 -36.88 4.72 -37.33 2.87 -37.71 0.96 0 0zm-31712 -7.77l31718.71 0 -6.71 7.77 -31718.71 0 0 0 6.71 -7.77zm-732.67 -715.81l15.98 -3.26 0 0 0.94 36.9 2.8 36.43 4.59 35.92 6.36 35.35 8.07 34.75 9.73 34.11 11.37 33.39 12.93 32.66 14.47 31.86 15.93 31.03 17.39 30.14 18.76 29.21 20.12 28.22 21.4 27.21 22.66 26.14 23.86 25.01 25.01 23.86 26.12 22.65 27.17 21.39 28.19 20.07 29.15 18.74 30.07 17.34 30.94 15.89 31.74 14.41 32.51 12.89 33.21 11.3 33.89 9.67 34.47 8.01 35.03 6.3 35.52 4.55 35.94 2.76 36.34 0.93 -6.71 7.77 -37.62 -0.96 -37.07 -2.84 -36.47 -4.66 -35.83 -6.44 -35.17 -8.17 -34.46 -9.84 -33.72 -11.48 -32.94 -13.05 -32.12 -14.57 -31.25 -16.06 -30.35 -17.51 -29.39 -18.89 -28.4 -20.24 -27.37 -21.53 -26.29 -22.8 -25.16 -23.99 -23.99 -25.16 -22.78 -26.27 -21.52 -27.34 -20.2 -28.37 -18.86 -29.34 -17.46 -30.27 -16.02 -31.16 -14.52 -31.99 -13 -32.79 -11.4 -33.54 -9.78 -34.24 -8.11 -34.89 -6.38 -35.5 -4.62 -36.07 -2.8 -36.58 -0.94 -37.05 0 0zm15.98 -20391.21l0 20387.95 -15.98 3.26 0 -20387.95 0 0 15.98 -3.26zm716.69 -723.58l-6.71 7.77 0 0 -36.24 0.93 -35.67 2.74 -35.11 4.49 -34.48 6.21 -33.87 7.87 -33.25 9.48 -32.6 11.09 -31.93 12.66 -31.23 14.17 -30.48 15.66 -29.69 17.13 -28.84 18.53 -27.93 19.89 -26.96 21.22 -25.95 22.5 -24.87 23.71 -23.75 24.9 -22.57 26.03 -21.33 27.11 -20.05 28.15 -18.72 29.13 -17.35 30.08 -15.92 30.97 -14.43 31.81 -12.93 32.62 -11.35 33.36 -9.73 34.07 -8.07 34.73 -6.35 35.34 -4.6 35.9 -2.8 36.42 -0.94 36.89 -15.98 3.26 0.94 -37.06 2.81 -36.58 4.61 -36.08 6.39 -35.52 8.12 -34.91 9.78 -34.27 11.42 -33.57 13.01 -32.83 14.55 -32.04 16.03 -31.21 17.5 -30.33 18.9 -29.41 20.26 -28.44 21.59 -27.44 22.87 -26.38 24.11 -25.28 25.3 -24.12 26.46 -22.94 27.58 -21.7 28.66 -20.42 29.71 -19.1 30.72 -17.72 31.71 -16.29 32.62 -14.81 33.52 -13.28 34.34 -11.68 35.1 -10.02 35.77 -8.31 36.37 -6.53 36.88 -4.72 37.33 -2.87 37.71 -0.96 0 0z"/>
  </g>
  <g id="_3162265751072">
   <path id="path3916" class="fil2" d="M24952.02 14410.82c-1167.43,7.71 -1563.5,-157.64 -2067.55,-550.07 -504.06,-392.43 -738.53,-1017.87 -780.53,-1814.62l1594.89 0c70.8,820.01 525.62,1138.68 1288.23,1134.06 592.98,-1.79 1125.12,-142.16 1062.45,-738.23 -41.39,-620.58 -983.12,-518.71 -2205.36,-1036.12 -856.42,-254.87 -1676.54,-934.9 -1605.65,-1996.13 107.93,-1442.51 1404.7,-1976.99 2622.1,-1982.4 1452.57,-1.16 2562.08,710.62 2581.67,2199.54l-1569.98 -21.82c-7.13,-877.97 -978.87,-880.78 -1098.97,-882.39 -631.4,-20.69 -943.88,321.05 -928.77,594.43 6.19,519.94 644.92,660.79 1269.7,860.69 1173.76,372.74 2551.12,595.13 2558.75,2166.8 -12.09,626.35 -184.82,1089.15 -708.76,1508.73 -404.51,316.1 -1091.75,552.79 -2012.23,557.54l0.01 -0.01z" />
   <polygon id="path3952" class="fil2" points="4709.62,7711.71 6411.43,7711.71 6411.43,14307.07 4709.62,14307.07 " inkscape:connector-curvature="0"/>
   <polygon id="path3954" class="fil2" points="7131.43,7711.71 12215.04,7711.71 12215.04,9053.92 8784.57,9053.92 8784.57,10289.49 12215.04,10289.49 12215.04,11598.58 8784.57,11598.58 8784.57,12951.3 12215.04,12951.3 12215.04,14307.07 7131.43,14307.07 " />
   <polygon id="path3956" class="fil2" points="12869.59,7711.71 14549.58,7711.71 14549.58,12890.21 17647.75,12890.21 17647.75,14307.05 12869.59,14307.05 " />
   <polygon id="path3958" class="fil2" points="16413.57,7711.71 21890.41,7711.71 21890.41,9053.92 19992.8,9053.92 19992.8,14307.05 18318.89,14307.05 18318.89,9053.92 16413.57,9053.92 " />
   <polygon id="path4576" class="fil2" points="27277.59,8478.6 27277.59,7824.47 27055.78,7824.47 27055.78,7691.28 27649.83,7691.28 27649.83,7824.47 27428.54,7824.47 27428.54,8478.6 " />
   <polygon id="path4578" class="fil2" points="27745.69,8478.6 27745.69,7691.28 27971.58,7691.28 28107.22,8228.33 28241.33,7691.28 28467.73,7691.28 28467.73,8478.6 28327.51,8478.6 28327.51,7858.84 28179.12,8478.6 28033.79,8478.6 27885.92,7858.84 27885.92,8478.6 " />
  </g>
 </g>
</svg>
