<?xml version="1.0" encoding="UTF-8"?>
<!DOCTYPE svg PUBLIC "-//W3C//DTD SVG 1.1//EN" "http://www.w3.org/Graphics/SVG/1.1/DTD/svg11.dtd">
<!-- Creator: CorelDRAW -->
<svg xmlns="http://www.w3.org/2000/svg" xml:space="preserve" width="404.75mm" height="266.419mm" version="1.1" style="shape-rendering:geometricPrecision; text-rendering:geometricPrecision; image-rendering:optimizeQuality; fill-rule:evenodd; clip-rule:evenodd"
viewBox="0 0 5185.44 3413.22"
 xmlns:xlink="http://www.w3.org/1999/xlink"
 xmlns:xodm="http://www.corel.com/coreldraw/odm/2003">
 <defs>
  <style type="text/css">
   <![CDATA[
    .fil2 {fill:#555555}
    .fil0 {fill:#E9F0FF}
    .fil1 {fill:#F7F0EA;fill-rule:nonzero}
   ]]>
  </style>
 </defs>
 <g id="Layer_x0020_1">
  <metadata id="CorelCorpID_0Corel-Layer"/>
  <g>
   <path class="fil0" d="M113.99 0.61l4957.46 0c62.01,0 112.74,50.73 112.74,112.74l0 3186.53c0,62.01 -50.73,112.74 -112.74,112.74l-4957.46 0c-62.01,0 -112.74,-50.73 -112.74,-112.74l0 -3186.53c0,-62.01 50.73,-112.74 112.74,-112.74z"/>
   <path id="_1" class="fil1" d="M5070.93 1.21l-4957.46 0 1.05 -1.21 4957.46 0 0 0 -1.05 1.21zm114.51 111.88l-2.5 0.51 0 0 -0.15 -5.77 -0.44 -5.69 -0.72 -5.61 -0.99 -5.53 -1.26 -5.43 -1.52 -5.33 -1.78 -5.22 -2.02 -5.1 -2.26 -4.98 -2.49 -4.85 -2.72 -4.71 -2.93 -4.56 -3.14 -4.41 -3.35 -4.25 -3.54 -4.09 -3.73 -3.91 -3.91 -3.73 -4.08 -3.54 -4.25 -3.34 -4.41 -3.14 -4.56 -2.93 -4.7 -2.71 -4.84 -2.48 -4.96 -2.25 -5.08 -2.01 -5.19 -1.77 -5.3 -1.51 -5.39 -1.25 -5.47 -0.98 -5.55 -0.71 -5.62 -0.43 -5.68 -0.14 1.05 -1.21 5.88 0.15 5.79 0.44 5.7 0.73 5.6 1.01 5.5 1.28 5.39 1.54 5.27 1.79 5.15 2.04 5.02 2.28 4.88 2.51 4.74 2.74 4.59 2.95 4.44 3.16 4.28 3.37 4.11 3.56 3.93 3.75 3.75 3.93 3.56 4.11 3.36 4.27 3.16 4.43 2.95 4.59 2.73 4.73 2.5 4.87 2.27 5 2.03 5.12 1.78 5.24 1.53 5.35 1.27 5.45 1 5.55 0.72 5.64 0.44 5.72 0.15 5.79 0 0zm-2.5 3187.04l0 -3186.53 2.5 -0.51 0 3186.53 0 0 -2.5 0.51zm-112.01 113.09l1.05 -1.21 0 0 5.66 -0.14 5.58 -0.43 5.49 -0.7 5.39 -0.97 5.29 -1.23 5.2 -1.48 5.1 -1.73 4.99 -1.98 4.88 -2.22 4.76 -2.45 4.64 -2.68 4.51 -2.9 4.36 -3.11 4.21 -3.32 4.06 -3.52 3.89 -3.71 3.71 -3.89 3.53 -4.07 3.33 -4.24 3.13 -4.4 2.93 -4.55 2.71 -4.7 2.49 -4.84 2.26 -4.97 2.02 -5.1 1.77 -5.21 1.52 -5.33 1.26 -5.43 0.99 -5.52 0.72 -5.61 0.44 -5.69 0.15 -5.77 2.5 -0.51 -0.15 5.79 -0.44 5.72 -0.72 5.64 -1 5.55 -1.27 5.46 -1.53 5.36 -1.78 5.25 -2.03 5.13 -2.27 5.01 -2.51 4.88 -2.74 4.74 -2.95 4.6 -3.17 4.45 -3.37 4.29 -3.57 4.12 -3.77 3.95 -3.95 3.77 -4.14 3.59 -4.31 3.39 -4.48 3.19 -4.64 2.99 -4.8 2.77 -4.96 2.55 -5.1 2.32 -5.24 2.08 -5.37 1.83 -5.49 1.57 -5.59 1.3 -5.68 1.02 -5.76 0.74 -5.83 0.45 -5.89 0.15 0 0zm-4956.41 -1.21l4957.46 0 -1.05 1.21 -4957.46 0 0 0 1.05 -1.21zm-114.51 -111.88l2.5 -0.51 0 0 0.15 5.77 0.44 5.69 0.72 5.61 0.99 5.53 1.26 5.43 1.52 5.33 1.78 5.22 2.02 5.1 2.26 4.98 2.49 4.85 2.72 4.71 2.93 4.56 3.14 4.41 3.35 4.25 3.54 4.09 3.73 3.91 3.91 3.73 4.08 3.54 4.25 3.34 4.41 3.14 4.56 2.93 4.7 2.71 4.84 2.48 4.96 2.25 5.08 2.01 5.19 1.77 5.3 1.51 5.39 1.25 5.47 0.98 5.55 0.71 5.62 0.43 5.68 0.14 -1.05 1.21 -5.88 -0.15 -5.79 -0.44 -5.7 -0.73 -5.6 -1.01 -5.5 -1.28 -5.39 -1.54 -5.27 -1.79 -5.15 -2.04 -5.02 -2.28 -4.88 -2.51 -4.74 -2.74 -4.59 -2.95 -4.44 -3.16 -4.28 -3.37 -4.11 -3.56 -3.93 -3.75 -3.75 -3.93 -3.56 -4.11 -3.36 -4.27 -3.16 -4.43 -2.95 -4.59 -2.73 -4.73 -2.5 -4.87 -2.27 -5 -2.03 -5.12 -1.78 -5.24 -1.53 -5.35 -1.27 -5.45 -1 -5.55 -0.72 -5.64 -0.44 -5.72 -0.15 -5.79 0 0zm2.5 -3187.04l0 3186.53 -2.5 0.51 0 -3186.53 0 0 2.5 -0.51zm112.01 -113.09l-1.05 1.21 0 0 -5.66 0.14 -5.58 0.43 -5.49 0.7 -5.39 0.97 -5.29 1.23 -5.2 1.48 -5.1 1.73 -4.99 1.98 -4.88 2.22 -4.76 2.45 -4.64 2.68 -4.51 2.9 -4.36 3.11 -4.21 3.32 -4.06 3.52 -3.89 3.71 -3.71 3.89 -3.53 4.07 -3.33 4.24 -3.13 4.4 -2.93 4.55 -2.71 4.7 -2.49 4.84 -2.26 4.97 -2.02 5.1 -1.77 5.21 -1.52 5.33 -1.26 5.43 -0.99 5.52 -0.72 5.61 -0.44 5.69 -0.15 5.77 -2.5 0.51 0.15 -5.79 0.44 -5.72 0.72 -5.64 1 -5.55 1.27 -5.46 1.53 -5.36 1.78 -5.25 2.03 -5.13 2.27 -5.01 2.51 -4.88 2.74 -4.74 2.95 -4.6 3.17 -4.45 3.37 -4.29 3.57 -4.12 3.77 -3.95 3.95 -3.77 4.14 -3.59 4.31 -3.39 4.48 -3.19 4.64 -2.99 4.8 -2.77 4.96 -2.55 5.1 -2.32 5.24 -2.08 5.37 -1.83 5.49 -1.57 5.59 -1.3 5.68 -1.02 5.76 -0.74 5.83 -0.45 5.89 -0.15 0 0z"/>
  </g>
  <g id="_3163012924720">
   <polygon class="fil2" points="2583.67,1364.42 3015.19,1363.09 3015.27,1168.42 2377.53,1168.35 2377.53,2243.61 3015.29,2242.27 3014.75,2047.65 2582.71,2047.56 2583.67,1801.22 2954,1800.27 2953.1,1606.35 2582.58,1606.28 "/>
   <path class="fil2" d="M1328.19 1745.17c17.24,181.27 178.96,327.22 383.58,308.55 179.17,-16.35 324.21,-184.7 305.14,-386.32 -16.76,-177.29 -178.81,-330.75 -383.86,-308.5 -180.29,19.56 -324.49,179.92 -304.87,386.27z"/>
   <polygon class="fil2" points="3129.51,1364.27 3414.59,1364.73 3414.62,2243.58 3619.57,2241.79 3620.52,1364.46 3905.24,1362.73 3905.31,1168.41 3128.85,1169.15 "/>
   <path class="fil2" d="M1134.92 2243.58c118.54,0.08 292.11,3.96 404.39,-1.39 -24.57,-11.17 -53.43,-16.43 -78.85,-27.2 -75.78,-32.1 -124.43,-68.68 -179.54,-123.01 -34.51,-34.03 -60.46,-65.53 -87.1,-114.55 -44.71,-82.27 -38.96,-105.15 -57.92,-144.72l-0.97 35.67 0 375.21z"/>
   <path class="fil2" d="M1802.61 1170.91c114.68,31.85 203.32,84.98 262.47,148.05 38.56,41.11 139.17,178.14 141.48,266.31 8.31,-40.12 3.58,-349.71 3.58,-417.07l-407.54 2.71z"/>
   <path class="fil2" d="M1136.03 1579.03c11.07,-24.2 16.19,-54.58 26.57,-80.45 26.5,-66.04 72.43,-136.06 120.23,-182.33 110.08,-106.57 147.24,-97.71 256.71,-147.74l-404.69 -0.16 1.18 410.68z"/>
   <path class="fil2" d="M2209.1 1832.65c-22.9,51.44 -29.29,96.61 -59.89,148.3 -75.7,127.86 -189.29,220.49 -346.38,262.31l407.39 0.31 -1.11 -410.92z"/>
   <path class="fil2" d="M3986.59 1198.97c7.6,-7.95 -10.23,-5.99 15.2,-6.85 23.14,-0.78 4.8,0.16 12.21,5.16 3.94,4.11 3.11,-4.8 6.38,7.27 3.8,14.03 -4.7,11.82 2.4,34.79l-20.59 -15.15c-0.93,1.09 -2.13,1.58 -2.54,3.46l-13.14 12.37 0.08 -41.06zm34.3 -18.87c-76.7,-6.78 -63.89,61.38 -31.1,73.36 23.15,8.45 43.72,-3.96 49.35,-20.22 9.18,-26.47 -5.48,-38.48 -18.25,-53.13z"/>
   <path class="fil2" d="M4020.9 1180.11c12.77,14.65 27.43,26.66 18.25,53.13 -5.64,16.26 -26.21,28.68 -49.35,20.22 -32.78,-11.98 -45.6,-80.14 31.1,-73.36zm-33.77 -6.87c-71.48,31.69 -16.58,116.84 39.34,86.78 47.61,-25.6 19.63,-112.92 -39.34,-86.78z"/>
   <path class="fil2" d="M4014 1197.28l-6.47 4.87c2.98,5.66 4.85,-1.97 2.15,8.71 -1.33,5.25 -6.33,4.9 -9.54,6.19l-3.52 -14.59c-3.47,-5.64 10.34,-6.63 -10.01,-3.49l-0.08 41.06 13.14 -12.37c0.4,-1.88 1.61,-2.38 2.54,-3.46l20.59 15.15c-7.1,-22.97 1.4,-20.76 -2.4,-34.79 -3.27,-12.07 -2.44,-3.16 -6.38,-7.27z"/>
   <path class="fil2" d="M3996.61 1202.46l10.92 -0.31 6.47 -4.87c-7.41,-5 10.94,-5.94 -12.21,-5.16 -25.42,0.86 -7.6,-1.1 -15.2,6.85 20.35,-3.14 6.55,-2.15 10.01,3.49z"/>
   <path class="fil2" d="M4007.53 1202.15l-10.92 0.31 3.52 14.59c3.21,-1.29 8.21,-0.94 9.54,-6.19 2.71,-10.68 0.83,-3.05 -2.15,-8.71z"/>
  </g>
 </g>
</svg>
