<?xml version="1.0" encoding="UTF-8"?>
<!DOCTYPE svg PUBLIC "-//W3C//DTD SVG 1.1//EN" "http://www.w3.org/Graphics/SVG/1.1/DTD/svg11.dtd">
<!-- Creator: CorelDRAW -->
<svg xmlns="http://www.w3.org/2000/svg" xml:space="preserve" width="404.75mm" height="266.419mm" version="1.1" style="shape-rendering:geometricPrecision; text-rendering:geometricPrecision; image-rendering:optimizeQuality; fill-rule:evenodd; clip-rule:evenodd"
viewBox="0 0 40007.29 26334.06"
 xmlns:xlink="http://www.w3.org/1999/xlink"
 xmlns:xodm="http://www.corel.com/coreldraw/odm/2003">
 <defs>
  <style type="text/css">
   <![CDATA[
    .fil2 {fill:#555555}
    .fil0 {fill:#E6F2F6}
    .fil1 {fill:#F7F0EA;fill-rule:nonzero}
   ]]>
  </style>
 </defs>
 <g id="Layer_x0020_1">
  <metadata id="CorelCorpID_0Corel-Layer"/>
  <g>
   <path class="fil0" d="M879.46 4.69l38248.37 0c478.41,0 869.82,391.41 869.82,869.82l0 24585.04c0,478.41 -391.41,869.82 -869.82,869.82l-38248.37 0c-478.41,0 -869.82,-391.41 -869.82,-869.82l0 -24585.04c0,-478.41 391.41,-869.82 869.82,-869.82z"/>
   <path id="_1" class="fil1" d="M39123.79 9.37l-38248.37 0 8.09 -9.37 38248.37 0 0 0 -8.09 9.37zm883.5 863.17l-19.27 3.93 0 0 -1.14 -44.5 -3.38 -43.93 -5.54 -43.31 -7.67 -42.63 -9.74 -41.9 -11.73 -41.13 -13.71 -40.27 -15.6 -39.38 -17.45 -38.42 -19.22 -37.41 -20.97 -36.35 -22.63 -35.22 -24.26 -34.03 -25.81 -32.81 -27.33 -31.52 -28.76 -30.17 -30.17 -28.76 -31.5 -27.31 -32.77 -25.79 -33.99 -24.21 -35.15 -22.6 -36.26 -20.92 -37.3 -19.17 -38.27 -17.38 -39.2 -15.54 -40.05 -13.62 -40.86 -11.66 -41.56 -9.66 -42.24 -7.59 -42.83 -5.49 -43.33 -3.33 -43.82 -1.12 8.09 -9.37 45.36 1.16 44.7 3.43 43.98 5.62 43.2 7.77 42.41 9.85 41.55 11.86 40.66 13.84 39.72 15.74 38.73 17.57 37.68 19.36 36.59 21.11 35.45 22.77 34.25 24.4 33 25.97 31.7 27.49 30.35 28.92 28.92 30.35 27.47 31.68 25.95 32.96 24.36 34.21 22.74 35.38 21.05 36.5 19.31 37.57 17.51 38.58 15.68 39.54 13.75 40.45 11.79 41.29 9.78 42.08 7.69 42.81 5.57 43.49 3.38 44.1 1.14 44.68 0 0zm-19.27 24588.98l0 -24585.04 19.27 -3.93 0 24585.04 0 0 -19.27 3.93zm-864.23 872.54l8.09 -9.37 0 0 43.7 -1.12 43.02 -3.3 42.34 -5.42 41.58 -7.48 40.84 -9.49 40.09 -11.44 39.31 -13.37 38.5 -15.26 37.66 -17.09 36.75 -18.89 35.8 -20.66 34.77 -22.34 33.68 -23.99 32.51 -25.59 31.29 -27.13 30 -28.61 28.63 -30.02 27.22 -31.39 25.72 -32.69 24.18 -33.94 22.58 -35.13 20.93 -36.28 19.2 -37.34 17.41 -38.36 15.59 -39.33 13.69 -40.23 11.73 -41.09 9.73 -41.88 7.66 -42.61 5.55 -43.29 3.37 -43.92 1.14 -44.49 19.27 -3.93 -1.14 44.69 -3.39 44.11 -5.56 43.51 -7.7 42.83 -9.79 42.1 -11.79 41.33 -13.77 40.49 -15.69 39.59 -17.54 38.64 -19.33 37.64 -21.1 36.57 -22.79 35.47 -24.43 34.3 -26.04 33.08 -27.58 31.81 -29.06 30.47 -30.51 29.1 -31.91 27.67 -33.26 26.16 -34.57 24.62 -35.82 23.03 -37.05 21.37 -38.23 19.64 -39.34 17.86 -40.42 16.01 -41.41 14.09 -42.33 12.09 -43.14 10.02 -43.86 7.88 -44.47 5.69 -45.01 3.46 -45.48 1.16 0 0zm-38240.28 -9.37l38248.37 0 -8.09 9.37 -38248.37 0 0 0 8.09 -9.37zm-883.5 -863.17l19.27 -3.93 0 0 1.14 44.5 3.38 43.93 5.54 43.31 7.67 42.63 9.74 41.9 11.73 41.13 13.71 40.27 15.6 39.38 17.45 38.42 19.22 37.41 20.97 36.35 22.63 35.22 24.26 34.03 25.81 32.81 27.33 31.52 28.76 30.16 30.17 28.77 31.5 27.31 32.77 25.79 33.99 24.21 35.15 22.6 36.26 20.92 37.3 19.17 38.27 17.38 39.2 15.54 40.05 13.62 40.86 11.66 41.56 9.66 42.24 7.59 42.83 5.49 43.33 3.33 43.82 1.12 -8.09 9.37 -45.36 -1.16 -44.7 -3.43 -43.98 -5.62 -43.2 -7.77 -42.41 -9.85 -41.55 -11.86 -40.66 -13.84 -39.72 -15.74 -38.73 -17.57 -37.68 -19.36 -36.59 -21.11 -35.45 -22.77 -34.25 -24.4 -33 -25.97 -31.7 -27.49 -30.35 -28.93 -28.92 -30.34 -27.47 -31.68 -25.95 -32.96 -24.36 -34.21 -22.74 -35.38 -21.05 -36.5 -19.31 -37.57 -17.51 -38.58 -15.68 -39.54 -13.75 -40.45 -11.79 -41.29 -9.78 -42.08 -7.69 -42.81 -5.57 -43.49 -3.38 -44.1 -1.14 -44.68 0 0zm19.27 -24588.98l0 24585.04 -19.27 3.93 0 -24585.04 0 0 19.27 -3.93zm864.23 -872.54l-8.09 9.37 0 0 -43.7 1.12 -43.02 3.3 -42.34 5.42 -41.58 7.48 -40.84 9.49 -40.09 11.44 -39.31 13.37 -38.5 15.26 -37.66 17.09 -36.75 18.89 -35.8 20.66 -34.77 22.34 -33.68 23.99 -32.51 25.59 -31.29 27.13 -30 28.6 -28.63 30.03 -27.22 31.39 -25.72 32.69 -24.18 33.94 -22.58 35.13 -20.93 36.28 -19.2 37.34 -17.41 38.36 -15.59 39.33 -13.69 40.23 -11.73 41.09 -9.73 41.88 -7.66 42.61 -5.55 43.29 -3.37 43.92 -1.14 44.49 -19.27 3.93 1.14 -44.69 3.39 -44.11 5.56 -43.51 7.7 -42.83 9.79 -42.1 11.79 -41.33 13.77 -40.49 15.69 -39.59 17.54 -38.64 19.33 -37.64 21.1 -36.57 22.79 -35.47 24.43 -34.3 26.04 -33.08 27.58 -31.81 29.06 -30.48 30.51 -29.09 31.91 -27.67 33.26 -26.16 34.57 -24.62 35.82 -23.03 37.05 -21.37 38.23 -19.64 39.34 -17.86 40.42 -16.01 41.41 -14.09 42.33 -12.09 43.14 -10.02 43.86 -7.88 44.47 -5.69 45.01 -3.46 45.48 -1.16 0 0z"/>
  </g>
  <g id="_3162928902336">
   <path class="fil2" d="M12171.48 10178.81c1383.1,-50.81 2774.85,-87.29 2715.58,1507.22 -51.91,1396.17 -1418.83,1422.03 -2721.1,1399.02l5.52 -2906.24zm50.5 4032.77c1197.44,11.61 2266.65,14.06 3127.78,-611.5 1309.56,-951.29 1567.55,-3908.62 -1020.96,-4461.51 -591.7,-126.39 -2865.39,-158.95 -3512.37,-69.88l10.59 8242.55 1327.63 -28.27c38.01,-718.96 -93.86,-2527.3 67.34,-3071.39z"/>
   <polygon class="fil2" points="25867.67,10183.76 29190.56,10179.88 29170.83,9041.64 24505.01,9046.12 24525.08,17315.74 29190.88,17312.07 29170.83,16178.32 25855.03,16156.71 25864.36,13571.43 28967.52,13545.57 28963.48,12437.88 25855.87,12414.35 "/>
   <polygon class="fil2" points="17015.1,10171.7 19433.1,10203.8 19441.06,17315.71 20784.68,17313.7 20801.53,10199.54 23221.09,10194.31 23227.14,9043.71 17026.16,9043.02 "/>
  </g>
 </g>
</svg>
