<?xml version="1.0" encoding="UTF-8"?>
<!DOCTYPE svg PUBLIC "-//W3C//DTD SVG 1.1//EN" "http://www.w3.org/Graphics/SVG/1.1/DTD/svg11.dtd">
<!-- Creator: CorelDRAW -->
<svg xmlns="http://www.w3.org/2000/svg" xml:space="preserve" width="404.75mm" height="266.419mm" version="1.1" style="shape-rendering:geometricPrecision; text-rendering:geometricPrecision; image-rendering:optimizeQuality; fill-rule:evenodd; clip-rule:evenodd"
viewBox="0 0 7335.93 4828.74"
 xmlns:xlink="http://www.w3.org/1999/xlink"
 xmlns:xodm="http://www.corel.com/coreldraw/odm/2003">
 <defs>
  <style type="text/css">
   <![CDATA[
    .fil2 {fill:#555555}
    .fil0 {fill:#E6F1F9}
    .fil1 {fill:#F7F0EA;fill-rule:nonzero}
   ]]>
  </style>
 </defs>
 <g id="Layer_x0020_1">
  <metadata id="CorelCorpID_0Corel-Layer"/>
  <g>
   <path class="fil0" d="M161.26 0.86l7013.41 0c87.72,0 159.49,71.77 159.49,159.49l0 4508.03c0,87.72 -71.77,159.49 -159.49,159.49l-7013.41 0c-87.72,0 -159.49,-71.77 -159.49,-159.49l0 -4508.03c0,-87.72 71.77,-159.49 159.49,-159.49z"/>
   <path id="_1" class="fil1" d="M7173.93 1.72l-7013.41 0 1.48 -1.72 7013.41 0 0 0 -1.48 1.72zm162 158.28l-3.53 0.72 0 0 -0.21 -8.16 -0.62 -8.05 -1.01 -7.94 -1.41 -7.82 -1.79 -7.68 -2.15 -7.54 -2.51 -7.38 -2.86 -7.22 -3.2 -7.05 -3.52 -6.86 -3.85 -6.66 -4.15 -6.46 -4.45 -6.24 -4.73 -6.02 -5.01 -5.78 -5.28 -5.53 -5.53 -5.27 -5.78 -5.01 -6.01 -4.73 -6.23 -4.44 -6.45 -4.14 -6.65 -3.84 -6.84 -3.51 -7.02 -3.19 -7.19 -2.85 -7.34 -2.5 -7.49 -2.14 -7.62 -1.77 -7.74 -1.39 -7.85 -1.01 -7.95 -0.61 -8.03 -0.2 1.48 -1.72 8.32 0.21 8.2 0.63 8.06 1.03 7.92 1.42 7.78 1.81 7.62 2.17 7.46 2.54 7.28 2.89 7.1 3.22 6.91 3.55 6.71 3.87 6.5 4.18 6.28 4.47 6.05 4.76 5.81 5.04 5.56 5.3 5.31 5.56 5.04 5.81 4.76 6.04 4.47 6.27 4.17 6.49 3.86 6.69 3.54 6.89 3.21 7.07 2.87 7.25 2.52 7.42 2.16 7.57 1.79 7.72 1.41 7.85 1.02 7.97 0.62 8.09 0.21 8.19 0 0zm-3.53 4508.76l0 -4508.03 3.53 -0.72 0 4508.03 0 0 -3.53 0.72zm-158.47 159.99l1.48 -1.72 0 0 8.01 -0.2 7.89 -0.61 7.76 -0.99 7.63 -1.37 7.49 -1.74 7.35 -2.1 7.21 -2.45 7.06 -2.8 6.91 -3.13 6.74 -3.46 6.56 -3.79 6.38 -4.1 6.18 -4.4 5.96 -4.69 5.74 -4.98 5.5 -5.25 5.25 -5.5 4.99 -5.76 4.72 -5.99 4.43 -6.22 4.14 -6.44 3.84 -6.65 3.52 -6.85 3.19 -7.03 2.86 -7.21 2.51 -7.38 2.15 -7.53 1.78 -7.68 1.4 -7.81 1.02 -7.94 0.62 -8.05 0.21 -8.16 3.53 -0.72 -0.21 8.19 -0.62 8.09 -1.02 7.98 -1.41 7.85 -1.79 7.72 -2.16 7.58 -2.52 7.42 -2.88 7.26 -3.22 7.08 -3.55 6.9 -3.87 6.71 -4.18 6.5 -4.48 6.29 -4.77 6.07 -5.06 5.83 -5.33 5.59 -5.59 5.34 -5.85 5.07 -6.1 4.8 -6.34 4.51 -6.57 4.22 -6.79 3.92 -7.01 3.6 -7.21 3.28 -7.41 2.94 -7.59 2.58 -7.76 2.22 -7.91 1.84 -8.04 1.44 -8.15 1.04 -8.25 0.63 -8.34 0.21 0 0zm-7011.93 -1.72l7013.41 0 -1.48 1.72 -7013.41 0 0 0 1.48 -1.72zm-162 -158.28l3.53 -0.72 0 0 0.21 8.16 0.62 8.05 1.01 7.94 1.41 7.82 1.79 7.68 2.15 7.54 2.51 7.38 2.86 7.22 3.2 7.05 3.52 6.86 3.85 6.66 4.15 6.46 4.45 6.24 4.73 6.02 5.01 5.78 5.27 5.53 5.53 5.28 5.78 5.01 6.01 4.73 6.23 4.44 6.45 4.14 6.65 3.84 6.84 3.51 7.02 3.19 7.19 2.85 7.34 2.5 7.49 2.14 7.62 1.77 7.74 1.39 7.85 1.01 7.95 0.61 8.03 0.2 -1.48 1.72 -8.32 -0.21 -8.2 -0.63 -8.06 -1.03 -7.92 -1.42 -7.78 -1.81 -7.62 -2.17 -7.46 -2.54 -7.28 -2.89 -7.1 -3.22 -6.91 -3.55 -6.71 -3.87 -6.5 -4.18 -6.28 -4.47 -6.05 -4.76 -5.81 -5.04 -5.56 -5.31 -5.3 -5.56 -5.04 -5.81 -4.76 -6.04 -4.47 -6.27 -4.17 -6.49 -3.86 -6.69 -3.54 -6.89 -3.21 -7.07 -2.87 -7.25 -2.52 -7.42 -2.16 -7.57 -1.79 -7.72 -1.41 -7.85 -1.02 -7.97 -0.62 -8.09 -0.21 -8.19 0 0zm3.53 -4508.76l0 4508.03 -3.53 0.72 0 -4508.03 0 0 3.53 -0.72zm158.47 -159.99l-1.48 1.72 0 0 -8.01 0.2 -7.89 0.61 -7.76 0.99 -7.63 1.37 -7.49 1.74 -7.35 2.1 -7.21 2.45 -7.06 2.8 -6.91 3.13 -6.74 3.46 -6.56 3.79 -6.38 4.1 -6.18 4.4 -5.96 4.69 -5.74 4.98 -5.5 5.24 -5.25 5.51 -4.99 5.76 -4.72 5.99 -4.43 6.22 -4.14 6.44 -3.84 6.65 -3.52 6.85 -3.19 7.03 -2.86 7.21 -2.51 7.38 -2.15 7.53 -1.78 7.68 -1.4 7.81 -1.02 7.94 -0.62 8.05 -0.21 8.16 -3.53 0.72 0.21 -8.19 0.62 -8.09 1.02 -7.98 1.41 -7.85 1.79 -7.72 2.16 -7.58 2.52 -7.42 2.88 -7.26 3.22 -7.08 3.55 -6.9 3.87 -6.71 4.18 -6.5 4.48 -6.29 4.77 -6.07 5.06 -5.83 5.33 -5.59 5.6 -5.33 5.85 -5.07 6.1 -4.8 6.34 -4.51 6.57 -4.22 6.79 -3.92 7.01 -3.6 7.21 -3.28 7.41 -2.94 7.59 -2.58 7.76 -2.22 7.91 -1.84 8.04 -1.44 8.15 -1.04 8.25 -0.63 8.34 -0.21 0 0z"/>
  </g>
  <g id="_3162716005280">
   <path class="fil2" d="M1636.26 3045.82c11.92,18.56 44.58,46 63.39,59.48 22.27,15.96 50.75,31.75 79.86,43.36 296.42,118.27 764.68,14.31 793.99,-363.85 24.92,-321.52 -182.7,-440.95 -469.66,-522 -64.91,-18.33 -129.65,-36.07 -194.97,-54.9 -65.72,-18.95 -129.78,-29.96 -163.62,-86.51 -43,-71.86 -3.69,-142.14 39.53,-173.52 105.2,-76.4 290.32,-55.1 382.92,28.45 61.89,55.84 59.26,116.92 60.51,186.08 33.56,22.45 92.4,31.08 138.87,31.3 72.62,0.34 87.27,-11.45 140.84,-29.42l0.01 -472.95c-27.26,-44.53 -244.17,-44.97 -271.67,0l-0.17 75.01c-11.88,-9.29 -23.32,-30.37 -66.01,-59.44 -87.15,-59.36 -193.3,-77.29 -302.91,-72.3 -285.52,13 -508.26,215.35 -471.22,513.96 48.78,393.19 583.84,359.94 757.63,485.66 41.77,30.22 92.18,84.79 69.18,169.45 -45.29,166.7 -396.81,151.21 -524.27,18.52 -56.6,-58.93 -52.89,-93.28 -52.89,-192.63 -24.75,-45.59 -255.1,-45.12 -279.85,0l0 511.79c19.68,5.94 35.1,15.58 60.87,21.12 85.18,18.29 136.04,4.92 208.78,-21.12l0.86 -95.53z"/>
   <path class="fil2" d="M3461.55 1959.53l149.17 544.93 -311.35 -0.27 162.18 -544.66zm-227.27 773.9l436.81 -0.08 54.38 191.82 -120.99 0.14c-32.92,80.18 -21.74,154.66 -1.29,234.99l595.73 -0.19c31.9,-154.33 23.21,-112.04 0.39,-251.06l-115.46 -0.45 -401.48 -1256.31 -417.69 0.43 -419.81 1256.16 -124.72 0.89c-10.22,46.24 -20.4,78.49 -19.38,130.68 0.43,21.75 9.1,92.96 17.7,110.86 4.08,8.49 0.37,5.09 8.16,8.99l573.24 0c18.39,-71.02 32.92,-167.34 -1.74,-235.1l-123.17 -0.59 59.3 -191.2z"/>
   <path class="fil2" d="M4183.2 2166.32c68.37,39.08 211.47,44.53 277.9,-0.32l0.05 -237.94 222.41 0.11 0.24 979.95 -135.72 0.96c-22.7,132.83 -31.4,104.04 0.43,250.98l616.01 0.11c31.74,-152.15 23.44,-112.47 0.42,-250.97l-135.04 -0.33 -0.79 -979.57 222.06 -1.29 0.7 237.97c54.46,46.42 218.78,36.46 277.88,0.39l0 -494.28 -1346.56 -1.29 0 495.52z"/>
   <path class="fil2" d="M5928.73 1828.3c-30.94,139.93 -249.02,98.45 -213.42,-55.56 12.01,-51.96 66.69,-97.74 133.51,-80.8 53.9,13.66 95.17,67.38 79.91,136.36zm-139.09 -168.21c-71.12,16.36 -133.8,82.18 -111.5,175.12 44.14,183.9 329.08,125.31 288,-65.34 -15.14,-70.24 -87.12,-130.33 -176.5,-109.78z"/>
   <path class="fil2" d="M5800.54 1742.72l14.72 0c18.42,0 23.7,-1.75 31.39,10.29 21.23,34.72 -19.74,36.92 -45.42,36.93l-0.69 -13 0 -34.22zm58.73 71.88c11.83,-13.29 23.2,-17.1 25.88,-41.05 7.67,-68.37 -72.99,-61.55 -127.76,-57.4l-0.6 19.7 7.11 6.17c21.34,16.33 -6.64,-7.57 6.05,4.1l0 109.57c-7.81,13.81 -17.64,-5.2 -12.28,30.68l57.47 -0.05c3.79,-21.61 5.9,-25.18 -14.6,-25.4l0 -43.79 25.03 0.39 29.87 68.56c13.62,0 26.21,1.53 37.37,-2.43l0.66 -17.68c-17.52,-15.78 -10.06,7.05 -34.19,-51.36z"/>
  </g>
 </g>
</svg>
